SplineFontDB: 3.0
FontName: IM_FELL_French_Canon_Roman
FullName: IM FELL French Canon Roman
FamilyName: IM FELL French Canon
Weight: Book
Copyright: (c) 2007 Igino Marini (www.iginomarini.com) With Reserved Font Name IM FELL French Canon Roman
Version: 3.00
ItalicAngle: 0
UnderlinePosition: -200
UnderlineWidth: 84
Ascent: 1638
Descent: 410
InvalidEm: 0
sfntRevision: 0x00030000
LayerCount: 2
Layer: 0 1 "Back" 1
Layer: 1 1 "Fore" 0
XUID: [1021 94 961134937 26651]
StyleMap: 0x0040
FSType: 0
OS2Version: 2
OS2_WeightWidthSlopeOnly: 0
OS2_UseTypoMetrics: 0
CreationTime: 1150036940
ModificationTime: 1551701778
PfmFamily: 17
TTFWeight: 400
TTFWidth: 5
LineGap: 0
VLineGap: 0
Panose: 2 0 0 0 0 0 0 0 0 0
OS2TypoAscent: 1501
OS2TypoAOffset: 0
OS2TypoDescent: -508
OS2TypoDOffset: 0
OS2TypoLinegap: 389
OS2WinAscent: 1868
OS2WinAOffset: 0
OS2WinDescent: 530
OS2WinDOffset: 0
HheadAscent: 1868
HheadAOffset: 0
HheadDescent: -530
HheadDOffset: 0
OS2SubXSize: 1366
OS2SubYSize: 1366
OS2SubXOff: 0
OS2SubYOff: 281
OS2SupXSize: 1366
OS2SupYSize: 1366
OS2SupXOff: 0
OS2SupYOff: 961
OS2StrikeYSize: 100
OS2StrikeYPos: 512
OS2CapHeight: 1465
OS2XHeight: 981
OS2Vendor: '    '
OS2CodePages: 00000093.00000000
OS2UnicodeRanges: a00000ef.5000405a.00000000.00000000
Lookup: 1 0 0 "'aalt' Access All Alternates in Latin lookup 0" { "'aalt' Access All Alternates in Latin lookup 0 subtable"  } ['aalt' ('latn' <'MOL ' 'ROM ' 'TRK ' 'dflt' > ) ]
Lookup: 1 0 0 "'ss04' Style Set 4 in Latin lookup 1" { "'ss04' Style Set 4 in Latin lookup 1 subtable"  } ['locl' ('latn' <'TRK ' > ) 'ss04' ('latn' <'MOL ' 'ROM ' 'TRK ' 'dflt' > ) ]
Lookup: 1 0 0 "'ss03' Style Set 3 in Latin lookup 2" { "'ss03' Style Set 3 in Latin lookup 2 subtable"  } ['locl' ('latn' <'MOL ' 'ROM ' > ) 'salt' ('latn' <'MOL ' 'ROM ' 'TRK ' 'dflt' > ) 'ss03' ('latn' <'MOL ' 'ROM ' 'TRK ' 'dflt' > ) ]

StartChar: .notdef
Encoding: 65536 -1 0
Width: 1346
Flags: W
LayerCount: 2
Fore
SplineSet
1078 28 m 1,0,-1
 1078 1263 l 1,1,-1
 266 1263 l 1,2,-1
 266 28 l 1,3,-1
 1078 28 l 1,0,-1
240 1291 m 1,4,-1
 1105 1291 l 1,5,-1
 1105 0 l 1,6,-1
 240 0 l 1,7,-1
 240 1291 l 1,4,-1
EndSplineSet
Validated: 1
EndChar

StartChar: exclam
Encoding: 33 33 4
Width: 547
Flags: W
LayerCount: 2
Fore
SplineSet
155 119 m 0,0,1
 156 122 156 122 159.5 132 c 128,-1,2
 163 142 163 142 168.5 154 c 128,-1,3
 174 166 174 166 179 177 c 128,-1,4
 184 188 184 188 188 194 c 0,5,6
 199 216 199 216 223 221.5 c 128,-1,7
 247 227 247 227 268 227 c 0,8,9
 288 227 288 227 307 217.5 c 128,-1,10
 326 208 326 208 341 193 c 128,-1,11
 356 178 356 178 365.5 159 c 128,-1,12
 375 140 375 140 375 121 c 0,13,14
 375 100 375 100 367.5 78.5 c 128,-1,15
 360 57 360 57 345.5 40 c 128,-1,16
 331 23 331 23 311.5 12.5 c 128,-1,17
 292 2 292 2 268 2 c 256,18,19
 244 2 244 2 222 11 c 128,-1,20
 200 20 200 20 183.5 35.5 c 128,-1,21
 167 51 167 51 158.5 72.5 c 128,-1,22
 150 94 150 94 155 119 c 0,0,1
294 446 m 256,23,24
 283 446 283 446 274.5 463 c 128,-1,25
 266 480 266 480 260 508.5 c 128,-1,26
 254 537 254 537 250 573.5 c 128,-1,27
 246 610 246 610 242.5 648 c 128,-1,28
 239 686 239 686 236.5 723 c 128,-1,29
 234 760 234 760 231 789 c 0,30,31
 227 828 227 828 223.5 861 c 128,-1,32
 220 894 220 894 216 925.5 c 128,-1,33
 212 957 212 957 207.5 989.5 c 128,-1,34
 203 1022 203 1022 197 1059 c 0,35,36
 183 1141 183 1141 166.5 1219 c 128,-1,37
 150 1297 150 1297 150 1377 c 0,38,39
 150 1396 150 1396 160 1410.5 c 128,-1,40
 170 1425 170 1425 185 1434.5 c 128,-1,41
 200 1444 200 1444 218 1448.5 c 128,-1,42
 236 1453 236 1453 252 1453 c 0,43,44
 270 1453 270 1453 290.5 1449 c 128,-1,45
 311 1445 311 1445 327.5 1435.5 c 128,-1,46
 344 1426 344 1426 355 1411 c 128,-1,47
 366 1396 366 1396 366 1374 c 0,48,49
 366 1282 366 1282 359.5 1191 c 128,-1,50
 353 1100 353 1100 344.5 1009.5 c 128,-1,51
 336 919 336 919 329.5 828.5 c 128,-1,52
 323 738 323 738 323 647 c 1,53,-1
 328 535 l 2,54,55
 330 530 330 530 331 514 c 128,-1,56
 332 498 332 498 332 484 c 256,57,58
 332 470 332 470 318.5 458 c 128,-1,59
 305 446 305 446 294 446 c 256,23,24
EndSplineSet
Validated: 1
EndChar

StartChar: quotedbl
Encoding: 34 34 5
Width: 796
Flags: W
LayerCount: 2
Fore
SplineSet
70 1060 m 1,0,1
 72 1062 72 1062 74 1065.5 c 128,-1,2
 76 1069 76 1069 82 1076 c 0,3,4
 99 1085 99 1085 111 1091.5 c 128,-1,5
 123 1098 123 1098 132 1102 c 0,6,7
 149 1112 149 1112 175.5 1128 c 128,-1,8
 202 1144 202 1144 227 1164 c 128,-1,9
 252 1184 252 1184 270 1206.5 c 128,-1,10
 288 1229 288 1229 288 1253 c 0,11,12
 288 1255 288 1255 287 1260 c 128,-1,13
 286 1265 286 1265 281 1265 c 0,14,15
 272 1263 272 1263 263 1262 c 128,-1,16
 254 1261 254 1261 245 1261 c 0,17,18
 233 1261 233 1261 222.5 1262 c 128,-1,19
 212 1263 212 1263 202 1265 c 0,20,21
 197 1265 197 1265 188.5 1269 c 128,-1,22
 180 1273 180 1273 171.5 1279 c 128,-1,23
 163 1285 163 1285 155 1291.5 c 128,-1,24
 147 1298 147 1298 143 1303 c 0,25,26
 120 1327 120 1327 120 1365 c 0,27,28
 120 1412 120 1412 149 1441 c 128,-1,29
 178 1470 178 1470 226 1470 c 0,30,31
 260 1470 260 1470 288 1455.5 c 128,-1,32
 316 1441 316 1441 335.5 1417.5 c 128,-1,33
 355 1394 355 1394 365.5 1363 c 128,-1,34
 376 1332 376 1332 376 1299 c 0,35,36
 376 1239 376 1239 351.5 1192.5 c 128,-1,37
 327 1146 327 1146 281 1114 c 0,38,39
 265 1103 265 1103 247.5 1091.5 c 128,-1,40
 230 1080 230 1080 207 1071 c 0,41,42
 178 1059 178 1059 154 1053 c 128,-1,43
 130 1047 130 1047 106 1047 c 0,44,45
 98 1047 98 1047 91 1048.5 c 128,-1,46
 84 1050 84 1050 70 1060 c 1,0,1
428 1060 m 1,47,48
 430 1062 430 1062 432 1065.5 c 128,-1,49
 434 1069 434 1069 440 1076 c 0,50,51
 457 1085 457 1085 469 1091.5 c 128,-1,52
 481 1098 481 1098 491 1102 c 0,53,54
 507 1112 507 1112 533.5 1128 c 128,-1,55
 560 1144 560 1144 585 1164 c 128,-1,56
 610 1184 610 1184 628 1206.5 c 128,-1,57
 646 1229 646 1229 646 1253 c 0,58,59
 646 1255 646 1255 645 1260 c 128,-1,60
 644 1265 644 1265 639 1265 c 0,61,62
 630 1263 630 1263 621 1262 c 128,-1,63
 612 1261 612 1261 603 1261 c 0,64,65
 591 1261 591 1261 581 1262 c 128,-1,66
 571 1263 571 1263 560 1265 c 0,67,68
 555 1265 555 1265 546.5 1269 c 128,-1,69
 538 1273 538 1273 529.5 1279 c 128,-1,70
 521 1285 521 1285 513 1291.5 c 128,-1,71
 505 1298 505 1298 501 1303 c 0,72,73
 478 1327 478 1327 478 1365 c 0,74,75
 478 1412 478 1412 507 1441 c 128,-1,76
 536 1470 536 1470 584 1470 c 0,77,78
 618 1470 618 1470 646 1455.5 c 128,-1,79
 674 1441 674 1441 693.5 1417.5 c 128,-1,80
 713 1394 713 1394 723.5 1363 c 128,-1,81
 734 1332 734 1332 734 1299 c 0,82,83
 734 1239 734 1239 709.5 1192.5 c 128,-1,84
 685 1146 685 1146 639 1114 c 0,85,86
 624 1103 624 1103 606 1091.5 c 128,-1,87
 588 1080 588 1080 565 1071 c 0,88,89
 536 1059 536 1059 512 1053 c 128,-1,90
 488 1047 488 1047 465 1047 c 0,91,92
 457 1047 457 1047 449.5 1048.5 c 128,-1,93
 442 1050 442 1050 428 1060 c 1,47,48
EndSplineSet
Validated: 1
EndChar

StartChar: numbersign
Encoding: 35 35 6
Width: 1289
Flags: W
LayerCount: 2
Fore
SplineSet
1192 931 m 0,0,1
 1192 888 1192 888 1173 887 c 0,2,3
 1104 881 1104 881 1038 881 c 0,4,5
 1000 881 1000 881 966.5 882.5 c 128,-1,6
 933 884 933 884 891 887 c 1,7,8
 871 800 871 800 846.5 715 c 128,-1,9
 822 630 822 630 796 543 c 1,10,11
 830 541 830 541 863 539.5 c 128,-1,12
 896 538 896 538 930 538 c 0,13,14
 959 538 959 538 988.5 539 c 128,-1,15
 1018 540 1018 540 1047 543 c 0,16,17
 1069 543 1069 543 1069 495 c 256,18,19
 1069 447 1069 447 1047 448 c 0,20,21
 1012 450 1012 450 977 451 c 128,-1,22
 942 452 942 452 907 452 c 256,23,24
 872 452 872 452 837.5 451 c 128,-1,25
 803 450 803 450 768 448 c 1,26,-1
 668 102 l 2,27,28
 665 86 665 86 618 86 c 0,29,30
 595 86 595 86 585.5 90 c 128,-1,31
 576 94 576 94 576 102 c 2,32,-1
 675 448 l 1,33,34
 640 446 640 446 605.5 444.5 c 128,-1,35
 571 443 571 443 536 443 c 0,36,37
 510 443 510 443 484.5 444 c 128,-1,38
 459 445 459 445 434 448 c 1,39,40
 406 363 406 363 380 278 c 128,-1,41
 354 193 354 193 332 102 c 0,42,43
 328 93 328 93 318.5 89.5 c 128,-1,44
 309 86 309 86 282 86 c 0,45,46
 241 86 241 86 241 102 c 0,47,48
 261 193 261 193 287 279 c 128,-1,49
 313 365 313 365 343 448 c 1,50,51
 283 445 283 445 225 445 c 0,52,53
 165 445 165 445 107 448 c 0,54,55
 87 448 87 448 87 495 c 256,56,57
 87 542 87 542 106 543 c 0,58,59
 145 545 145 545 184.5 546.5 c 128,-1,60
 224 548 224 548 263 548 c 0,61,62
 289 548 289 548 315.5 547 c 128,-1,63
 342 546 342 546 369 543 c 1,64,65
 390 631 390 631 413 716.5 c 128,-1,66
 436 802 436 802 467 887 c 1,67,68
 444 884 444 884 420.5 883 c 128,-1,69
 397 882 397 882 374 882 c 0,70,71
 338 882 338 882 302 883.5 c 128,-1,72
 266 885 266 885 230 887 c 0,73,74
 208 887 208 887 208 931 c 0,75,76
 208 977 208 977 230 976 c 0,77,78
 266 974 266 974 302.5 972.5 c 128,-1,79
 339 971 339 971 376 971 c 0,80,81
 405 971 405 971 433.5 972 c 128,-1,82
 462 973 462 973 491 976 c 1,83,84
 520 1066 520 1066 546 1155.5 c 128,-1,85
 572 1245 572 1245 595 1339 c 0,86,87
 603 1355 603 1355 647 1355 c 0,88,89
 689 1355 689 1355 689 1339 c 0,90,91
 667 1246 667 1246 639.5 1156.5 c 128,-1,92
 612 1067 612 1067 583 976 c 1,93,94
 612 974 612 974 641 972.5 c 128,-1,95
 670 971 670 971 699 971 c 0,96,97
 731 971 731 971 762 972.5 c 128,-1,98
 793 974 793 974 825 976 c 1,99,-1
 929 1339 l 2,100,101
 935 1355 935 1355 981 1355 c 0,102,103
 1021 1355 1021 1355 1021 1339 c 1,104,-1
 917 976 l 1,105,106
 946 978 946 978 974 979 c 128,-1,107
 1002 980 1002 980 1030 980 c 0,108,109
 1066 980 1066 980 1102 979 c 128,-1,110
 1138 978 1138 978 1173 976 c 0,111,112
 1192 976 1192 976 1192 931 c 0,0,1
801 887 m 1,113,114
 739 893 739 893 680 893 c 0,115,116
 619 893 619 893 559 887 c 1,117,118
 537 801 537 801 512.5 716 c 128,-1,119
 488 631 488 631 460 543 c 1,120,121
 486 540 486 540 510 539 c 128,-1,122
 534 538 534 538 559 538 c 0,123,124
 595 538 595 538 631 539.5 c 128,-1,125
 667 541 667 541 703 543 c 1,126,127
 732 631 732 631 757 716.5 c 128,-1,128
 782 802 782 802 801 887 c 1,113,114
EndSplineSet
Validated: 1
EndChar

StartChar: dollar
Encoding: 36 36 7
Width: 1127
Flags: W
LayerCount: 2
Fore
SplineSet
522 1398 m 1,0,1
 515 1398 515 1398 510 1397 c 128,-1,2
 505 1396 505 1396 500 1394 c 0,3,4
 449 1379 449 1379 414.5 1345.5 c 128,-1,5
 380 1312 380 1312 351 1270 c 0,6,7
 342 1258 342 1258 335.5 1239.5 c 128,-1,8
 329 1221 329 1221 324.5 1200.5 c 128,-1,9
 320 1180 320 1180 317.5 1161 c 128,-1,10
 315 1142 315 1142 315 1130 c 0,11,12
 315 1085 315 1085 332.5 1048 c 128,-1,13
 350 1011 350 1011 379 981.5 c 128,-1,14
 408 952 408 952 445.5 929 c 128,-1,15
 483 906 483 906 522 889 c 1,16,-1
 522 1398 l 1,0,1
577 43 m 1,17,-1
 588 43 l 2,18,19
 615 43 615 43 643.5 53.5 c 128,-1,20
 672 64 672 64 711 86 c 0,21,22
 768 120 768 120 801.5 167.5 c 128,-1,23
 835 215 835 215 835 287 c 0,24,25
 835 338 835 338 816.5 382 c 128,-1,26
 798 426 798 426 766 464 c 0,27,28
 716 521 716 521 668.5 549.5 c 128,-1,29
 621 578 621 578 577 595 c 1,30,-1
 577 43 l 1,17,-1
522 -3 m 1,31,32
 436 2 436 2 363.5 29.5 c 128,-1,33
 291 57 291 57 231 123 c 0,34,35
 227 128 227 128 221 129 c 128,-1,36
 215 130 215 130 211 130 c 0,37,38
 193 130 193 130 186 121 c 128,-1,39
 179 112 179 112 174.5 100.5 c 128,-1,40
 170 89 170 89 164 80 c 128,-1,41
 158 71 158 71 143 71 c 1,42,-1
 169 346 l 2,43,44
 172 359 172 359 173 377 c 128,-1,45
 174 395 174 395 178 401 c 0,46,47
 181 415 181 415 188 415 c 0,48,49
 200 415 200 415 206 400 c 0,50,51
 212 383 212 383 216 366.5 c 128,-1,52
 220 350 220 350 223 334 c 128,-1,53
 226 318 226 318 229 304 c 128,-1,54
 232 290 232 290 238 279 c 0,55,56
 262 238 262 238 283.5 206 c 128,-1,57
 305 174 305 174 331.5 147 c 128,-1,58
 358 120 358 120 392.5 98 c 128,-1,59
 427 76 427 76 477 57 c 0,60,61
 489 53 489 53 500 50 c 128,-1,62
 511 47 511 47 522 45 c 1,63,-1
 522 616 l 1,64,65
 491 626 491 626 459.5 637.5 c 128,-1,66
 428 649 428 649 395.5 667 c 128,-1,67
 363 685 363 685 329 712 c 128,-1,68
 295 739 295 739 259 780 c 0,69,70
 157 902 157 902 157 1071 c 0,71,72
 157 1121 157 1121 173.5 1172 c 128,-1,73
 190 1223 190 1223 218 1268.5 c 128,-1,74
 246 1314 246 1314 283.5 1351.5 c 128,-1,75
 321 1389 321 1389 363 1412 c 0,76,77
 401 1434 401 1434 440 1439.5 c 128,-1,78
 479 1445 479 1445 522 1445 c 1,79,-1
 522 1547 l 2,80,81
 522 1552 522 1552 522.5 1559 c 128,-1,82
 523 1566 523 1566 524.5 1572.5 c 128,-1,83
 526 1579 526 1579 529.5 1583.5 c 128,-1,84
 533 1588 533 1588 539 1588 c 2,85,-1
 562 1588 l 2,86,87
 564 1588 564 1588 570.5 1580.5 c 128,-1,88
 577 1573 577 1573 577 1557 c 2,89,-1
 577 1443 l 1,90,91
 662 1436 662 1436 742 1394 c 0,92,93
 746 1391 746 1391 756.5 1384 c 128,-1,94
 767 1377 767 1377 780.5 1367 c 128,-1,95
 794 1357 794 1357 808.5 1346.5 c 128,-1,96
 823 1336 823 1336 834 1327 c 0,97,98
 836 1323 836 1323 840 1323 c 0,99,100
 842 1323 842 1323 846 1327 c 0,101,102
 849 1331 849 1331 853.5 1339.5 c 128,-1,103
 858 1348 858 1348 863 1357.5 c 128,-1,104
 868 1367 868 1367 872.5 1375.5 c 128,-1,105
 877 1384 877 1384 879 1387 c 0,106,107
 880 1392 880 1392 883.5 1396 c 128,-1,108
 887 1400 887 1400 889 1400 c 1,109,110
 889 1401 889 1401 892 1401 c 0,111,112
 898 1401 898 1401 901 1396.5 c 128,-1,113
 904 1392 904 1392 905.5 1386 c 128,-1,114
 907 1380 907 1380 907.5 1373.5 c 128,-1,115
 908 1367 908 1367 908 1363 c 2,116,-1
 908 1356 l 2,117,118
 908 1354 908 1354 907.5 1348 c 128,-1,119
 907 1342 907 1342 906 1334.5 c 128,-1,120
 905 1327 905 1327 904 1321 c 128,-1,121
 903 1315 903 1315 903 1313 c 2,122,-1
 903 1066 l 2,123,124
 903 1058 903 1058 896 1055 c 128,-1,125
 889 1052 889 1052 884 1052 c 0,126,127
 873 1052 873 1052 871 1056.5 c 128,-1,128
 869 1061 869 1061 865 1073 c 0,129,130
 854 1099 854 1099 850 1126.5 c 128,-1,131
 846 1154 846 1154 835 1183 c 0,132,133
 824 1216 824 1216 798 1254.5 c 128,-1,134
 772 1293 772 1293 738.5 1326 c 128,-1,135
 705 1359 705 1359 667.5 1381 c 128,-1,136
 630 1403 630 1403 597 1403 c 2,137,-1
 577 1403 l 1,138,-1
 577 865 l 1,139,140
 610 852 610 852 644.5 839.5 c 128,-1,141
 679 827 679 827 712 813 c 128,-1,142
 745 799 745 799 775 783 c 128,-1,143
 805 767 805 767 830 747 c 0,144,145
 864 720 864 720 897.5 680.5 c 128,-1,146
 931 641 931 641 957 594.5 c 128,-1,147
 983 548 983 548 999 498 c 128,-1,148
 1015 448 1015 448 1015 400 c 0,149,150
 1015 307 1015 307 982.5 232 c 128,-1,151
 950 157 950 157 892.5 104.5 c 128,-1,152
 835 52 835 52 757.5 23.5 c 128,-1,153
 680 -5 680 -5 590 -5 c 2,154,-1
 577 -5 l 1,155,-1
 577 -192 l 1,156,157
 572 -201 572 -201 564 -203.5 c 128,-1,158
 556 -206 556 -206 548 -206 c 0,159,160
 539 -206 539 -206 533 -204.5 c 128,-1,161
 527 -203 527 -203 522 -192 c 1,162,-1
 522 -3 l 1,31,32
EndSplineSet
Validated: 1
EndChar

StartChar: ampersand
Encoding: 38 38 9
Width: 1682
Flags: W
LayerCount: 2
Fore
SplineSet
278 1142 m 0,0,1
 278 1194 278 1194 305.5 1244.5 c 128,-1,2
 333 1295 333 1295 376 1334.5 c 128,-1,3
 419 1374 419 1374 472.5 1398 c 128,-1,4
 526 1422 526 1422 577 1422 c 0,5,6
 630 1422 630 1422 670.5 1414.5 c 128,-1,7
 711 1407 711 1407 744.5 1389.5 c 128,-1,8
 778 1372 778 1372 807.5 1343.5 c 128,-1,9
 837 1315 837 1315 868 1272 c 0,10,11
 891 1240 891 1240 904.5 1208 c 128,-1,12
 918 1176 918 1176 918 1131 c 0,13,14
 918 1066 918 1066 888.5 1015 c 128,-1,15
 859 964 859 964 807 926 c 0,16,17
 798 918 798 918 783 910.5 c 128,-1,18
 768 903 768 903 751 897 c 128,-1,19
 734 891 734 891 716.5 886.5 c 128,-1,20
 699 882 699 882 686 879 c 0,21,22
 679 877 679 877 676.5 873 c 128,-1,23
 674 869 674 869 674 865 c 256,24,25
 674 861 674 861 675.5 855.5 c 128,-1,26
 677 850 677 850 686 846 c 0,27,28
 725 825 725 825 767 800 c 128,-1,29
 809 775 809 775 859 737 c 0,30,31
 916 692 916 692 969.5 641 c 128,-1,32
 1023 590 1023 590 1070 538 c 0,33,34
 1077 533 1077 533 1082 533 c 0,35,36
 1085 533 1085 533 1094.5 545.5 c 128,-1,37
 1104 558 1104 558 1117.5 577.5 c 128,-1,38
 1131 597 1131 597 1146.5 620 c 128,-1,39
 1162 643 1162 643 1175 664.5 c 128,-1,40
 1188 686 1188 686 1197.5 702 c 128,-1,41
 1207 718 1207 718 1210 723 c 0,42,43
 1217 738 1217 738 1220.5 748 c 128,-1,44
 1224 758 1224 758 1225.5 767 c 128,-1,45
 1227 776 1227 776 1227.5 785 c 128,-1,46
 1228 794 1228 794 1228 808 c 0,47,48
 1228 812 1228 812 1226 824 c 128,-1,49
 1224 836 1224 836 1216 841 c 0,50,51
 1194 856 1194 856 1170.5 865 c 128,-1,52
 1147 874 1147 874 1122.5 881.5 c 128,-1,53
 1098 889 1098 889 1074.5 897.5 c 128,-1,54
 1051 906 1051 906 1029 919 c 0,55,56
 1026 920 1026 920 1024.5 923.5 c 128,-1,57
 1023 927 1023 927 1023 932 c 0,58,59
 1023 939 1023 939 1026 947 c 128,-1,60
 1029 955 1029 955 1048 955 c 2,61,-1
 1408 955 l 2,62,63
 1421 955 1421 955 1441 957 c 128,-1,64
 1461 959 1461 959 1481 961 c 128,-1,65
 1501 963 1501 963 1519.5 965 c 128,-1,66
 1538 967 1538 967 1549 967 c 0,67,68
 1570 967 1570 967 1570 950 c 0,69,70
 1570 931 1570 931 1553 917 c 1,71,72
 1525 904 1525 904 1496.5 892 c 128,-1,73
 1468 880 1468 880 1442.5 868 c 128,-1,74
 1417 856 1417 856 1395.5 842.5 c 128,-1,75
 1374 829 1374 829 1359 813 c 0,76,77
 1324 774 1324 774 1295.5 735 c 128,-1,78
 1267 696 1267 696 1240 658 c 128,-1,79
 1213 620 1213 620 1187 583 c 128,-1,80
 1161 546 1161 546 1132 509 c 0,81,82
 1117 488 1117 488 1117 483 c 0,83,84
 1117 466 1117 466 1124.5 442.5 c 128,-1,85
 1132 419 1132 419 1143 403 c 0,86,87
 1156 378 1156 378 1168 353.5 c 128,-1,88
 1180 329 1180 329 1192.5 305 c 128,-1,89
 1205 281 1205 281 1221 257.5 c 128,-1,90
 1237 234 1237 234 1259 211 c 0,91,92
 1272 197 1272 197 1289 188 c 128,-1,93
 1306 179 1306 179 1324 174 c 128,-1,94
 1342 169 1342 169 1358.5 167.5 c 128,-1,95
 1375 166 1375 166 1387 166 c 0,96,97
 1409 166 1409 166 1424.5 169 c 128,-1,98
 1440 172 1440 172 1451 177 c 128,-1,99
 1462 182 1462 182 1469.5 189 c 128,-1,100
 1477 196 1477 196 1485 204 c 0,101,102
 1498 217 1498 217 1510 245.5 c 128,-1,103
 1522 274 1522 274 1533.5 302.5 c 128,-1,104
 1545 331 1545 331 1556 352.5 c 128,-1,105
 1567 374 1567 374 1579 374 c 0,106,107
 1589 374 1589 374 1595.5 367 c 128,-1,108
 1602 360 1602 360 1606 349.5 c 128,-1,109
 1610 339 1610 339 1611.5 328 c 128,-1,110
 1613 317 1613 317 1613 310 c 0,111,112
 1613 252 1613 252 1591.5 197 c 128,-1,113
 1570 142 1570 142 1532.5 99.5 c 128,-1,114
 1495 57 1495 57 1444 31 c 128,-1,115
 1393 5 1393 5 1333 5 c 0,116,117
 1267 5 1267 5 1207 24.5 c 128,-1,118
 1147 44 1147 44 1101 93 c 0,119,120
 1080 117 1080 117 1065.5 142.5 c 128,-1,121
 1051 168 1051 168 1040 194.5 c 128,-1,122
 1029 221 1029 221 1019.5 248.5 c 128,-1,123
 1010 276 1010 276 999 304 c 0,124,125
 997 310 997 310 985 310 c 0,126,127
 970 310 970 310 961.5 292.5 c 128,-1,128
 953 275 953 275 935 254 c 0,129,130
 923 240 923 240 909 224.5 c 128,-1,131
 895 209 895 209 880.5 194 c 128,-1,132
 866 179 866 179 851.5 166 c 128,-1,133
 837 153 837 153 825 144 c 0,134,135
 785 113 785 113 741 87 c 128,-1,136
 697 61 697 61 650 41.5 c 128,-1,137
 603 22 603 22 553.5 11 c 128,-1,138
 504 0 504 0 453 0 c 0,139,140
 403 0 403 0 354.5 17.5 c 128,-1,141
 306 35 306 35 264.5 61 c 128,-1,142
 223 87 223 87 192 116.5 c 128,-1,143
 161 146 161 146 148 170 c 0,144,145
 134 198 134 198 123.5 221 c 128,-1,146
 113 244 113 244 106 268.5 c 128,-1,147
 99 293 99 293 96 322 c 128,-1,148
 93 351 93 351 93 391 c 0,149,150
 93 460 93 460 119.5 523 c 128,-1,151
 146 586 146 586 188 640 c 128,-1,152
 230 694 230 694 283 736.5 c 128,-1,153
 336 779 336 779 390 808 c 0,154,155
 399 813 399 813 409.5 817 c 128,-1,156
 420 821 420 821 420 832 c 0,157,158
 420 839 420 839 416 843 c 0,159,160
 382 875 382 875 362.5 899.5 c 128,-1,161
 343 924 343 924 326 957 c 0,162,163
 300 1003 300 1003 289 1045 c 128,-1,164
 278 1087 278 1087 278 1142 c 0,0,1
446 794 m 0,165,166
 430 794 430 794 410.5 777.5 c 128,-1,167
 391 761 391 761 370.5 734.5 c 128,-1,168
 350 708 350 708 331 675 c 128,-1,169
 312 642 312 642 297 608.5 c 128,-1,170
 282 575 282 575 273 545 c 128,-1,171
 264 515 264 515 264 495 c 0,172,173
 264 458 264 458 267.5 421.5 c 128,-1,174
 271 385 271 385 281.5 351 c 128,-1,175
 292 317 292 317 312 286.5 c 128,-1,176
 332 256 332 256 366 230 c 0,177,178
 389 210 389 210 420 198 c 128,-1,179
 451 186 451 186 482 180 c 128,-1,180
 513 174 513 174 541.5 172.5 c 128,-1,181
 570 171 570 171 588 171 c 0,182,183
 659 171 659 171 712 186 c 128,-1,184
 765 201 765 201 807 225.5 c 128,-1,185
 849 250 849 250 883 282 c 128,-1,186
 917 314 917 314 951 348 c 0,187,188
 956 353 956 353 956 360 c 0,189,190
 956 393 956 393 931 429 c 128,-1,191
 906 465 906 465 866.5 501.5 c 128,-1,192
 827 538 827 538 779 573.5 c 128,-1,193
 731 609 731 609 684.5 640 c 128,-1,194
 638 671 638 671 598.5 697 c 128,-1,195
 559 723 559 723 537 740 c 0,196,197
 528 748 528 748 518 757.5 c 128,-1,198
 508 767 508 767 496.5 775 c 128,-1,199
 485 783 485 783 472.5 788.5 c 128,-1,200
 460 794 460 794 446 794 c 0,165,166
427 1173 m 0,201,202
 427 1135 427 1135 441 1088.5 c 128,-1,203
 455 1042 455 1042 480.5 1001.5 c 128,-1,204
 506 961 506 961 542.5 934 c 128,-1,205
 579 907 579 907 624 907 c 0,206,207
 633 907 633 907 646.5 912 c 128,-1,208
 660 917 660 917 671 924 c 0,209,210
 725 956 725 956 748 1004.5 c 128,-1,211
 771 1053 771 1053 771 1116 c 0,212,213
 771 1176 771 1176 758.5 1230 c 128,-1,214
 746 1284 746 1284 707 1329 c 0,215,216
 689 1349 689 1349 663 1363 c 128,-1,217
 637 1377 637 1377 605 1377 c 0,218,219
 571 1377 571 1377 539 1357 c 128,-1,220
 507 1337 507 1337 482 1307 c 128,-1,221
 457 1277 457 1277 442 1241 c 128,-1,222
 427 1205 427 1205 427 1173 c 0,201,202
EndSplineSet
Validated: 1
EndChar

StartChar: quotesingle
Encoding: 39 39 10
Width: 438
Flags: W
LayerCount: 2
Fore
SplineSet
70 1060 m 1,0,1
 72 1062 72 1062 74 1065.5 c 128,-1,2
 76 1069 76 1069 82 1076 c 0,3,4
 99 1085 99 1085 111 1091.5 c 128,-1,5
 123 1098 123 1098 132 1102 c 0,6,7
 149 1112 149 1112 175.5 1128 c 128,-1,8
 202 1144 202 1144 227 1164 c 128,-1,9
 252 1184 252 1184 270 1206.5 c 128,-1,10
 288 1229 288 1229 288 1253 c 0,11,12
 288 1255 288 1255 287 1260 c 128,-1,13
 286 1265 286 1265 281 1265 c 0,14,15
 272 1263 272 1263 263 1262 c 128,-1,16
 254 1261 254 1261 245 1261 c 0,17,18
 233 1261 233 1261 222.5 1262 c 128,-1,19
 212 1263 212 1263 202 1265 c 0,20,21
 197 1265 197 1265 188.5 1269 c 128,-1,22
 180 1273 180 1273 171.5 1279 c 128,-1,23
 163 1285 163 1285 155 1291.5 c 128,-1,24
 147 1298 147 1298 143 1303 c 0,25,26
 120 1327 120 1327 120 1365 c 0,27,28
 120 1412 120 1412 149 1441 c 128,-1,29
 178 1470 178 1470 226 1470 c 0,30,31
 260 1470 260 1470 288 1455.5 c 128,-1,32
 316 1441 316 1441 335.5 1417.5 c 128,-1,33
 355 1394 355 1394 365.5 1363 c 128,-1,34
 376 1332 376 1332 376 1299 c 0,35,36
 376 1239 376 1239 351.5 1192.5 c 128,-1,37
 327 1146 327 1146 281 1114 c 0,38,39
 265 1103 265 1103 247.5 1091.5 c 128,-1,40
 230 1080 230 1080 207 1071 c 0,41,42
 178 1059 178 1059 154 1053 c 128,-1,43
 130 1047 130 1047 106 1047 c 0,44,45
 98 1047 98 1047 91 1048.5 c 128,-1,46
 84 1050 84 1050 70 1060 c 1,0,1
EndSplineSet
Validated: 1
EndChar

StartChar: parenleft
Encoding: 40 40 11
Width: 570
Flags: W
LayerCount: 2
Fore
SplineSet
225 500 m 0,0,1
 225 398 225 398 241.5 307.5 c 128,-1,2
 258 217 258 217 287 128 c 0,3,4
 305 74 305 74 332 12.5 c 128,-1,5
 359 -49 359 -49 393 -109 c 128,-1,6
 427 -169 427 -169 467 -222.5 c 128,-1,7
 507 -276 507 -276 549 -313 c 0,8,9
 563 -326 563 -326 578.5 -342 c 128,-1,10
 594 -358 594 -358 594 -368 c 0,11,12
 594 -376 594 -376 587 -377.5 c 128,-1,13
 580 -379 580 -379 575 -379 c 0,14,15
 555 -379 555 -379 536 -368 c 128,-1,16
 517 -357 517 -357 499.5 -341.5 c 128,-1,17
 482 -326 482 -326 467 -309 c 128,-1,18
 452 -292 452 -292 440 -279 c 0,19,20
 438 -276 438 -276 430 -267.5 c 128,-1,21
 422 -259 422 -259 412 -249 c 128,-1,22
 402 -239 402 -239 393 -229.5 c 128,-1,23
 384 -220 384 -220 381 -216 c 0,24,25
 371 -204 371 -204 354.5 -183 c 128,-1,26
 338 -162 338 -162 320.5 -140 c 128,-1,27
 303 -118 303 -118 288.5 -98 c 128,-1,28
 274 -78 274 -78 268 -66 c 0,29,30
 194 59 194 59 147.5 202.5 c 128,-1,31
 101 346 101 346 101 495 c 0,32,33
 101 535 101 535 102.5 571 c 128,-1,34
 104 607 104 607 107.5 641.5 c 128,-1,35
 111 676 111 676 117 711 c 128,-1,36
 123 746 123 746 132 785 c 0,37,38
 139 815 139 815 148 847.5 c 128,-1,39
 157 880 157 880 171 919.5 c 128,-1,40
 185 959 185 959 206 1008.5 c 128,-1,41
 227 1058 227 1058 258 1123 c 1,42,43
 313 1214 313 1214 381 1297 c 128,-1,44
 449 1380 449 1380 531 1458 c 0,45,46
 545 1467 545 1467 559.5 1469.5 c 128,-1,47
 574 1472 574 1472 590 1472 c 1,48,49
 590 1457 590 1457 573 1430 c 128,-1,50
 556 1403 556 1403 533.5 1374 c 128,-1,51
 511 1345 511 1345 489 1317 c 128,-1,52
 467 1289 467 1289 457 1272 c 0,53,54
 401 1177 401 1177 358 1087.5 c 128,-1,55
 315 998 315 998 285.5 905.5 c 128,-1,56
 256 813 256 813 240.5 713.5 c 128,-1,57
 225 614 225 614 225 500 c 0,0,1
EndSplineSet
Validated: 1
EndChar

StartChar: parenright
Encoding: 41 41 12
Width: 570
Flags: W
LayerCount: 2
Fore
SplineSet
345 593 m 0,0,1
 345 695 345 695 328.5 786 c 128,-1,2
 312 877 312 877 283 965 c 0,3,4
 265 1019 265 1019 238 1080.5 c 128,-1,5
 211 1142 211 1142 177 1202 c 128,-1,6
 143 1262 143 1262 103.5 1315 c 128,-1,7
 64 1368 64 1368 22 1406 c 0,8,9
 8 1420 8 1420 -7.5 1435.5 c 128,-1,10
 -23 1451 -23 1451 -23 1462 c 0,11,12
 -23 1470 -23 1470 -16 1471 c 128,-1,13
 -9 1472 -9 1472 -4 1472 c 0,14,15
 16 1472 16 1472 35 1461 c 128,-1,16
 54 1450 54 1450 71 1434.5 c 128,-1,17
 88 1419 88 1419 103.5 1402 c 128,-1,18
 119 1385 119 1385 131 1372 c 0,19,20
 133 1369 133 1369 141 1360.5 c 128,-1,21
 149 1352 149 1352 159 1342 c 128,-1,22
 169 1332 169 1332 178 1323 c 128,-1,23
 187 1314 187 1314 190 1310 c 0,24,25
 199 1298 199 1298 215.5 1277 c 128,-1,26
 232 1256 232 1256 249.5 1233.5 c 128,-1,27
 267 1211 267 1211 281.5 1191 c 128,-1,28
 296 1171 296 1171 302 1159 c 0,29,30
 339 1097 339 1097 370 1029.5 c 128,-1,31
 401 962 401 962 423 891 c 128,-1,32
 445 820 445 820 457.5 746.5 c 128,-1,33
 470 673 470 673 470 599 c 0,34,35
 470 558 470 558 468.5 522.5 c 128,-1,36
 467 487 467 487 463.5 452 c 128,-1,37
 460 417 460 417 454 382 c 128,-1,38
 448 347 448 347 439 308 c 0,39,40
 432 278 432 278 423 245.5 c 128,-1,41
 414 213 414 213 399.5 173.5 c 128,-1,42
 385 134 385 134 364 84.5 c 128,-1,43
 343 35 343 35 312 -29 c 1,44,45
 258 -121 258 -121 189.5 -204 c 128,-1,46
 121 -287 121 -287 39 -365 c 0,47,48
 26 -374 26 -374 11 -376.5 c 128,-1,49
 -4 -379 -4 -379 -20 -379 c 1,50,51
 -20 -363 -20 -363 -3 -336.5 c 128,-1,52
 14 -310 14 -310 36.5 -280.5 c 128,-1,53
 59 -251 59 -251 81 -223.5 c 128,-1,54
 103 -196 103 -196 113 -178 c 0,55,56
 169 -84 169 -84 212 6 c 128,-1,57
 255 96 255 96 284.5 188 c 128,-1,58
 314 280 314 280 329.5 379.5 c 128,-1,59
 345 479 345 479 345 593 c 0,0,1
EndSplineSet
Validated: 1
EndChar

StartChar: asterisk
Encoding: 42 42 13
Width: 1030
Flags: W
LayerCount: 2
Fore
SplineSet
474 765 m 0,0,1
 474 784 474 784 477.5 802.5 c 128,-1,2
 481 821 481 821 485.5 839 c 128,-1,3
 490 857 490 857 494 875.5 c 128,-1,4
 498 894 498 894 498 912 c 0,5,6
 498 926 498 926 479 926 c 0,7,8
 472 926 472 926 461.5 913.5 c 128,-1,9
 451 901 451 901 439 881.5 c 128,-1,10
 427 862 427 862 414 838.5 c 128,-1,11
 401 815 401 815 390 794 c 128,-1,12
 379 773 379 773 370 757.5 c 128,-1,13
 361 742 361 742 358 737 c 0,14,15
 347 721 347 721 324 698.5 c 128,-1,16
 301 676 301 676 280 663 c 0,17,18
 266 653 266 653 255 648.5 c 128,-1,19
 244 644 244 644 230 644 c 0,20,21
 222 644 222 644 216.5 648.5 c 128,-1,22
 211 653 211 653 211 661 c 0,23,24
 211 698 211 698 232 734.5 c 128,-1,25
 253 771 253 771 283 804.5 c 128,-1,26
 313 838 313 838 346.5 867 c 128,-1,27
 380 896 380 896 405 917 c 0,28,29
 407 918 407 918 411.5 921.5 c 128,-1,30
 416 925 416 925 421.5 929 c 128,-1,31
 427 933 427 933 431 936.5 c 128,-1,32
 435 940 435 940 436 941 c 0,33,34
 438 943 438 943 440.5 948.5 c 128,-1,35
 443 954 443 954 443 957 c 0,36,37
 443 963 443 963 440 967.5 c 128,-1,38
 437 972 437 972 431 972 c 0,39,40
 415 972 415 972 395.5 963.5 c 128,-1,41
 376 955 376 955 356 950 c 0,42,43
 307 936 307 936 265 928 c 128,-1,44
 223 920 223 920 173 920 c 0,45,46
 147 920 147 920 125.5 922 c 128,-1,47
 104 924 104 924 80 936 c 1,48,49
 75 943 75 943 74 949.5 c 128,-1,50
 73 956 73 956 73 964 c 0,51,52
 73 977 73 977 85.5 987 c 128,-1,53
 98 997 98 997 117 1004.5 c 128,-1,54
 136 1012 136 1012 159 1016.5 c 128,-1,55
 182 1021 182 1021 203.5 1024 c 128,-1,56
 225 1027 225 1027 242 1028 c 128,-1,57
 259 1029 259 1029 265 1029 c 0,58,59
 305 1029 305 1029 345 1023 c 128,-1,60
 385 1017 385 1017 424 1017 c 0,61,62
 433 1017 433 1017 441.5 1022 c 128,-1,63
 450 1027 450 1027 450 1035 c 0,64,65
 450 1040 450 1040 449 1043.5 c 128,-1,66
 448 1047 448 1047 443 1048 c 0,67,68
 434 1052 434 1052 414.5 1061.5 c 128,-1,69
 395 1071 395 1071 373 1082 c 128,-1,70
 351 1093 351 1093 331.5 1103 c 128,-1,71
 312 1113 312 1113 304 1118 c 0,72,73
 302 1119 302 1119 289 1129 c 128,-1,74
 276 1139 276 1139 259.5 1152 c 128,-1,75
 243 1165 243 1165 226.5 1178 c 128,-1,76
 210 1191 210 1191 201 1199 c 0,77,78
 181 1213 181 1213 165 1232.5 c 128,-1,79
 149 1252 149 1252 149 1277 c 0,80,81
 149 1291 149 1291 158.5 1298.5 c 128,-1,82
 168 1306 168 1306 182 1306 c 0,83,84
 194 1306 194 1306 218.5 1294 c 128,-1,85
 243 1282 243 1282 271 1265.5 c 128,-1,86
 299 1249 299 1249 323.5 1232 c 128,-1,87
 348 1215 348 1215 360 1204 c 0,88,89
 368 1196 368 1196 384.5 1175.5 c 128,-1,90
 401 1155 401 1155 419 1134 c 128,-1,91
 437 1113 437 1113 453.5 1096.5 c 128,-1,92
 470 1080 470 1080 477 1080 c 0,93,94
 488 1080 488 1080 490.5 1088 c 128,-1,95
 493 1096 493 1096 493 1104 c 0,96,97
 493 1124 493 1124 488 1144.5 c 128,-1,98
 483 1165 483 1165 476.5 1185.5 c 128,-1,99
 470 1206 470 1206 465 1226.5 c 128,-1,100
 460 1247 460 1247 460 1268 c 0,101,102
 460 1306 460 1306 466.5 1347 c 128,-1,103
 473 1388 473 1388 481 1426 c 0,104,105
 486 1437 486 1437 492.5 1442.5 c 128,-1,106
 499 1448 499 1448 510 1448 c 0,107,108
 524 1448 524 1448 532.5 1440.5 c 128,-1,109
 541 1433 541 1433 545.5 1422 c 128,-1,110
 550 1411 550 1411 552 1398 c 128,-1,111
 554 1385 554 1385 555 1374 c 0,112,113
 556 1365 556 1365 558.5 1347.5 c 128,-1,114
 561 1330 561 1330 562.5 1312.5 c 128,-1,115
 564 1295 564 1295 565.5 1280 c 128,-1,116
 567 1265 567 1265 567 1261 c 0,117,118
 567 1240 567 1240 563 1219 c 128,-1,119
 559 1198 559 1198 554.5 1177 c 128,-1,120
 550 1156 550 1156 546.5 1135 c 128,-1,121
 543 1114 543 1114 543 1093 c 0,122,123
 543 1090 543 1090 544.5 1084.5 c 128,-1,124
 546 1079 546 1079 548.5 1073.5 c 128,-1,125
 551 1068 551 1068 554.5 1064 c 128,-1,126
 558 1060 558 1060 562 1060 c 256,127,128
 566 1060 566 1060 579.5 1079.5 c 128,-1,129
 593 1099 593 1099 613 1128.5 c 128,-1,130
 633 1158 633 1158 658.5 1192.5 c 128,-1,131
 684 1227 684 1227 712.5 1256.5 c 128,-1,132
 741 1286 741 1286 771 1305.5 c 128,-1,133
 801 1325 801 1325 830 1325 c 0,134,135
 837 1325 837 1325 843 1322.5 c 128,-1,136
 849 1320 849 1320 849 1311 c 256,137,138
 849 1302 849 1302 847 1292 c 128,-1,139
 845 1282 845 1282 843 1273 c 0,140,141
 799 1203 799 1203 747 1155 c 128,-1,142
 695 1107 695 1107 625 1067 c 0,143,144
 609 1058 609 1058 605.5 1053.5 c 128,-1,145
 602 1049 602 1049 602 1041 c 0,146,147
 602 1032 602 1032 604.5 1024 c 128,-1,148
 607 1016 607 1016 616 1016 c 0,149,150
 639 1016 639 1016 658.5 1027 c 128,-1,151
 678 1038 678 1038 699 1043 c 256,152,153
 720 1048 720 1048 748.5 1052.5 c 128,-1,154
 777 1057 777 1057 799 1057 c 2,155,-1
 849 1057 l 2,156,157
 853 1057 853 1057 863.5 1056.5 c 128,-1,158
 874 1056 874 1056 886 1055.5 c 128,-1,159
 898 1055 898 1055 908.5 1054.5 c 128,-1,160
 919 1054 919 1054 924 1054 c 0,161,162
 940 1049 940 1049 947.5 1044.5 c 128,-1,163
 955 1040 955 1040 955 1024 c 0,164,165
 955 1004 955 1004 933 991.5 c 128,-1,166
 911 979 911 979 882 972 c 128,-1,167
 853 965 853 965 824 962.5 c 128,-1,168
 795 960 795 960 782 960 c 0,169,170
 753 960 753 960 724 964.5 c 128,-1,171
 695 969 695 969 675 974 c 0,172,173
 658 978 658 978 646.5 980.5 c 128,-1,174
 635 983 635 983 618 983 c 0,175,176
 608 983 608 983 597 976 c 128,-1,177
 586 969 586 969 586 955 c 0,178,179
 586 952 586 952 606.5 940.5 c 128,-1,180
 627 929 627 929 653 915.5 c 128,-1,181
 679 902 679 902 703.5 888.5 c 128,-1,182
 728 875 728 875 737 868 c 0,183,184
 747 862 747 862 762 848 c 128,-1,185
 777 834 777 834 792 818 c 128,-1,186
 807 802 807 802 819.5 788 c 128,-1,187
 832 774 832 774 837 768 c 0,188,189
 849 755 849 755 858.5 736.5 c 128,-1,190
 868 718 868 718 868 701 c 0,191,192
 868 694 868 694 867 687 c 128,-1,193
 866 680 866 680 858 680 c 0,194,195
 838 680 838 680 810 691 c 128,-1,196
 782 702 782 702 754 719 c 128,-1,197
 726 736 726 736 701 756 c 128,-1,198
 676 776 676 776 661 794 c 0,199,200
 648 809 648 809 637 826 c 128,-1,201
 626 843 626 843 614.5 860.5 c 128,-1,202
 603 878 603 878 590.5 894 c 128,-1,203
 578 910 578 910 562 922 c 0,204,205
 560 924 560 924 559 924 c 128,-1,206
 558 924 558 924 557 925 c 0,207,208
 556 925 556 925 555 926 c 0,209,210
 549 926 549 926 542 923 c 128,-1,211
 535 920 535 920 535 912 c 2,212,-1
 535 909 l 2,213,214
 535 908 535 908 536 907 c 0,215,216
 552 851 552 851 566 804.5 c 128,-1,217
 580 758 580 758 580 702 c 0,218,219
 580 684 580 684 579.5 659.5 c 128,-1,220
 579 635 579 635 574.5 611 c 128,-1,221
 570 587 570 587 560 566.5 c 128,-1,222
 550 546 550 546 531 536 c 1,223,224
 520 539 520 539 511.5 544.5 c 128,-1,225
 503 550 503 550 498 567 c 0,226,227
 490 617 490 617 482 665.5 c 128,-1,228
 474 714 474 714 474 765 c 0,0,1
EndSplineSet
Validated: 1
EndChar

StartChar: plus
Encoding: 43 43 14
Width: 818
Flags: W
LayerCount: 2
Fore
SplineSet
378 458 m 0,0,1
 378 472 378 472 362 472 c 0,2,3
 301 464 301 464 238.5 466.5 c 128,-1,4
 176 469 176 469 113 472 c 0,5,6
 104 472 104 472 97.5 479 c 128,-1,7
 91 486 91 486 91 502 c 0,8,9
 91 529 91 529 108 529 c 0,10,11
 172 529 172 529 236 531 c 128,-1,12
 300 533 300 533 364 529 c 0,13,14
 378 529 378 529 378 543 c 0,15,16
 380 683 380 683 378 820 c 0,17,18
 378 839 378 839 407 839 c 0,19,20
 435 839 435 839 435 820 c 0,21,22
 435 751 435 751 431.5 682 c 128,-1,23
 428 613 428 613 435 541 c 0,24,25
 435 529 435 529 444 529 c 0,26,27
 510 533 510 533 574.5 533.5 c 128,-1,28
 639 534 639 534 705 529 c 0,29,30
 716 529 716 529 722.5 524 c 128,-1,31
 729 519 729 519 729 503 c 0,32,33
 729 494 729 494 720 483 c 128,-1,34
 711 472 711 472 705 472 c 0,35,36
 640 472 640 472 576 476.5 c 128,-1,37
 512 481 512 481 449 472 c 0,38,39
 440 472 440 472 437.5 470.5 c 128,-1,40
 435 469 435 469 435 460 c 0,41,42
 432 375 432 375 432.5 307.5 c 128,-1,43
 433 240 433 240 435 173 c 0,44,45
 435 154 435 154 407 154 c 0,46,47
 378 154 378 154 378 173 c 0,48,49
 378 246 378 246 380.5 318.5 c 128,-1,50
 383 391 383 391 378 458 c 0,0,1
EndSplineSet
Validated: 33
EndChar

StartChar: comma
Encoding: 44 44 15
Width: 424
Flags: W
LayerCount: 2
Fore
SplineSet
38 -201 m 1,0,1
 40 -199 40 -199 42 -195.5 c 128,-1,2
 44 -192 44 -192 50 -185 c 0,3,4
 67 -176 67 -176 79 -169.5 c 128,-1,5
 91 -163 91 -163 100 -159 c 0,6,7
 102 -157 102 -157 104 -156 c 0,8,9
 122 -146 122 -146 148 -130 c 128,-1,10
 174 -114 174 -114 198 -94.5 c 128,-1,11
 222 -75 222 -75 239 -53.5 c 128,-1,12
 256 -32 256 -32 256 -9 c 0,13,14
 256 -6 256 -6 255 -1.5 c 128,-1,15
 254 3 254 3 249 3 c 0,16,17
 240 2 240 2 231 1 c 128,-1,18
 222 0 222 0 213 0 c 0,19,20
 201 0 201 0 190.5 1 c 128,-1,21
 180 2 180 2 170 3 c 0,22,23
 165 4 165 4 156.5 8 c 128,-1,24
 148 12 148 12 139.5 18 c 128,-1,25
 131 24 131 24 123 30.5 c 128,-1,26
 115 37 115 37 111 42 c 0,27,28
 88 66 88 66 88 104 c 0,29,30
 88 151 88 151 117 180 c 128,-1,31
 146 209 146 209 194 209 c 0,32,33
 228 209 228 209 256 194.5 c 128,-1,34
 284 180 284 180 303.5 156.5 c 128,-1,35
 323 133 323 133 333.5 102 c 128,-1,36
 344 71 344 71 344 38 c 0,37,38
 344 -22 344 -22 319.5 -69 c 128,-1,39
 295 -116 295 -116 249 -147 c 0,40,41
 233 -158 233 -158 215.5 -169.5 c 128,-1,42
 198 -181 198 -181 175 -190 c 0,43,44
 146 -202 146 -202 122 -208.5 c 128,-1,45
 98 -215 98 -215 74 -215 c 0,46,47
 66 -215 66 -215 59 -213.5 c 128,-1,48
 52 -212 52 -212 38 -201 c 1,0,1
EndSplineSet
Validated: 1
EndChar

StartChar: hyphen
Encoding: 45 45 16
AltUni2: 0000ad.ffffffff.0
Width: 531
Flags: W
LayerCount: 2
Fore
SplineSet
146 469 m 0,0,1
 137 469 137 469 130 475.5 c 128,-1,2
 123 482 123 482 123 498 c 256,3,4
 123 514 123 514 127.5 520 c 128,-1,5
 132 526 132 526 141 526 c 0,6,7
 240 526 240 526 339 523 c 128,-1,8
 438 520 438 520 538 520 c 0,9,10
 589 520 589 520 638 522 c 128,-1,11
 687 524 687 524 738 526 c 0,12,13
 748 526 748 526 755 521 c 128,-1,14
 762 516 762 516 762 500 c 0,15,16
 762 491 762 491 753 480 c 128,-1,17
 744 469 744 469 738 469 c 0,18,19
 639 469 639 469 541 470 c 128,-1,20
 443 471 443 471 343 471 c 0,21,22
 293 471 293 471 244.5 471 c 128,-1,23
 196 471 196 471 146 469 c 0,0,1
EndSplineSet
Validated: 1
EndChar

StartChar: period
Encoding: 46 46 17
Width: 394
Flags: W
LayerCount: 2
Fore
SplineSet
85 119 m 0,0,1
 85 135 85 135 93 147 c 128,-1,2
 101 159 101 159 110 175 c 0,3,4
 125 202 125 202 145 211.5 c 128,-1,5
 165 221 165 221 197 221 c 0,6,7
 223 221 223 221 243.5 211 c 128,-1,8
 264 201 264 201 278.5 184 c 128,-1,9
 293 167 293 167 301 144.5 c 128,-1,10
 309 122 309 122 309 97 c 0,11,12
 309 79 309 79 300.5 59.5 c 128,-1,13
 292 40 292 40 277.5 24 c 128,-1,14
 263 8 263 8 244.5 -2 c 128,-1,15
 226 -12 226 -12 206 -12 c 0,16,17
 182 -12 182 -12 160 -0.5 c 128,-1,18
 138 11 138 11 121.5 30 c 128,-1,19
 105 49 105 49 95 72.5 c 128,-1,20
 85 96 85 96 85 119 c 0,0,1
EndSplineSet
Validated: 1
EndChar

StartChar: slash
Encoding: 47 47 18
Width: 499
Flags: W
LayerCount: 2
Fore
SplineSet
-28 -159 m 0,0,1
 -13 -115 -13 -115 20.5 -26 c 128,-1,2
 54 63 54 63 98.5 180 c 128,-1,3
 143 297 143 297 195 432.5 c 128,-1,4
 247 568 247 568 299.5 705 c 128,-1,5
 352 842 352 842 401.5 971.5 c 128,-1,6
 451 1101 451 1101 490.5 1205 c 128,-1,7
 530 1309 530 1309 556 1379 c 128,-1,8
 582 1449 582 1449 588 1467 c 0,9,10
 592 1476 592 1476 597.5 1489 c 128,-1,11
 603 1502 603 1502 614 1502 c 0,12,13
 618 1502 618 1502 626 1498.5 c 128,-1,14
 634 1495 634 1495 640 1493 c 0,15,16
 642 1491 642 1491 644.5 1486.5 c 128,-1,17
 647 1482 647 1482 647 1474 c 0,18,19
 647 1467 647 1467 644 1458 c 0,20,21
 560 1255 560 1255 484 1051 c 128,-1,22
 408 847 408 847 334 642 c 128,-1,23
 260 437 260 437 184 232 c 128,-1,24
 108 27 108 27 24 -178 c 0,25,26
 17 -185 17 -185 9 -185 c 0,27,28
 3 -185 3 -185 -4.5 -183 c 128,-1,29
 -12 -181 -12 -181 -18 -178 c 128,-1,30
 -24 -175 -24 -175 -27 -170 c 128,-1,31
 -30 -165 -30 -165 -28 -159 c 0,0,1
EndSplineSet
Validated: 1
EndChar

StartChar: zero
Encoding: 48 48 19
Width: 1130
Flags: W
LayerCount: 2
Fore
SplineSet
564 868 m 0,0,1
 502 868 502 868 453 853.5 c 128,-1,2
 404 839 404 839 365 815.5 c 128,-1,3
 326 792 326 792 296.5 761.5 c 128,-1,4
 267 731 267 731 244 699 c 0,5,6
 233 686 233 686 223 663 c 128,-1,7
 213 640 213 640 205.5 614.5 c 128,-1,8
 198 589 198 589 193.5 564.5 c 128,-1,9
 189 540 189 540 189 522 c 0,10,11
 189 448 189 448 205 385 c 128,-1,12
 221 322 221 322 270 265 c 0,13,14
 305 225 305 225 339.5 199 c 128,-1,15
 374 173 374 173 411 158 c 128,-1,16
 448 143 448 143 490.5 137 c 128,-1,17
 533 131 533 131 584 131 c 0,18,19
 618 131 618 131 654 139 c 128,-1,20
 690 147 690 147 724.5 162 c 128,-1,21
 759 177 759 177 790.5 197.5 c 128,-1,22
 822 218 822 218 846 244 c 0,23,24
 870 267 870 267 887.5 299.5 c 128,-1,25
 905 332 905 332 916.5 367.5 c 128,-1,26
 928 403 928 403 934 439.5 c 128,-1,27
 940 476 940 476 940 507 c 0,28,29
 940 548 940 548 930.5 589 c 128,-1,30
 921 630 921 630 900 669.5 c 128,-1,31
 879 709 879 709 845.5 746.5 c 128,-1,32
 812 784 812 784 763 818 c 0,33,34
 736 837 736 837 690.5 852.5 c 128,-1,35
 645 868 645 868 564 868 c 0,0,1
552 953 m 0,36,37
 651 953 651 953 736.5 914.5 c 128,-1,38
 822 876 822 876 885 811 c 128,-1,39
 948 746 948 746 984.5 658.5 c 128,-1,40
 1021 571 1021 571 1021 474 c 0,41,42
 1021 402 1021 402 998.5 340 c 128,-1,43
 976 278 976 278 938.5 227 c 128,-1,44
 901 176 901 176 853 138 c 128,-1,45
 805 100 805 100 753 76 c 0,46,47
 715 59 715 59 673.5 47.5 c 128,-1,48
 632 36 632 36 589 36 c 0,49,50
 532 36 532 36 484.5 46 c 128,-1,51
 437 56 437 56 398.5 72 c 128,-1,52
 360 88 360 88 329.5 106.5 c 128,-1,53
 299 125 299 125 277 142 c 0,54,55
 231 178 231 178 199 221.5 c 128,-1,56
 167 265 167 265 147 310.5 c 128,-1,57
 127 356 127 356 118 401 c 128,-1,58
 109 446 109 446 109 486 c 0,59,60
 109 529 109 529 117 572.5 c 128,-1,61
 125 616 125 616 140.5 657.5 c 128,-1,62
 156 699 156 699 179 736.5 c 128,-1,63
 202 774 202 774 232 804 c 0,64,65
 264 835 264 835 301 862 c 128,-1,66
 338 889 338 889 378.5 909.5 c 128,-1,67
 419 930 419 930 463 941.5 c 128,-1,68
 507 953 507 953 552 953 c 0,36,37
EndSplineSet
Validated: 1
EndChar

StartChar: one
Encoding: 49 49 20
Width: 731
Flags: W
LayerCount: 2
Fore
SplineSet
130 22 m 0,0,1
 130 33 130 33 136 39.5 c 128,-1,2
 142 46 142 46 150.5 49.5 c 128,-1,3
 159 53 159 53 168.5 54 c 128,-1,4
 178 55 178 55 185 55 c 2,5,-1
 244 55 l 2,6,7
 252 55 252 55 263 60.5 c 128,-1,8
 274 66 274 66 274 74 c 2,9,-1
 274 635 l 2,10,11
 276 677 276 677 277.5 706 c 128,-1,12
 279 735 279 735 279.5 763.5 c 128,-1,13
 280 792 280 792 280 825.5 c 128,-1,14
 280 859 280 859 280 908 c 0,15,16
 280 917 280 917 274.5 926 c 128,-1,17
 269 935 269 935 265 938 c 0,18,19
 257 940 257 940 251.5 941.5 c 128,-1,20
 246 943 246 943 239 943 c 0,21,22
 225 943 225 943 211.5 939.5 c 128,-1,23
 198 936 198 936 180 936 c 0,24,25
 172 936 172 936 162 937 c 128,-1,26
 152 938 152 938 144 941 c 128,-1,27
 136 944 136 944 130.5 950 c 128,-1,28
 125 956 125 956 125 967 c 0,29,30
 125 974 125 974 127.5 981.5 c 128,-1,31
 130 989 130 989 137 991 c 0,32,33
 139 994 139 994 145 995 c 128,-1,34
 151 996 151 996 156 996 c 0,35,36
 202 996 202 996 230.5 995 c 128,-1,37
 259 994 259 994 281 993.5 c 128,-1,38
 303 993 303 993 324.5 992 c 128,-1,39
 346 991 346 991 379 991 c 0,40,41
 391 991 391 991 415.5 992 c 128,-1,42
 440 993 440 993 465.5 994.5 c 128,-1,43
 491 996 491 996 512.5 997 c 128,-1,44
 534 998 534 998 540 998 c 0,45,46
 550 998 550 998 561.5 997 c 128,-1,47
 573 996 573 996 583 993 c 128,-1,48
 593 990 593 990 600 983 c 128,-1,49
 607 976 607 976 607 964 c 0,50,51
 607 953 607 953 598.5 944.5 c 128,-1,52
 590 936 590 936 576 936 c 256,53,54
 562 936 562 936 549.5 937.5 c 128,-1,55
 537 939 537 939 519 939 c 0,56,57
 511 939 511 939 504.5 938.5 c 128,-1,58
 498 938 498 938 490 936 c 0,59,60
 470 929 470 929 467 921 c 128,-1,61
 464 913 464 913 462 894 c 0,62,63
 457 836 457 836 456 775.5 c 128,-1,64
 455 715 455 715 455 656 c 2,65,-1
 455 375 l 2,66,67
 455 339 455 339 454 313.5 c 128,-1,68
 453 288 453 288 452.5 261 c 128,-1,69
 452 234 452 234 451 199 c 128,-1,70
 450 164 450 164 450 109 c 256,71,72
 450 54 450 54 472 54 c 2,73,-1
 581 54 l 2,74,75
 592 54 592 54 597 44 c 128,-1,76
 602 34 602 34 602 28 c 0,77,78
 602 14 602 14 597 8.5 c 128,-1,79
 592 3 592 3 576 -5 c 1,80,-1
 521 -5 l 2,81,82
 512 -5 512 -5 493.5 -4 c 128,-1,83
 475 -3 475 -3 452.5 -2.5 c 128,-1,84
 430 -2 430 -2 405 -1 c 128,-1,85
 380 0 380 0 358 0 c 0,86,87
 302 0 302 0 249.5 -2.5 c 128,-1,88
 197 -5 197 -5 168 -5 c 0,89,90
 154 -5 154 -5 142 -0.5 c 128,-1,91
 130 4 130 4 130 22 c 0,0,1
EndSplineSet
Validated: 1
EndChar

StartChar: two
Encoding: 50 50 21
Width: 1053
Flags: W
LayerCount: 2
Fore
SplineSet
546 960 m 0,0,1
 588 960 588 960 627 955 c 128,-1,2
 666 950 666 950 701 935.5 c 128,-1,3
 736 921 736 921 766 894.5 c 128,-1,4
 796 868 796 868 819 825 c 0,5,6
 841 785 841 785 855 747 c 128,-1,7
 869 709 869 709 869 661 c 0,8,9
 869 624 869 624 860 588.5 c 128,-1,10
 851 553 851 553 836.5 520 c 128,-1,11
 822 487 822 487 803 457 c 128,-1,12
 784 427 784 427 765 401 c 0,13,14
 759 393 759 393 743 379.5 c 128,-1,15
 727 366 727 366 705.5 350.5 c 128,-1,16
 684 335 684 335 660.5 318.5 c 128,-1,17
 637 302 637 302 616 287.5 c 128,-1,18
 595 273 595 273 579.5 263 c 128,-1,19
 564 253 564 253 559 251 c 0,20,21
 548 244 548 244 532 237 c 128,-1,22
 516 230 516 230 501 222 c 128,-1,23
 486 214 486 214 475 204 c 128,-1,24
 464 194 464 194 464 182 c 1,25,-1
 745 182 l 2,26,27
 757 182 757 182 771.5 184.5 c 128,-1,28
 786 187 786 187 801 191.5 c 128,-1,29
 816 196 816 196 829 202.5 c 128,-1,30
 842 209 842 209 850 216 c 0,31,32
 881 242 881 242 908.5 271 c 128,-1,33
 936 300 936 300 959 311 c 0,34,35
 964 316 964 316 970.5 317 c 128,-1,36
 977 318 977 318 982 318 c 0,37,38
 983 318 983 318 983 314 c 128,-1,39
 983 310 983 310 983 308 c 0,40,41
 983 297 983 297 974 282.5 c 128,-1,42
 965 268 965 268 954 251 c 0,43,44
 938 230 938 230 919 207.5 c 128,-1,45
 900 185 900 185 883 164 c 0,46,47
 875 153 875 153 864 137.5 c 128,-1,48
 853 122 853 122 842.5 105.5 c 128,-1,49
 832 89 832 89 823 74.5 c 128,-1,50
 814 60 814 60 810 52 c 0,51,52
 804 41 804 41 800 30 c 128,-1,53
 796 19 796 19 783 14 c 0,54,55
 780 11 780 11 763 10 c 128,-1,56
 746 9 746 9 727 9 c 0,57,58
 664 9 664 9 584 8 c 128,-1,59
 504 7 504 7 425 5 c 0,60,61
 370 4 370 4 317.5 2 c 128,-1,62
 265 0 265 0 222 -1.5 c 128,-1,63
 179 -3 179 -3 150 -4 c 128,-1,64
 121 -5 121 -5 113 -5 c 2,65,-1
 79 -5 l 2,66,67
 70 -5 70 -5 70 5 c 0,68,69
 70 7 70 7 71.5 12 c 128,-1,70
 73 17 73 17 77 22 c 0,71,72
 79 27 79 27 86 34 c 128,-1,73
 93 41 93 41 101 45 c 0,74,75
 148 70 148 70 194.5 94.5 c 128,-1,76
 241 119 241 119 288 142 c 0,77,78
 360 178 360 178 422.5 215 c 128,-1,79
 485 252 485 252 549 299 c 0,80,81
 595 331 595 331 633.5 361.5 c 128,-1,82
 672 392 672 392 699.5 424 c 128,-1,83
 727 456 727 456 742 491 c 128,-1,84
 757 526 757 526 757 567 c 0,85,86
 757 580 757 580 753.5 595.5 c 128,-1,87
 750 611 750 611 744.5 626 c 128,-1,88
 739 641 739 641 733 654.5 c 128,-1,89
 727 668 727 668 722 676 c 0,90,91
 678 741 678 741 625 771 c 128,-1,92
 572 801 572 801 492 801 c 0,93,94
 415 801 415 801 356.5 770.5 c 128,-1,95
 298 740 298 740 253 692 c 0,96,97
 222 658 222 658 202.5 628 c 128,-1,98
 183 598 183 598 169 559 c 0,99,100
 167 554 167 554 164.5 541.5 c 128,-1,101
 162 529 162 529 158.5 516 c 128,-1,102
 155 503 155 503 151 493.5 c 128,-1,103
 147 484 147 484 141 484 c 0,104,105
 138 484 138 484 135.5 488.5 c 128,-1,106
 133 493 133 493 130.5 498.5 c 128,-1,107
 128 504 128 504 126.5 509 c 128,-1,108
 125 514 125 514 125 516 c 0,109,110
 125 519 125 519 124 525.5 c 128,-1,111
 123 532 123 532 122 539 c 128,-1,112
 121 546 121 546 120.5 551.5 c 128,-1,113
 120 557 120 557 120 559 c 0,114,115
 120 560 120 560 120.5 565 c 128,-1,116
 121 570 121 570 122 576 c 128,-1,117
 123 582 123 582 124 588 c 128,-1,118
 125 594 125 594 125 597 c 0,119,120
 150 692 150 692 200 770.5 c 128,-1,121
 250 849 250 849 336 901 c 0,122,123
 357 913 357 913 383.5 923.5 c 128,-1,124
 410 934 410 934 438.5 942 c 128,-1,125
 467 950 467 950 494.5 955 c 128,-1,126
 522 960 522 960 546 960 c 0,0,1
EndSplineSet
Validated: 1
EndChar

StartChar: three
Encoding: 51 51 22
Width: 840
Flags: W
LayerCount: 2
Fore
SplineSet
447 984 m 0,0,1
 511 984 511 984 572.5 960.5 c 128,-1,2
 634 937 634 937 672 881 c 0,3,4
 695 847 695 847 702.5 807 c 128,-1,5
 710 767 710 767 710 725 c 0,6,7
 710 687 710 687 699 651 c 128,-1,8
 688 615 688 615 669.5 582 c 128,-1,9
 651 549 651 549 627.5 519.5 c 128,-1,10
 604 490 604 490 579 465 c 0,11,12
 567 452 567 452 543 433.5 c 128,-1,13
 519 415 519 415 495 396.5 c 128,-1,14
 471 378 471 378 453 363 c 128,-1,15
 435 348 435 348 435 343 c 256,16,17
 435 338 435 338 441 334.5 c 128,-1,18
 447 331 447 331 455 328 c 128,-1,19
 463 325 463 325 470.5 323 c 128,-1,20
 478 321 478 321 482 318 c 0,21,22
 515 295 515 295 542.5 270 c 128,-1,23
 570 245 570 245 593 217 c 128,-1,24
 616 189 616 189 635.5 157 c 128,-1,25
 655 125 655 125 672 86 c 0,26,27
 678 74 678 74 682.5 57 c 128,-1,28
 687 40 687 40 689.5 21.5 c 128,-1,29
 692 3 692 3 693.5 -14.5 c 128,-1,30
 695 -32 695 -32 695 -45 c 0,31,32
 695 -75 695 -75 688.5 -106.5 c 128,-1,33
 682 -138 682 -138 672 -167 c 128,-1,34
 662 -196 662 -196 648.5 -220 c 128,-1,35
 635 -244 635 -244 622 -260 c 0,36,37
 593 -293 593 -293 556.5 -323.5 c 128,-1,38
 520 -354 520 -354 480 -377 c 128,-1,39
 440 -400 440 -400 398 -413.5 c 128,-1,40
 356 -427 356 -427 316 -427 c 0,41,42
 304 -427 304 -427 290.5 -424 c 128,-1,43
 277 -421 277 -421 269 -417 c 0,44,45
 262 -411 262 -411 262 -407 c 0,46,47
 262 -405 262 -405 265.5 -401.5 c 128,-1,48
 269 -398 269 -398 276 -396 c 0,49,50
 297 -391 297 -391 321 -382 c 128,-1,51
 345 -373 345 -373 366.5 -363 c 128,-1,52
 388 -353 388 -353 405 -343 c 128,-1,53
 422 -333 422 -333 430 -325 c 0,54,55
 454 -303 454 -303 475.5 -279 c 128,-1,56
 497 -255 497 -255 513 -228 c 128,-1,57
 529 -201 529 -201 538.5 -169.5 c 128,-1,58
 548 -138 548 -138 548 -100 c 0,59,60
 548 -57 548 -57 534 -15 c 128,-1,61
 520 27 520 27 494 63.5 c 128,-1,62
 468 100 468 100 431 130.5 c 128,-1,63
 394 161 394 161 349 182 c 0,64,65
 330 190 330 190 314.5 194.5 c 128,-1,66
 299 199 299 199 284 202 c 128,-1,67
 269 205 269 205 252 207.5 c 128,-1,68
 235 210 235 210 214 216 c 0,69,70
 198 222 198 222 198 232 c 0,71,72
 198 234 198 234 200.5 238 c 128,-1,73
 203 242 203 242 207 244 c 256,74,75
 211 246 211 246 221 249 c 128,-1,76
 231 252 231 252 242 255 c 128,-1,77
 253 258 253 258 262.5 261 c 128,-1,78
 272 264 272 264 276 266 c 0,79,80
 308 282 308 282 344.5 306 c 128,-1,81
 381 330 381 330 416.5 359.5 c 128,-1,82
 452 389 452 389 485 423.5 c 128,-1,83
 518 458 518 458 543 494 c 128,-1,84
 568 530 568 530 583 567.5 c 128,-1,85
 598 605 598 605 598 640 c 0,86,87
 598 729 598 729 532 779.5 c 128,-1,88
 466 830 466 830 345 830 c 0,89,90
 313 830 313 830 281.5 812.5 c 128,-1,91
 250 795 250 795 220 769 c 128,-1,92
 190 743 190 743 163 713.5 c 128,-1,93
 136 684 136 684 115 659 c 0,94,95
 113 657 113 657 108.5 652 c 128,-1,96
 104 647 104 647 101 647 c 0,97,98
 99 647 99 647 96 652 c 128,-1,99
 93 657 93 657 93 661 c 0,100,101
 93 674 93 674 103.5 705 c 128,-1,102
 114 736 114 736 133.5 773.5 c 128,-1,103
 153 811 153 811 180.5 848.5 c 128,-1,104
 208 886 208 886 243 913 c 0,105,106
 285 947 285 947 338 965.5 c 128,-1,107
 391 984 391 984 447 984 c 0,0,1
EndSplineSet
Validated: 1
EndChar

StartChar: four
Encoding: 52 52 23
Width: 1209
Flags: W
LayerCount: 2
Fore
SplineSet
648 192 m 1,0,-1
 642 687 l 2,1,2
 642 698 642 698 639.5 711.5 c 128,-1,3
 637 725 637 725 632 725 c 0,4,5
 617 725 617 725 606 711 c 0,6,7
 557 653 557 653 511 597.5 c 128,-1,8
 465 542 465 542 417.5 484 c 128,-1,9
 370 426 370 426 319.5 363.5 c 128,-1,10
 269 301 269 301 210 230 c 0,11,12
 201 219 201 219 196 213 c 128,-1,13
 191 207 191 207 191 202 c 0,14,15
 191 192 191 192 198 192 c 2,16,-1
 648 192 l 1,0,-1
656 19 m 1,17,-1
 13 19 l 2,18,19
 9 19 9 19 6.5 22 c 128,-1,20
 4 25 4 25 4 28 c 0,21,22
 4 30 4 30 7.5 36 c 128,-1,23
 11 42 11 42 16.5 49 c 128,-1,24
 22 56 22 56 27.5 63 c 128,-1,25
 33 70 33 70 37 74 c 0,26,27
 59 97 59 97 80 121.5 c 128,-1,28
 101 146 101 146 117 166 c 0,29,30
 235 319 235 319 351 459.5 c 128,-1,31
 467 600 467 600 585 744 c 0,32,33
 598 761 598 761 618.5 784 c 128,-1,34
 639 807 639 807 662.5 834 c 128,-1,35
 686 861 686 861 710 890.5 c 128,-1,36
 734 920 734 920 755 950 c 0,37,38
 762 961 762 961 774 971 c 128,-1,39
 786 981 786 981 796 981 c 0,40,41
 808 981 808 981 813.5 972.5 c 128,-1,42
 819 964 819 964 819 953 c 0,43,44
 819 937 819 937 814.5 923.5 c 128,-1,45
 810 910 810 910 810 893 c 2,46,-1
 810 185 l 1,47,48
 836 185 836 185 877 187 c 128,-1,49
 918 189 918 189 964.5 191 c 128,-1,50
 1011 193 1011 193 1058.5 195 c 128,-1,51
 1106 197 1106 197 1146 197 c 1,52,53
 1163 205 1163 205 1174 224 c 128,-1,54
 1185 243 1185 243 1195.5 263 c 128,-1,55
 1206 283 1206 283 1218.5 298 c 128,-1,56
 1231 313 1231 313 1251 313 c 1,57,58
 1251 277 1251 277 1239 245.5 c 128,-1,59
 1227 214 1227 214 1220 180 c 0,60,61
 1207 117 1207 117 1195 46.5 c 128,-1,62
 1183 -24 1183 -24 1172 -93 c 0,63,64
 1172 -96 1172 -96 1169 -98 c 128,-1,65
 1166 -100 1166 -100 1163 -100 c 0,66,67
 1156 -100 1156 -100 1152.5 -84 c 128,-1,68
 1149 -68 1149 -68 1145.5 -47.5 c 128,-1,69
 1142 -27 1142 -27 1135 -7.5 c 128,-1,70
 1128 12 1128 12 1115 19 c 0,71,72
 1097 28 1097 28 1061.5 33 c 128,-1,73
 1026 38 1026 38 985 40 c 128,-1,74
 944 42 944 42 903.5 42.5 c 128,-1,75
 863 43 863 43 834 43 c 0,76,77
 821 43 821 43 815.5 41 c 128,-1,78
 810 39 810 39 810 31 c 2,79,-1
 810 -460 l 2,80,81
 810 -471 810 -471 792.5 -477 c 128,-1,82
 775 -483 775 -483 753.5 -486 c 128,-1,83
 732 -489 732 -489 712 -489.5 c 128,-1,84
 692 -490 692 -490 686 -490 c 0,85,86
 677 -490 677 -490 666.5 -487.5 c 128,-1,87
 656 -485 656 -485 656 -471 c 2,88,-1
 656 19 l 1,17,-1
EndSplineSet
Validated: 1
EndChar

StartChar: five
Encoding: 53 53 24
Width: 885
Flags: W
LayerCount: 2
Fore
SplineSet
365 -320 m 0,0,1
 365 -306 365 -306 377 -294 c 0,2,3
 391 -280 391 -280 409.5 -263.5 c 128,-1,4
 428 -247 428 -247 439 -235 c 0,5,6
 445 -228 445 -228 453 -217.5 c 128,-1,7
 461 -207 461 -207 469 -196 c 128,-1,8
 477 -185 477 -185 484 -174.5 c 128,-1,9
 491 -164 491 -164 496 -156 c 0,10,11
 510 -132 510 -132 521.5 -101.5 c 128,-1,12
 533 -71 533 -71 541 -38.5 c 128,-1,13
 549 -6 549 -6 553 26 c 128,-1,14
 557 58 557 58 557 85 c 0,15,16
 557 116 557 116 551.5 149 c 128,-1,17
 546 182 546 182 537 214 c 128,-1,18
 528 246 528 246 516 274.5 c 128,-1,19
 504 303 504 303 491 325 c 0,20,21
 472 357 472 357 439 387.5 c 128,-1,22
 406 418 406 418 368.5 444.5 c 128,-1,23
 331 471 331 471 294 490.5 c 128,-1,24
 257 510 257 510 231 521 c 0,25,26
 211 528 211 528 190.5 534.5 c 128,-1,27
 170 541 170 541 150.5 546 c 128,-1,28
 131 551 131 551 115.5 554.5 c 128,-1,29
 100 558 100 558 91 561 c 0,30,31
 83 563 83 563 81 568.5 c 128,-1,32
 79 574 79 574 79 585 c 0,33,34
 79 587 79 587 81.5 592.5 c 128,-1,35
 84 598 84 598 86 600 c 0,36,37
 134 661 134 661 170 713.5 c 128,-1,38
 206 766 206 766 247 823 c 0,39,40
 250 828 250 828 259 841.5 c 128,-1,41
 268 855 268 855 279.5 872.5 c 128,-1,42
 291 890 291 890 304 908.5 c 128,-1,43
 317 927 317 927 328.5 943 c 128,-1,44
 340 959 340 959 349 969 c 128,-1,45
 358 979 358 979 361 979 c 0,46,47
 374 979 374 979 394 971.5 c 128,-1,48
 414 964 414 964 425 960 c 0,49,50
 446 954 446 954 479.5 944.5 c 128,-1,51
 513 935 513 935 548 927 c 128,-1,52
 583 919 583 919 615.5 913 c 128,-1,53
 648 907 648 907 666 907 c 0,54,55
 686 907 686 907 701.5 921.5 c 128,-1,56
 717 936 717 936 730.5 956 c 128,-1,57
 744 976 744 976 757 997.5 c 128,-1,58
 770 1019 770 1019 785 1033 c 0,59,60
 790 1039 790 1039 795.5 1042 c 128,-1,61
 801 1045 801 1045 813 1045 c 1,62,63
 813 1036 813 1036 811.5 1029.5 c 128,-1,64
 810 1023 810 1023 806 1014 c 0,65,66
 792 988 792 988 780.5 968 c 128,-1,67
 769 948 769 948 761 932 c 0,68,69
 752 917 752 917 741 896 c 128,-1,70
 730 875 730 875 718 852.5 c 128,-1,71
 706 830 706 830 695 807 c 128,-1,72
 684 784 684 784 676 763 c 0,73,74
 669 745 669 745 661 742 c 128,-1,75
 653 739 653 739 648 739 c 0,76,77
 625 739 625 739 605 745 c 128,-1,78
 585 751 585 751 562 756 c 0,79,80
 499 772 499 772 431 790 c 128,-1,81
 363 808 363 808 297 808 c 0,82,83
 290 808 290 808 283.5 804 c 128,-1,84
 277 800 277 800 273 796 c 2,85,-1
 223 730 l 2,86,87
 220 726 220 726 219.5 722.5 c 128,-1,88
 219 719 219 719 219 716 c 0,89,90
 219 705 219 705 228 701 c 0,91,92
 284 676 284 676 335.5 652 c 128,-1,93
 387 628 387 628 439 599 c 0,94,95
 521 549 521 549 576 483 c 128,-1,96
 631 417 631 417 667 329 c 0,97,98
 671 318 671 318 676 298 c 128,-1,99
 681 278 681 278 685.5 257.5 c 128,-1,100
 690 237 690 237 692.5 220 c 128,-1,101
 695 203 695 203 695 197 c 0,102,103
 695 129 695 129 685 71 c 128,-1,104
 675 13 675 13 651.5 -41 c 128,-1,105
 628 -95 628 -95 589.5 -147 c 128,-1,106
 551 -199 551 -199 493 -254 c 0,107,108
 483 -263 483 -263 465.5 -276 c 128,-1,109
 448 -289 448 -289 430 -301 c 128,-1,110
 412 -313 412 -313 396.5 -321 c 128,-1,111
 381 -329 381 -329 375 -329 c 0,112,113
 365 -329 365 -329 365 -320 c 0,0,1
EndSplineSet
Validated: 1
EndChar

StartChar: six
Encoding: 54 54 25
Width: 1109
Flags: W
LayerCount: 2
Fore
SplineSet
551 837 m 0,0,1
 487 837 487 837 442.5 810.5 c 128,-1,2
 398 784 398 784 364 739 c 0,3,4
 346 713 346 713 329.5 683 c 128,-1,5
 313 653 313 653 300.5 620.5 c 128,-1,6
 288 588 288 588 280.5 554 c 128,-1,7
 273 520 273 520 273 488 c 0,8,9
 273 401 273 401 290.5 328 c 128,-1,10
 308 255 308 255 349 182 c 0,11,12
 381 122 381 122 431 82.5 c 128,-1,13
 481 43 481 43 556 43 c 0,14,15
 600 43 600 43 634.5 59.5 c 128,-1,16
 669 76 669 76 695.5 103 c 128,-1,17
 722 130 722 130 742 163.5 c 128,-1,18
 762 197 762 197 778 232 c 0,19,20
 805 287 805 287 812 338.5 c 128,-1,21
 819 390 819 390 819 450 c 0,22,23
 819 488 819 488 812.5 532 c 128,-1,24
 806 576 806 576 792 619 c 128,-1,25
 778 662 778 662 757 701.5 c 128,-1,26
 736 741 736 741 706 771 c 128,-1,27
 676 801 676 801 637.5 819 c 128,-1,28
 599 837 599 837 551 837 c 0,0,1
119 517 m 0,29,30
 119 575 119 575 129.5 634 c 128,-1,31
 140 693 140 693 160 749 c 128,-1,32
 180 805 180 805 208.5 857.5 c 128,-1,33
 237 910 237 910 273 955 c 0,34,35
 310 1002 310 1002 348 1043 c 128,-1,36
 386 1084 386 1084 428.5 1121.5 c 128,-1,37
 471 1159 471 1159 520.5 1194.5 c 128,-1,38
 570 1230 570 1230 631 1266 c 0,39,40
 651 1278 651 1278 685 1294.5 c 128,-1,41
 719 1311 719 1311 755 1326 c 128,-1,42
 791 1341 791 1341 822.5 1353 c 128,-1,43
 854 1365 854 1365 868 1370 c 0,44,45
 924 1388 924 1388 980 1401.5 c 128,-1,46
 1036 1415 1036 1415 1086 1415 c 0,47,48
 1087 1415 1087 1415 1091 1415 c 128,-1,49
 1095 1415 1095 1415 1099 1414 c 128,-1,50
 1103 1413 1103 1413 1106.5 1411 c 128,-1,51
 1110 1409 1110 1409 1110 1406 c 0,52,53
 1110 1399 1110 1399 1101 1396 c 0,54,55
 1073 1384 1073 1384 1037 1367.5 c 128,-1,56
 1001 1351 1001 1351 962.5 1331.5 c 128,-1,57
 924 1312 924 1312 885 1290.5 c 128,-1,58
 846 1269 846 1269 812 1247 c 0,59,60
 726 1193 726 1193 647 1130 c 128,-1,61
 568 1067 568 1067 496 998 c 0,62,63
 478 981 478 981 455.5 954 c 128,-1,64
 433 927 433 927 413 900 c 128,-1,65
 393 873 393 873 379.5 851.5 c 128,-1,66
 366 830 366 830 366 825 c 1,67,68
 389 825 389 825 406 836 c 128,-1,69
 423 847 423 847 440 856 c 0,70,71
 470 872 470 872 502.5 877 c 128,-1,72
 535 882 535 882 567 882 c 0,73,74
 617 882 617 882 667 865.5 c 128,-1,75
 717 849 717 849 763 820.5 c 128,-1,76
 809 792 809 792 849 755 c 128,-1,77
 889 718 889 718 918 676 c 0,78,79
 928 662 928 662 943 635 c 128,-1,80
 958 608 958 608 972 572.5 c 128,-1,81
 986 537 986 537 996 493.5 c 128,-1,82
 1006 450 1006 450 1006 403 c 0,83,84
 1006 389 1006 389 1004 371.5 c 128,-1,85
 1002 354 1002 354 998 334.5 c 128,-1,86
 994 315 994 315 988.5 295.5 c 128,-1,87
 983 276 983 276 977 259 c 0,88,89
 943 182 943 182 879 126 c 128,-1,90
 815 70 815 70 738 31 c 0,91,92
 703 14 703 14 664.5 6 c 128,-1,93
 626 -2 626 -2 596 -2 c 0,94,95
 569 -2 569 -2 536.5 5.5 c 128,-1,96
 504 13 504 13 471 26.5 c 128,-1,97
 438 40 438 40 406.5 58.5 c 128,-1,98
 375 77 375 77 349 99 c 0,99,100
 294 146 294 146 251 191.5 c 128,-1,101
 208 237 208 237 179 286.5 c 128,-1,102
 150 336 150 336 134.5 392 c 128,-1,103
 119 448 119 448 119 517 c 0,29,30
EndSplineSet
Validated: 1
EndChar

StartChar: seven
Encoding: 55 55 26
Width: 988
Flags: W
LayerCount: 2
Fore
SplineSet
450 -322 m 0,0,1
 450 -308 450 -308 454 -297.5 c 128,-1,2
 458 -287 458 -287 462 -275 c 0,3,4
 479 -226 479 -226 506 -147.5 c 128,-1,5
 533 -69 533 -69 565 24.5 c 128,-1,6
 597 118 597 118 632 221 c 128,-1,7
 667 324 667 324 700 422 c 128,-1,8
 733 520 733 520 762 607 c 128,-1,9
 791 694 791 694 812 756 c 0,10,11
 817 770 817 770 819.5 781 c 128,-1,12
 822 792 822 792 822 794 c 0,13,14
 822 806 822 806 807 808 c 128,-1,15
 792 810 792 810 744 810 c 0,16,17
 689 810 689 810 630 813.5 c 128,-1,18
 571 817 571 817 513.5 821 c 128,-1,19
 456 825 456 825 401 828.5 c 128,-1,20
 346 832 346 832 300 832 c 0,21,22
 252 832 252 832 210.5 824 c 128,-1,23
 169 816 169 816 128 796 c 0,24,25
 112 787 112 787 97.5 776 c 128,-1,26
 83 765 83 765 71 754.5 c 128,-1,27
 59 744 59 744 49.5 737 c 128,-1,28
 40 730 40 730 33 730 c 1,29,30
 33 748 33 748 38 762.5 c 128,-1,31
 43 777 43 777 51 790 c 128,-1,32
 59 803 59 803 68 815.5 c 128,-1,33
 77 828 77 828 85 843 c 0,34,35
 94 859 94 859 109 889.5 c 128,-1,36
 124 920 124 920 141 957 c 128,-1,37
 158 994 158 994 175 1035 c 128,-1,38
 192 1076 192 1076 206 1114 c 0,39,40
 210 1122 210 1122 215.5 1126.5 c 128,-1,41
 221 1131 221 1131 224 1131 c 0,42,43
 233 1131 233 1131 234.5 1116 c 128,-1,44
 236 1101 236 1101 236 1092 c 0,45,46
 236 1078 236 1078 231.5 1067 c 128,-1,47
 227 1056 227 1056 227 1045 c 0,48,49
 227 1026 227 1026 232.5 1016 c 128,-1,50
 238 1006 238 1006 248 1001.5 c 128,-1,51
 258 997 258 997 270 996 c 128,-1,52
 282 995 282 995 296 995 c 2,53,-1
 869 995 l 2,54,55
 875 995 875 995 884.5 994.5 c 128,-1,56
 894 994 894 994 904 992 c 128,-1,57
 914 990 914 990 921 985 c 128,-1,58
 928 980 928 980 928 971 c 0,59,60
 928 951 928 951 917.5 936.5 c 128,-1,61
 907 922 907 922 902 905 c 0,62,63
 866 793 866 793 832.5 692 c 128,-1,64
 799 591 799 591 766.5 494.5 c 128,-1,65
 734 398 734 398 702.5 304 c 128,-1,66
 671 210 671 210 638.5 112 c 128,-1,67
 606 14 606 14 573 -90 c 128,-1,68
 540 -194 540 -194 506 -310 c 0,69,70
 492 -353 492 -353 476 -353 c 0,71,72
 462 -353 462 -353 456 -343 c 128,-1,73
 450 -333 450 -333 450 -322 c 0,0,1
EndSplineSet
Validated: 1
EndChar

StartChar: eight
Encoding: 56 56 27
Width: 1029
Flags: W
LayerCount: 2
Fore
SplineSet
280 1178 m 0,0,1
 280 1147 280 1147 285 1112.5 c 128,-1,2
 290 1078 290 1078 301 1055 c 0,3,4
 317 1022 317 1022 351 987.5 c 128,-1,5
 385 953 385 953 426.5 920 c 128,-1,6
 468 887 468 887 510.5 858 c 128,-1,7
 553 829 553 829 586 808 c 0,8,9
 595 801 595 801 607.5 796.5 c 128,-1,10
 620 792 620 792 624 792 c 0,11,12
 630 792 630 792 641.5 800 c 128,-1,13
 653 808 653 808 665 819 c 128,-1,14
 677 830 677 830 687.5 840.5 c 128,-1,15
 698 851 698 851 702 856 c 0,16,17
 747 910 747 910 763.5 981 c 128,-1,18
 780 1052 780 1052 780 1124 c 0,19,20
 780 1221 780 1221 747 1281.5 c 128,-1,21
 714 1342 714 1342 655 1382 c 0,22,23
 642 1393 642 1393 612.5 1400.5 c 128,-1,24
 583 1408 583 1408 558 1408 c 0,25,26
 511 1408 511 1408 462 1391.5 c 128,-1,27
 413 1375 413 1375 372.5 1345 c 128,-1,28
 332 1315 332 1315 306 1272.5 c 128,-1,29
 280 1230 280 1230 280 1178 c 0,0,1
237 419 m 0,30,31
 237 364 237 364 249.5 307.5 c 128,-1,32
 262 251 262 251 289 204.5 c 128,-1,33
 316 158 316 158 359.5 128.5 c 128,-1,34
 403 99 403 99 465 99 c 0,35,36
 518 99 518 99 571.5 110.5 c 128,-1,37
 625 122 625 122 667.5 147 c 128,-1,38
 710 172 710 172 737 212.5 c 128,-1,39
 764 253 764 253 764 310 c 0,40,41
 764 362 764 362 748 408 c 128,-1,42
 732 454 732 454 704.5 494 c 128,-1,43
 677 534 677 534 641.5 568 c 128,-1,44
 606 602 606 602 567 631 c 0,45,46
 546 647 546 647 532 656.5 c 128,-1,47
 518 666 518 666 505.5 673.5 c 128,-1,48
 493 681 493 681 478 687.5 c 128,-1,49
 463 694 463 694 439 704 c 0,50,51
 429 708 429 708 427 708 c 0,52,53
 419 708 419 708 413 702 c 0,54,55
 390 685 390 685 371 668 c 128,-1,56
 352 651 352 651 335.5 632.5 c 128,-1,57
 319 614 319 614 304 593 c 128,-1,58
 289 572 289 572 275 547 c 0,59,60
 258 517 258 517 247.5 485 c 128,-1,61
 237 453 237 453 237 419 c 0,30,31
107 422 m 0,62,63
 107 472 107 472 118.5 517.5 c 128,-1,64
 130 563 130 563 153.5 601.5 c 128,-1,65
 177 640 177 640 213 668.5 c 128,-1,66
 249 697 249 697 299 714 c 0,67,68
 320 721 320 721 347 727.5 c 128,-1,69
 374 734 374 734 392 746 c 1,70,71
 377 766 377 766 352.5 783 c 128,-1,72
 328 800 328 800 308 817 c 0,73,74
 222 892 222 892 185 973 c 128,-1,75
 148 1054 148 1054 148 1150 c 0,76,77
 148 1183 148 1183 162 1219 c 128,-1,78
 176 1255 176 1255 193 1284 c 0,79,80
 222 1331 222 1331 260 1363 c 128,-1,81
 298 1395 298 1395 343 1414.5 c 128,-1,82
 388 1434 388 1434 438 1442.5 c 128,-1,83
 488 1451 488 1451 541 1451 c 0,84,85
 627 1451 627 1451 699 1429 c 128,-1,86
 771 1407 771 1407 822.5 1363 c 128,-1,87
 874 1319 874 1319 903 1253 c 128,-1,88
 932 1187 932 1187 932 1099 c 0,89,90
 932 1042 932 1042 915 986 c 128,-1,91
 898 930 898 930 865.5 884.5 c 128,-1,92
 833 839 833 839 786.5 808.5 c 128,-1,93
 740 778 740 778 681 772 c 0,94,95
 677 772 677 772 675 768.5 c 128,-1,96
 673 765 673 765 673 763 c 0,97,98
 673 759 673 759 676 756 c 0,99,100
 678 754 678 754 680 753 c 0,101,102
 710 729 710 729 741 702.5 c 128,-1,103
 772 676 772 676 800.5 645.5 c 128,-1,104
 829 615 829 615 851.5 581 c 128,-1,105
 874 547 874 547 887 509 c 0,106,107
 899 477 899 477 903.5 439.5 c 128,-1,108
 908 402 908 402 908 370 c 0,109,110
 908 276 908 276 867.5 210 c 128,-1,111
 827 144 827 144 762.5 102 c 128,-1,112
 698 60 698 60 617.5 41 c 128,-1,113
 537 22 537 22 456 22 c 0,114,115
 439 22 439 22 416 26.5 c 128,-1,116
 393 31 393 31 370 38.5 c 128,-1,117
 347 46 347 46 326 55 c 128,-1,118
 305 64 305 64 292 73 c 0,119,120
 248 100 248 100 214 137.5 c 128,-1,121
 180 175 180 175 156 220 c 128,-1,122
 132 265 132 265 119.5 316.5 c 128,-1,123
 107 368 107 368 107 422 c 0,62,63
EndSplineSet
Validated: 1
EndChar

StartChar: nine
Encoding: 57 57 28
Width: 1074
Flags: W
LayerCount: 2
Fore
SplineSet
508 1024 m 0,0,1
 491 1024 491 1024 469.5 1015 c 128,-1,2
 448 1006 448 1006 425 989.5 c 128,-1,3
 402 973 402 973 380 950.5 c 128,-1,4
 358 928 358 928 340 901 c 0,5,6
 316 867 316 867 299.5 827.5 c 128,-1,7
 283 788 283 788 272.5 749 c 128,-1,8
 262 710 262 710 257.5 674 c 128,-1,9
 253 638 253 638 253 611 c 0,10,11
 253 567 253 567 259 522.5 c 128,-1,12
 265 478 265 478 278.5 435.5 c 128,-1,13
 292 393 292 393 313.5 353.5 c 128,-1,14
 335 314 335 314 366 280 c 0,15,16
 395 245 395 245 437 225.5 c 128,-1,17
 479 206 479 206 527 206 c 256,18,19
 575 206 575 206 613.5 225 c 128,-1,20
 652 244 652 244 682.5 275.5 c 128,-1,21
 713 307 713 307 734.5 348 c 128,-1,22
 756 389 756 389 770.5 434 c 128,-1,23
 785 479 785 479 791.5 525 c 128,-1,24
 798 571 798 571 798 611 c 0,25,26
 798 656 798 656 789 699.5 c 128,-1,27
 780 743 780 743 767 785 c 0,28,29
 753 833 753 833 731.5 874.5 c 128,-1,30
 710 916 710 916 681 948 c 0,31,32
 642 994 642 994 601 1009 c 128,-1,33
 560 1024 560 1024 508 1024 c 0,0,1
722 240 m 1,34,35
 720 240 720 240 720 241 c 1,36,37
 719 241 719 241 719 242 c 1,38,39
 666 207 666 207 616 185 c 128,-1,40
 566 163 566 163 508 163 c 0,41,42
 477 163 477 163 440.5 171.5 c 128,-1,43
 404 180 404 180 367.5 195 c 128,-1,44
 331 210 331 210 297.5 229.5 c 128,-1,45
 264 249 264 249 239 270 c 0,46,47
 216 289 216 289 188.5 324.5 c 128,-1,48
 161 360 161 360 136 406 c 128,-1,49
 111 452 111 452 94.5 506 c 128,-1,50
 78 560 78 560 78 618 c 0,51,52
 78 704 78 704 114.5 785 c 128,-1,53
 151 866 151 866 212 928.5 c 128,-1,54
 273 991 273 991 352.5 1028.5 c 128,-1,55
 432 1066 432 1066 518 1066 c 0,56,57
 587 1066 587 1066 656 1040 c 128,-1,58
 725 1014 725 1014 779 967 c 0,59,60
 822 930 822 930 857 883 c 128,-1,61
 892 836 892 836 916 783 c 128,-1,62
 940 730 940 730 953 673 c 128,-1,63
 966 616 966 616 966 559 c 0,64,65
 966 475 966 475 942 390 c 128,-1,66
 918 305 918 305 876.5 222.5 c 128,-1,67
 835 140 835 140 780 63.5 c 128,-1,68
 725 -13 725 -13 663 -79.5 c 128,-1,69
 601 -146 601 -146 535.5 -199.5 c 128,-1,70
 470 -253 470 -253 409 -289 c 0,71,72
 382 -305 382 -305 358 -318 c 128,-1,73
 334 -331 334 -331 307 -344 c 0,74,75
 276 -358 276 -358 242 -372 c 128,-1,76
 208 -386 208 -386 173.5 -397 c 128,-1,77
 139 -408 139 -408 106 -415 c 128,-1,78
 73 -422 73 -422 44 -422 c 0,79,80
 35 -422 35 -422 35 -413 c 0,81,82
 35 -410 35 -410 37 -407 c 0,83,84
 37 -405 37 -405 44 -397.5 c 128,-1,85
 51 -390 51 -390 68 -379 c 0,86,87
 94 -361 94 -361 119 -347.5 c 128,-1,88
 144 -334 144 -334 169 -321.5 c 128,-1,89
 194 -309 194 -309 218 -295.5 c 128,-1,90
 242 -282 242 -282 265 -265 c 0,91,92
 340 -211 340 -211 406.5 -150.5 c 128,-1,93
 473 -90 473 -90 539 -24 c 0,94,95
 556 -7 556 -7 587 27 c 128,-1,96
 618 61 618 61 648 99.5 c 128,-1,97
 678 138 678 138 700 176 c 128,-1,98
 722 214 722 214 722 240 c 1,34,35
EndSplineSet
Validated: 1
EndChar

StartChar: colon
Encoding: 58 58 29
Width: 496
Flags: W
LayerCount: 2
Fore
SplineSet
138 803 m 0,0,1
 136 825 136 825 143.5 846.5 c 128,-1,2
 151 868 151 868 165 885 c 128,-1,3
 179 902 179 902 199 912 c 128,-1,4
 219 922 219 922 243 922 c 0,5,6
 288 922 288 922 323 893 c 128,-1,7
 358 864 358 864 363 817 c 0,8,9
 366 790 366 790 356.5 769 c 128,-1,10
 347 748 347 748 330 733 c 128,-1,11
 313 718 313 718 291 710 c 128,-1,12
 269 702 269 702 247 702 c 0,13,14
 228 702 228 702 209.5 710 c 128,-1,15
 191 718 191 718 175.5 732 c 128,-1,16
 160 746 160 746 150 764.5 c 128,-1,17
 140 783 140 783 138 803 c 0,0,1
133 97 m 0,18,19
 133 151 133 151 164 183.5 c 128,-1,20
 195 216 195 216 247 216 c 0,21,22
 294 216 294 216 325.5 184.5 c 128,-1,23
 357 153 357 153 357 106 c 0,24,25
 357 86 357 86 348.5 67 c 128,-1,26
 340 48 340 48 326 32.5 c 128,-1,27
 312 17 312 17 293.5 7.5 c 128,-1,28
 275 -2 275 -2 254 -2 c 256,29,30
 233 -2 233 -2 211 4 c 128,-1,31
 189 10 189 10 172 22.5 c 128,-1,32
 155 35 155 35 144 53.5 c 128,-1,33
 133 72 133 72 133 97 c 0,18,19
EndSplineSet
Validated: 1
EndChar

StartChar: semicolon
Encoding: 59 59 30
AltUni2: 00037e.ffffffff.0
Width: 522
Flags: W
LayerCount: 2
Fore
SplineSet
154 773 m 0,0,1
 154 798 154 798 166 817 c 128,-1,2
 178 836 178 836 196.5 849.5 c 128,-1,3
 215 863 215 863 238 870 c 128,-1,4
 261 877 261 877 284 877 c 0,5,6
 305 877 305 877 325 867 c 128,-1,7
 345 857 345 857 360 840.5 c 128,-1,8
 375 824 375 824 384 804 c 128,-1,9
 393 784 393 784 393 763 c 0,10,11
 393 740 393 740 386.5 718.5 c 128,-1,12
 380 697 380 697 367 680.5 c 128,-1,13
 354 664 354 664 333.5 653.5 c 128,-1,14
 313 643 313 643 286 642 c 0,15,16
 257 639 257 639 232.5 648.5 c 128,-1,17
 208 658 208 658 190.5 676 c 128,-1,18
 173 694 173 694 163.5 719 c 128,-1,19
 154 744 154 744 154 773 c 0,0,1
51 -192 m 0,20,21
 51 -183 51 -183 56 -178 c 0,22,23
 62 -172 62 -172 74 -164.5 c 128,-1,24
 86 -157 86 -157 99.5 -149 c 128,-1,25
 113 -141 113 -141 126 -134 c 128,-1,26
 139 -127 139 -127 148 -123 c 0,27,28
 167 -114 167 -114 190 -101 c 128,-1,29
 213 -88 213 -88 233 -71.5 c 128,-1,30
 253 -55 253 -55 267 -35.5 c 128,-1,31
 281 -16 281 -16 281 5 c 2,32,-1
 281 14 l 1,33,34
 277 13 277 13 269 11 c 128,-1,35
 261 9 261 9 253 6.5 c 128,-1,36
 245 4 245 4 237.5 2 c 128,-1,37
 230 0 230 0 227 0 c 0,38,39
 202 0 202 0 181 9.5 c 128,-1,40
 160 19 160 19 144.5 35.5 c 128,-1,41
 129 52 129 52 120 73.5 c 128,-1,42
 111 95 111 95 111 119 c 0,43,44
 111 157 111 157 135 185 c 128,-1,45
 159 213 159 213 194 225 c 0,46,47
 208 227 208 227 218.5 228.5 c 128,-1,48
 229 230 229 230 234 230 c 0,49,50
 245 230 245 230 262.5 227 c 128,-1,51
 280 224 280 224 293 216 c 0,52,53
 299 212 299 212 309.5 203.5 c 128,-1,54
 320 195 320 195 330.5 185 c 128,-1,55
 341 175 341 175 350 165.5 c 128,-1,56
 359 156 359 156 362 151 c 0,57,58
 382 121 382 121 387.5 86.5 c 128,-1,59
 393 52 393 52 393 21 c 0,60,61
 393 -15 393 -15 373 -49 c 128,-1,62
 353 -83 353 -83 321.5 -112.5 c 128,-1,63
 290 -142 290 -142 251.5 -163.5 c 128,-1,64
 213 -185 213 -185 175 -195 c 0,65,66
 155 -200 155 -200 132 -206.5 c 128,-1,67
 109 -213 109 -213 89 -213 c 0,68,69
 77 -213 77 -213 64 -209 c 128,-1,70
 51 -205 51 -205 51 -192 c 0,20,21
EndSplineSet
Validated: 1
EndChar

StartChar: less
Encoding: 60 60 31
Width: 1082
Flags: W
LayerCount: 2
Fore
SplineSet
988 168 m 1,0,-1
 988 154 l 2,1,2
 988 142 988 142 985 132 c 128,-1,3
 982 122 982 122 974 114 c 0,4,5
 958 96 958 96 946.5 89.5 c 128,-1,6
 935 83 935 83 927 83 c 1,7,-1
 92 737 l 2,8,9
 87 739 87 739 87 753 c 0,10,11
 87 763 87 763 105 779.5 c 128,-1,12
 123 796 123 796 152 818 c 0,13,14
 248 891 248 891 336 959.5 c 128,-1,15
 424 1028 424 1028 513 1097 c 128,-1,16
 602 1166 602 1166 696 1239 c 128,-1,17
 790 1312 790 1312 898 1396 c 0,18,19
 902 1398 902 1398 903.5 1399 c 128,-1,20
 905 1400 905 1400 907 1400 c 0,21,22
 913 1400 913 1400 921 1396 c 0,23,24
 925 1392 925 1392 931.5 1385.5 c 128,-1,25
 938 1379 938 1379 938 1372 c 0,26,27
 938 1367 938 1367 937 1364 c 128,-1,28
 936 1361 936 1361 931 1356 c 2,29,30
 931 1356 931 1356 925.5 1351.5 c 128,-1,31
 920 1347 920 1347 897.5 1329 c 128,-1,32
 875 1311 875 1311 829 1275 c 128,-1,33
 783 1239 783 1239 702 1176 c 128,-1,34
 621 1113 621 1113 499.5 1017.5 c 128,-1,35
 378 922 378 922 204 785 c 1,36,-1
 988 168 l 1,0,-1
EndSplineSet
Validated: 1
EndChar

StartChar: equal
Encoding: 61 61 32
Width: 1031
Flags: W
LayerCount: 2
Fore
SplineSet
217 351 m 0,0,1
 208 351 208 351 201.5 358 c 128,-1,2
 195 365 195 365 195 381 c 0,3,4
 195 396 195 396 199 402 c 128,-1,5
 203 408 203 408 212 408 c 2,6,-1
 610 412 l 1,7,-1
 645 412 l 2,8,9
 687 412 687 412 727.5 411 c 128,-1,10
 768 410 768 410 809 408 c 0,11,12
 820 408 820 408 826.5 403 c 128,-1,13
 833 398 833 398 833 382 c 0,14,15
 833 373 833 373 824.5 362 c 128,-1,16
 816 351 816 351 809 351 c 2,17,-1
 414 348 l 2,18,19
 316 348 316 348 217 351 c 0,0,1
217 600 m 0,20,21
 208 600 208 600 201.5 607 c 128,-1,22
 195 614 195 614 195 630 c 0,23,24
 195 645 195 645 199 651 c 128,-1,25
 203 657 203 657 212 657 c 2,26,-1
 609 653 l 1,27,-1
 644 653 l 2,28,29
 686 653 686 653 726.5 654 c 128,-1,30
 767 655 767 655 809 657 c 0,31,32
 820 657 820 657 826.5 652 c 128,-1,33
 833 647 833 647 833 631 c 0,34,35
 833 622 833 622 824.5 611 c 128,-1,36
 816 600 816 600 809 600 c 2,37,-1
 413 605 l 1,38,-1
 379 605 l 2,39,40
 338 605 338 605 298 603.5 c 128,-1,41
 258 602 258 602 217 600 c 0,20,21
EndSplineSet
Validated: 1
EndChar

StartChar: greater
Encoding: 62 62 33
Width: 1082
Flags: W
LayerCount: 2
Fore
SplineSet
870 785 m 1,0,1
 846 805 846 805 789 848 c 128,-1,2
 732 891 732 891 658 946 c 128,-1,3
 584 1001 584 1001 502.5 1063 c 128,-1,4
 421 1125 421 1125 348 1181.5 c 128,-1,5
 275 1238 275 1238 220 1284.5 c 128,-1,6
 165 1331 165 1331 144 1356 c 0,7,8
 137 1359 137 1359 137 1368 c 0,9,10
 137 1378 137 1378 142.5 1385 c 128,-1,11
 148 1392 148 1392 152 1396 c 0,12,13
 160 1400 160 1400 168 1400 c 0,14,15
 170 1400 170 1400 171 1399 c 128,-1,16
 172 1398 172 1398 177 1396 c 0,17,18
 279 1317 279 1317 371 1251.5 c 128,-1,19
 463 1186 463 1186 552.5 1120.5 c 128,-1,20
 642 1055 642 1055 733 983 c 128,-1,21
 824 911 824 911 923 819 c 0,22,23
 952 796 952 796 970 779.5 c 128,-1,24
 988 763 988 763 988 753 c 0,25,26
 988 740 988 740 981 737 c 0,27,28
 882 659 882 659 785.5 576 c 128,-1,29
 689 493 689 493 588 409 c 128,-1,30
 487 325 487 325 378.5 242.5 c 128,-1,31
 270 160 270 160 147 83 c 0,32,33
 133 75 133 75 118.5 88.5 c 128,-1,34
 104 102 104 102 94 118 c 0,35,36
 89 124 89 124 88.5 133 c 128,-1,37
 88 142 88 142 87 154 c 2,38,-1
 87 168 l 1,39,40
 187 241 187 241 288.5 313.5 c 128,-1,41
 390 386 390 386 489 462 c 128,-1,42
 588 538 588 538 684 618 c 128,-1,43
 780 698 780 698 870 785 c 1,0,1
EndSplineSet
Validated: 1
EndChar

StartChar: question
Encoding: 63 63 34
Width: 658
Flags: W
LayerCount: 2
Fore
SplineSet
159 798 m 2,0,-1
 159 803 l 2,1,2
 159 821 159 821 167 830 c 128,-1,3
 175 839 175 839 185 839 c 0,4,5
 199 839 199 839 212.5 838 c 128,-1,6
 226 837 226 837 239 837 c 0,7,8
 279 837 279 837 319 841 c 128,-1,9
 359 845 359 845 396 857 c 128,-1,10
 433 869 433 869 464 891.5 c 128,-1,11
 495 914 495 914 516 951 c 0,12,13
 519 956 519 956 523 965 c 128,-1,14
 527 974 527 974 530.5 983 c 128,-1,15
 534 992 534 992 537 999.5 c 128,-1,16
 540 1007 540 1007 540 1009 c 1,17,18
 542 1009 542 1009 542 1018.5 c 128,-1,19
 542 1028 542 1028 542 1033 c 0,20,21
 542 1099 542 1099 515.5 1147 c 128,-1,22
 489 1195 489 1195 435 1233 c 0,23,24
 425 1236 425 1236 411.5 1240 c 128,-1,25
 398 1244 398 1244 382.5 1248 c 128,-1,26
 367 1252 367 1252 351 1255 c 128,-1,27
 335 1258 335 1258 322 1258 c 0,28,29
 307 1258 307 1258 292 1253.5 c 128,-1,30
 277 1249 277 1249 262 1243 c 128,-1,31
 247 1237 247 1237 232 1232.5 c 128,-1,32
 217 1228 217 1228 201 1228 c 0,33,34
 149 1228 149 1228 126.5 1257.5 c 128,-1,35
 104 1287 104 1287 104 1334 c 0,36,37
 104 1364 104 1364 120.5 1383 c 128,-1,38
 137 1402 137 1402 161.5 1413 c 128,-1,39
 186 1424 186 1424 213.5 1428 c 128,-1,40
 241 1432 241 1432 263 1432 c 0,41,42
 329 1432 329 1432 388 1401 c 128,-1,43
 447 1370 447 1370 490.5 1320 c 128,-1,44
 534 1270 534 1270 559.5 1207.5 c 128,-1,45
 585 1145 585 1145 585 1083 c 0,46,47
 585 1082 585 1082 584.5 1080 c 128,-1,48
 584 1078 584 1078 584 1076 c 0,49,50
 583 1073 583 1073 583 1071 c 0,51,52
 583 1060 583 1060 580.5 1039.5 c 128,-1,53
 578 1019 578 1019 575 997 c 128,-1,54
 572 975 572 975 569.5 957 c 128,-1,55
 567 939 567 939 566 934 c 0,56,57
 558 892 558 892 535 858.5 c 128,-1,58
 512 825 512 825 490 791 c 0,59,60
 483 779 483 779 475.5 763 c 128,-1,61
 468 747 468 747 459 732.5 c 128,-1,62
 450 718 450 718 438 706 c 128,-1,63
 426 694 426 694 410 690 c 0,64,65
 387 685 387 685 367 682 c 128,-1,66
 347 679 347 679 328 676.5 c 128,-1,67
 309 674 309 674 289.5 672 c 128,-1,68
 270 670 270 670 248 666 c 1,69,70
 236 653 236 653 234 641.5 c 128,-1,71
 232 630 232 630 232 616 c 0,72,73
 232 584 232 584 241.5 552.5 c 128,-1,74
 251 521 251 521 251 491 c 0,75,76
 251 476 251 476 250.5 460 c 128,-1,77
 250 444 250 444 245.5 430 c 128,-1,78
 241 416 241 416 231.5 407 c 128,-1,79
 222 398 222 398 203 398 c 0,80,81
 191 398 191 398 186 410.5 c 128,-1,82
 181 423 181 423 179 440 c 128,-1,83
 177 457 177 457 177.5 473 c 128,-1,84
 178 489 178 489 177 497 c 2,85,-1
 177 626 l 2,86,87
 177 633 177 633 174.5 658 c 128,-1,88
 172 683 172 683 169 712 c 128,-1,89
 166 741 166 741 163 766 c 128,-1,90
 160 791 160 791 159 798 c 2,0,-1
159 111 m 0,91,92
 159 158 159 158 184.5 184.5 c 128,-1,93
 210 211 210 211 260 211 c 0,94,95
 317 211 317 211 347 180.5 c 128,-1,96
 377 150 377 150 377 88 c 0,97,98
 377 70 377 70 365 53.5 c 128,-1,99
 353 37 353 37 335 25 c 128,-1,100
 317 13 317 13 297.5 5.5 c 128,-1,101
 278 -2 278 -2 263 -2 c 0,102,103
 239 -2 239 -2 219.5 7.5 c 128,-1,104
 200 17 200 17 186.5 32.5 c 128,-1,105
 173 48 173 48 166 68.5 c 128,-1,106
 159 89 159 89 159 111 c 0,91,92
EndSplineSet
Validated: 1
EndChar

StartChar: at
Encoding: 64 64 35
Width: 1523
Flags: W
LayerCount: 2
Fore
SplineSet
754 789 m 0,0,1
 730 758 730 758 702 718.5 c 128,-1,2
 674 679 674 679 649.5 634 c 128,-1,3
 625 589 625 589 609 539.5 c 128,-1,4
 593 490 593 490 593 439 c 0,5,6
 593 415 593 415 606.5 408 c 128,-1,7
 620 401 620 401 655 401 c 0,8,9
 678 401 678 401 714 415.5 c 128,-1,10
 750 430 750 430 797 462 c 0,11,12
 824 480 824 480 850 505.5 c 128,-1,13
 876 531 876 531 899.5 559.5 c 128,-1,14
 923 588 923 588 943 617 c 128,-1,15
 963 646 963 646 977 671 c 0,16,17
 990 698 990 698 1001.5 727.5 c 128,-1,18
 1013 757 1013 757 1021 787.5 c 128,-1,19
 1029 818 1029 818 1034 847.5 c 128,-1,20
 1039 877 1039 877 1039 903 c 256,21,22
 1039 929 1039 929 1017.5 942 c 128,-1,23
 996 955 996 955 965 955 c 0,24,25
 951 955 951 955 932.5 946.5 c 128,-1,26
 914 938 914 938 895 926 c 128,-1,27
 876 914 876 914 859 900 c 128,-1,28
 842 886 842 886 830 874 c 0,29,30
 822 867 822 867 811.5 856.5 c 128,-1,31
 801 846 801 846 790.5 834.5 c 128,-1,32
 780 823 780 823 770.5 811 c 128,-1,33
 761 799 761 799 754 789 c 0,0,1
477 422 m 0,34,35
 477 460 477 460 483.5 503 c 128,-1,36
 490 546 490 546 501 586 c 0,37,38
 515 631 515 631 536.5 677.5 c 128,-1,39
 558 724 558 724 593 770 c 0,40,41
 628 815 628 815 671.5 857.5 c 128,-1,42
 715 900 715 900 764 938 c 0,43,44
 783 950 783 950 806.5 963.5 c 128,-1,45
 830 977 830 977 854.5 987.5 c 128,-1,46
 879 998 879 998 903.5 1005 c 128,-1,47
 928 1012 928 1012 949 1012 c 0,48,49
 1016 1012 1016 1012 1057 962 c 0,50,51
 1059 957 1059 957 1061.5 948.5 c 128,-1,52
 1064 940 1064 940 1065 938 c 0,53,54
 1067 931 1067 931 1070.5 925 c 128,-1,55
 1074 919 1074 919 1081 919 c 0,56,57
 1085 919 1085 919 1088.5 926 c 128,-1,58
 1092 933 1092 933 1095 938 c 0,59,60
 1103 952 1103 952 1115.5 974 c 128,-1,61
 1128 996 1128 996 1142 1016.5 c 128,-1,62
 1156 1037 1156 1037 1172 1051.5 c 128,-1,63
 1188 1066 1188 1066 1204 1066 c 0,64,65
 1217 1066 1217 1066 1224 1052.5 c 128,-1,66
 1231 1039 1231 1039 1231 1026 c 2,67,-1
 1231 955 l 1,68,69
 1225 940 1225 940 1210.5 907 c 128,-1,70
 1196 874 1196 874 1177.5 833 c 128,-1,71
 1159 792 1159 792 1139 748 c 128,-1,72
 1119 704 1119 704 1102.5 667 c 128,-1,73
 1086 630 1086 630 1074.5 604.5 c 128,-1,74
 1063 579 1063 579 1062 576 c 0,75,76
 1046 541 1046 541 1027 498.5 c 128,-1,77
 1008 456 1008 456 994 424 c 0,78,79
 987 411 987 411 987 403 c 0,80,81
 987 396 987 396 994 396 c 0,82,83
 997 396 997 396 1004 399 c 128,-1,84
 1011 402 1011 402 1019 407 c 0,85,86
 1041 416 1041 416 1067.5 431 c 128,-1,87
 1094 446 1094 446 1119 464 c 128,-1,88
 1144 482 1144 482 1166 501 c 128,-1,89
 1188 520 1188 520 1202 538 c 0,90,91
 1234 578 1234 578 1255 622.5 c 128,-1,92
 1276 667 1276 667 1288.5 707.5 c 128,-1,93
 1301 748 1301 748 1306 779 c 128,-1,94
 1311 810 1311 810 1311 822 c 0,95,96
 1311 876 1311 876 1301.5 929 c 128,-1,97
 1292 982 1292 982 1274 1032 c 128,-1,98
 1256 1082 1256 1082 1231 1126 c 128,-1,99
 1206 1170 1206 1170 1176 1206 c 0,100,101
 1152 1233 1152 1233 1117 1266.5 c 128,-1,102
 1082 1300 1082 1300 1042 1329 c 128,-1,103
 1002 1358 1002 1358 959 1378 c 128,-1,104
 916 1398 916 1398 877 1398 c 0,105,106
 807 1393 807 1393 746.5 1369.5 c 128,-1,107
 686 1346 686 1346 633.5 1308.5 c 128,-1,108
 581 1271 581 1271 535.5 1221 c 128,-1,109
 490 1171 490 1171 449 1112 c 0,110,111
 419 1067 419 1067 398 1016 c 128,-1,112
 377 965 377 965 364 913 c 128,-1,113
 351 861 351 861 345 809 c 128,-1,114
 339 757 339 757 339 709 c 0,115,116
 339 567 339 567 363 471.5 c 128,-1,117
 387 376 387 376 425 322 c 0,118,119
 459 273 459 273 500 223.5 c 128,-1,120
 541 174 541 174 592 134 c 128,-1,121
 643 94 643 94 705 68.5 c 128,-1,122
 767 43 767 43 842 43 c 0,123,124
 891 43 891 43 932.5 49.5 c 128,-1,125
 974 56 974 56 1007.5 65.5 c 128,-1,126
 1041 75 1041 75 1066 85.5 c 128,-1,127
 1091 96 1091 96 1109 104 c 0,128,129
 1118 109 1118 109 1134 118 c 128,-1,130
 1150 127 1150 127 1165.5 135.5 c 128,-1,131
 1181 144 1181 144 1194 150 c 128,-1,132
 1207 156 1207 156 1212 156 c 0,133,134
 1249 156 1249 156 1249 131 c 0,135,136
 1249 123 1249 123 1235 110 c 128,-1,137
 1221 97 1221 97 1204 86 c 0,138,139
 1036 -9 1036 -9 833 -9 c 0,140,141
 796 -9 796 -9 747.5 -3.5 c 128,-1,142
 699 2 699 2 645.5 13.5 c 128,-1,143
 592 25 592 25 535.5 43.5 c 128,-1,144
 479 62 479 62 425.5 88 c 128,-1,145
 372 114 372 114 324.5 147.5 c 128,-1,146
 277 181 277 181 242 223 c 0,147,148
 198 275 198 275 168.5 337.5 c 128,-1,149
 139 400 139 400 122 465.5 c 128,-1,150
 105 531 105 531 98 596.5 c 128,-1,151
 91 662 91 662 91 721 c 0,152,153
 91 835 91 835 127 945 c 128,-1,154
 163 1055 163 1055 231 1140 c 0,155,156
 289 1211 289 1211 371 1267.5 c 128,-1,157
 453 1324 453 1324 542 1364 c 128,-1,158
 631 1404 631 1404 719 1425 c 128,-1,159
 807 1446 807 1446 878 1446 c 0,160,161
 938 1446 938 1446 1004.5 1428 c 128,-1,162
 1071 1410 1071 1410 1131.5 1383.5 c 128,-1,163
 1192 1357 1192 1357 1240 1328 c 128,-1,164
 1288 1299 1288 1299 1311 1277 c 0,165,166
 1349 1238 1349 1238 1380.5 1199 c 128,-1,167
 1412 1160 1412 1160 1434 1119 c 128,-1,168
 1456 1078 1456 1078 1468 1032.5 c 128,-1,169
 1480 987 1480 987 1480 936 c 0,170,171
 1480 883 1480 883 1453 820 c 128,-1,172
 1426 757 1426 757 1381 691.5 c 128,-1,173
 1336 626 1336 626 1277.5 561 c 128,-1,174
 1219 496 1219 496 1157 438 c 0,175,176
 1133 416 1133 416 1105.5 394.5 c 128,-1,177
 1078 373 1078 373 1048.5 356 c 128,-1,178
 1019 339 1019 339 988 328.5 c 128,-1,179
 957 318 957 318 925 318 c 0,180,181
 917 318 917 318 906.5 320.5 c 128,-1,182
 896 323 896 323 887 327.5 c 128,-1,183
 878 332 878 332 872 338 c 128,-1,184
 866 344 866 344 866 351 c 0,185,186
 866 368 866 368 871 388 c 128,-1,187
 876 408 876 408 883.5 427 c 128,-1,188
 891 446 891 446 899 462 c 128,-1,189
 907 478 907 478 913 486 c 0,190,191
 918 494 918 494 918 503 c 0,192,193
 918 508 918 508 916.5 513.5 c 128,-1,194
 915 519 915 519 906 519 c 0,195,196
 901 519 901 519 898 516 c 128,-1,197
 895 513 895 513 891 510 c 0,198,199
 880 501 880 501 873.5 492.5 c 128,-1,200
 867 484 867 484 858 476 c 0,201,202
 837 456 837 456 805.5 429 c 128,-1,203
 774 402 774 402 739 377.5 c 128,-1,204
 704 353 704 353 668 335.5 c 128,-1,205
 632 318 632 318 602 318 c 0,206,207
 577 318 577 318 554.5 322.5 c 128,-1,208
 532 327 532 327 514.5 338.5 c 128,-1,209
 497 350 497 350 487 370 c 128,-1,210
 477 390 477 390 477 422 c 0,34,35
EndSplineSet
Validated: 1
EndChar

StartChar: A
Encoding: 65 65 36
Width: 1328
Flags: W
LayerCount: 2
Fore
SplineSet
758 574 m 2,0,1
 780 574 780 574 780 593 c 0,2,3
 780 602 780 602 779 607 c 0,4,5
 773 626 773 626 762 662 c 128,-1,6
 751 698 751 698 737 745 c 128,-1,7
 723 792 723 792 706.5 845.5 c 128,-1,8
 690 899 690 899 673.5 953 c 128,-1,9
 657 1007 657 1007 641 1057.5 c 128,-1,10
 625 1108 625 1108 613 1149 c 0,11,12
 611 1151 611 1151 607.5 1156 c 128,-1,13
 604 1161 604 1161 597 1161 c 0,14,15
 588 1161 588 1161 583 1144 c 0,16,17
 574 1119 574 1119 558.5 1073 c 128,-1,18
 543 1027 543 1027 524 971 c 128,-1,19
 505 915 505 915 484.5 855 c 128,-1,20
 464 795 464 795 446 743.5 c 128,-1,21
 428 692 428 692 415 654.5 c 128,-1,22
 402 617 402 617 398 605 c 0,23,24
 396 602 396 602 396 597 c 0,25,26
 396 574 396 574 427 574 c 2,27,-1
 758 574 l 2,0,1
-66 26 m 0,28,29
 -66 43 -66 43 -48.5 46 c 128,-1,30
 -31 49 -31 49 4 55 c 0,31,32
 69 69 69 69 112 112 c 128,-1,33
 155 155 155 155 184 210.5 c 128,-1,34
 213 266 213 266 232.5 326 c 128,-1,35
 252 386 252 386 270 434 c 2,36,-1
 526 1135 l 2,37,38
 535 1161 535 1161 542.5 1171.5 c 128,-1,39
 550 1182 550 1182 555 1189.5 c 128,-1,40
 560 1197 560 1197 563 1207 c 128,-1,41
 566 1217 566 1217 566 1242 c 0,42,43
 566 1253 566 1253 563 1262 c 128,-1,44
 560 1271 560 1271 556.5 1280.5 c 128,-1,45
 553 1290 553 1290 550 1301.5 c 128,-1,46
 547 1313 547 1313 547 1330 c 1,47,48
 573 1333 573 1333 596.5 1338.5 c 128,-1,49
 620 1344 620 1344 640 1358 c 0,50,51
 651 1366 651 1366 659 1379.5 c 128,-1,52
 667 1393 667 1393 676 1406 c 128,-1,53
 685 1419 685 1419 697 1428.5 c 128,-1,54
 709 1438 709 1438 729 1438 c 0,55,56
 731 1438 731 1438 733 1437 c 128,-1,57
 735 1436 735 1436 737 1431 c 256,58,59
 739 1426 739 1426 749.5 1392 c 128,-1,60
 760 1358 760 1358 777.5 1301.5 c 128,-1,61
 795 1245 795 1245 817.5 1171 c 128,-1,62
 840 1097 840 1097 865.5 1013.5 c 128,-1,63
 891 930 891 930 918.5 840 c 128,-1,64
 946 750 946 750 973 662.5 c 128,-1,65
 1000 575 1000 575 1024.5 493.5 c 128,-1,66
 1049 412 1049 412 1070 345 c 128,-1,67
 1091 278 1091 278 1106 228.5 c 128,-1,68
 1121 179 1121 179 1128 156 c 0,69,70
 1139 123 1139 123 1163 98 c 128,-1,71
 1187 73 1187 73 1216 64 c 0,72,73
 1245 54 1245 54 1268.5 53 c 128,-1,74
 1292 52 1292 52 1308.5 51 c 128,-1,75
 1325 50 1325 50 1334 44 c 128,-1,76
 1343 38 1343 38 1343 19 c 0,77,78
 1343 13 1343 13 1339 9.5 c 128,-1,79
 1335 6 1335 6 1329 4 c 128,-1,80
 1323 2 1323 2 1316.5 1.5 c 128,-1,81
 1310 1 1310 1 1306 0 c 2,82,-1
 1216 0 l 2,83,84
 1208 0 1208 0 1199 0.5 c 128,-1,85
 1190 1 1190 1 1171.5 1.5 c 128,-1,86
 1153 2 1153 2 1121 2.5 c 128,-1,87
 1089 3 1089 3 1036 3 c 0,88,89
 980 3 980 3 926.5 1.5 c 128,-1,90
 873 0 873 0 818 -2 c 2,91,-1
 767 -2 l 2,92,93
 759 -2 759 -2 749 -1.5 c 128,-1,94
 739 -1 739 -1 730 1 c 128,-1,95
 721 3 721 3 715 8 c 128,-1,96
 709 13 709 13 709 22 c 0,97,98
 709 30 709 30 717 35 c 128,-1,99
 725 40 725 40 736 43 c 128,-1,100
 747 46 747 46 759 47.5 c 128,-1,101
 771 49 771 49 779 50 c 0,102,103
 813 55 813 55 845 61.5 c 128,-1,104
 877 68 877 68 908 74 c 0,105,106
 931 81 931 81 931 99 c 0,107,108
 931 101 931 101 931 105.5 c 128,-1,109
 931 110 931 110 929 114 c 2,110,-1
 820 472 l 2,111,112
 818 480 818 480 809.5 490 c 128,-1,113
 801 500 801 500 789 500 c 2,114,-1
 383 500 l 2,115,116
 369 500 369 500 364 495.5 c 128,-1,117
 359 491 359 491 355 486 c 2,118,-1
 303 346 l 2,119,120
 290 312 290 312 285 284.5 c 128,-1,121
 280 257 280 257 280 232 c 0,122,123
 280 202 280 202 286 166 c 0,124,125
 291 130 291 130 310 110 c 128,-1,126
 329 90 329 90 354.5 80 c 128,-1,127
 380 70 380 70 409 66.5 c 128,-1,128
 438 63 438 63 462 60 c 128,-1,129
 486 57 486 57 501.5 51.5 c 128,-1,130
 517 46 517 46 517 31 c 0,131,132
 517 22 517 22 511.5 12 c 128,-1,133
 506 2 506 2 486 0 c 2,134,-1
 443 0 l 2,135,136
 384 2 384 2 328.5 4.5 c 128,-1,137
 273 7 273 7 213 7 c 0,138,139
 147 7 147 7 93.5 3.5 c 128,-1,140
 40 0 40 0 -14 0 c 2,141,-1
 -27 0 l 2,142,143
 -66 0 -66 0 -66 26 c 0,28,29
EndSplineSet
Validated: 1
EndChar

StartChar: B
Encoding: 66 66 37
Width: 1332
Flags: W
LayerCount: 2
Fore
SplineSet
54 1432 m 1,0,-1
 390 1432 l 2,1,2
 430 1432 430 1432 463 1435 c 128,-1,3
 496 1438 496 1438 536.5 1441 c 128,-1,4
 577 1444 577 1444 634 1447 c 128,-1,5
 691 1450 691 1450 779 1450 c 0,6,7
 880 1450 880 1450 954 1421.5 c 128,-1,8
 1028 1393 1028 1393 1076 1345.5 c 128,-1,9
 1124 1298 1124 1298 1147 1237 c 128,-1,10
 1170 1176 1170 1176 1170 1112 c 0,11,12
 1170 1039 1170 1039 1152 986.5 c 128,-1,13
 1134 934 1134 934 1100 894 c 128,-1,14
 1066 854 1066 854 1017 824 c 128,-1,15
 968 794 968 794 907 766 c 0,16,17
 905 766 905 766 901 764.5 c 128,-1,18
 897 763 897 763 897 761 c 0,19,20
 897 758 897 758 907 754 c 0,21,22
 989 724 989 724 1048.5 686.5 c 128,-1,23
 1108 649 1108 649 1147 600.5 c 128,-1,24
 1186 552 1186 552 1205 490 c 128,-1,25
 1224 428 1224 428 1224 349 c 0,26,27
 1224 318 1224 318 1214 283 c 128,-1,28
 1204 248 1204 248 1186 213.5 c 128,-1,29
 1168 179 1168 179 1143.5 147.5 c 128,-1,30
 1119 116 1119 116 1089 92 c 0,31,32
 1027 42 1027 42 923.5 19.5 c 128,-1,33
 820 -3 820 -3 675 -3 c 0,34,35
 643 -3 643 -3 613 -2.5 c 128,-1,36
 583 -2 583 -2 550.5 -1.5 c 128,-1,37
 518 -1 518 -1 482 -0.5 c 128,-1,38
 446 0 446 0 402 0 c 256,39,40
 358 0 358 0 317.5 -1 c 128,-1,41
 277 -2 277 -2 237 -3 c 128,-1,42
 197 -4 197 -4 155 -5 c 128,-1,43
 113 -6 113 -6 66 -7 c 1,44,45
 66 2 66 2 69.5 14 c 128,-1,46
 73 26 73 26 82 31 c 0,47,48
 113 44 113 44 148 49 c 128,-1,49
 183 54 183 54 212.5 63.5 c 128,-1,50
 242 73 242 73 261.5 94.5 c 128,-1,51
 281 116 281 116 281 163 c 2,52,-1
 281 1287 l 2,53,54
 281 1299 281 1299 280.5 1311.5 c 128,-1,55
 280 1324 280 1324 277 1335.5 c 128,-1,56
 274 1347 274 1347 268 1356.5 c 128,-1,57
 262 1366 262 1366 251 1372 c 0,58,59
 237 1379 237 1379 220.5 1381.5 c 128,-1,60
 204 1384 204 1384 182 1386 c 128,-1,61
 160 1388 160 1388 132 1392.5 c 128,-1,62
 104 1397 104 1397 66 1408 c 0,63,64
 54 1411 54 1411 54 1420 c 2,65,-1
 54 1432 l 1,0,-1
490 685 m 2,66,-1
 490 137 l 1,67,68
 529 92 529 92 574 65 c 128,-1,69
 619 38 619 38 679 38 c 0,70,71
 750 38 750 38 803.5 70 c 128,-1,72
 857 102 857 102 892.5 152 c 128,-1,73
 928 202 928 202 946 264.5 c 128,-1,74
 964 327 964 327 964 388 c 0,75,76
 964 458 964 458 937 519.5 c 128,-1,77
 910 581 910 581 864 626 c 128,-1,78
 818 671 818 671 757.5 697 c 128,-1,79
 697 723 697 723 630 723 c 2,80,-1
 602 723 l 2,81,82
 593 723 593 723 573.5 723 c 128,-1,83
 554 723 554 723 523 721 c 0,84,85
 490 721 490 721 490 685 c 2,66,-1
490 1398 m 1,86,-1
 490 791 l 2,87,88
 490 780 490 780 495.5 772.5 c 128,-1,89
 501 765 501 765 509 761 c 128,-1,90
 517 757 517 757 525 755.5 c 128,-1,91
 533 754 533 754 538 754 c 0,92,93
 616 754 616 754 672.5 770 c 128,-1,94
 729 786 729 786 767 810 c 0,95,96
 795 827 795 827 821.5 854 c 128,-1,97
 848 881 848 881 868.5 916 c 128,-1,98
 889 951 889 951 901.5 992.5 c 128,-1,99
 914 1034 914 1034 914 1081 c 0,100,101
 914 1211 914 1211 870.5 1284.5 c 128,-1,102
 827 1358 827 1358 732 1387 c 0,103,104
 694 1399 694 1399 651 1403.5 c 128,-1,105
 608 1408 608 1408 556 1408 c 0,106,107
 538 1408 538 1408 521 1405.5 c 128,-1,108
 504 1403 504 1403 490 1398 c 1,86,-1
EndSplineSet
Validated: 1
EndChar

StartChar: C
Encoding: 67 67 38
Width: 1379
Flags: W
LayerCount: 2
Fore
SplineSet
90 702 m 2,0,-1
 90 716 l 2,1,2
 90 775 90 775 101.5 840.5 c 128,-1,3
 113 906 113 906 134 971 c 128,-1,4
 155 1036 155 1036 185 1097 c 128,-1,5
 215 1158 215 1158 253 1209 c 0,6,7
 295 1264 295 1264 347.5 1307.5 c 128,-1,8
 400 1351 400 1351 460.5 1382 c 128,-1,9
 521 1413 521 1413 589 1429.5 c 128,-1,10
 657 1446 657 1446 730 1446 c 0,11,12
 791 1446 791 1446 856 1434.5 c 128,-1,13
 921 1423 921 1423 976 1400 c 0,14,15
 1021 1379 1021 1379 1057.5 1349.5 c 128,-1,16
 1094 1320 1094 1320 1135 1291 c 0,17,18
 1139 1286 1139 1286 1143.5 1285 c 128,-1,19
 1148 1284 1148 1284 1152 1284 c 0,20,21
 1161 1284 1161 1284 1168 1297 c 0,22,23
 1179 1316 1179 1316 1188 1345.5 c 128,-1,24
 1197 1375 1197 1375 1208 1396 c 0,25,26
 1212 1405 1212 1405 1217 1406.5 c 128,-1,27
 1222 1408 1222 1408 1228 1408 c 0,28,29
 1235 1408 1235 1408 1238.5 1403 c 128,-1,30
 1242 1398 1242 1398 1242 1396 c 0,31,32
 1250 1361 1250 1361 1251.5 1326 c 128,-1,33
 1253 1291 1253 1291 1253 1253 c 2,34,-1
 1253 1195 l 2,35,36
 1253 1182 1253 1182 1253 1169 c 128,-1,37
 1253 1156 1253 1156 1254 1142 c 0,38,39
 1258 1104 1258 1104 1264 1076 c 128,-1,40
 1270 1048 1270 1048 1270 1022 c 0,41,42
 1270 1007 1270 1007 1265.5 990.5 c 128,-1,43
 1261 974 1261 974 1247 974 c 0,44,45
 1241 974 1241 974 1230.5 989 c 128,-1,46
 1220 1004 1220 1004 1209 1022.5 c 128,-1,47
 1198 1041 1198 1041 1187.5 1059 c 128,-1,48
 1177 1077 1177 1077 1173 1083 c 0,49,50
 1145 1123 1145 1123 1119.5 1159 c 128,-1,51
 1094 1195 1094 1195 1067.5 1226.5 c 128,-1,52
 1041 1258 1041 1258 1011.5 1284.5 c 128,-1,53
 982 1311 982 1311 946 1332 c 0,54,55
 915 1351 915 1351 887 1361.5 c 128,-1,56
 859 1372 859 1372 832.5 1377 c 128,-1,57
 806 1382 806 1382 780 1383 c 128,-1,58
 754 1384 754 1384 727 1384 c 0,59,60
 685 1384 685 1384 649.5 1372.5 c 128,-1,61
 614 1361 614 1361 583 1341 c 128,-1,62
 552 1321 552 1321 525.5 1295 c 128,-1,63
 499 1269 499 1269 474 1240 c 0,64,65
 402 1155 402 1155 365.5 1013.5 c 128,-1,66
 329 872 329 872 329 675 c 0,67,68
 329 577 329 577 346.5 497.5 c 128,-1,69
 364 418 364 418 390 356.5 c 128,-1,70
 416 295 416 295 447.5 250.5 c 128,-1,71
 479 206 479 206 507 178 c 0,72,73
 537 146 537 146 564.5 122.5 c 128,-1,74
 592 99 592 99 622 84 c 128,-1,75
 652 69 652 69 687 61.5 c 128,-1,76
 722 54 722 54 766 54 c 0,77,78
 833 54 833 54 897 83 c 128,-1,79
 961 112 961 112 1022 159 c 0,80,81
 1035 169 1035 169 1049 183 c 128,-1,82
 1063 197 1063 197 1076.5 211 c 128,-1,83
 1090 225 1090 225 1101.5 238.5 c 128,-1,84
 1113 252 1113 252 1121 263 c 0,85,86
 1153 313 1153 313 1177 360 c 128,-1,87
 1201 407 1201 407 1221 457 c 0,88,89
 1231 472 1231 472 1256 472 c 0,90,91
 1267 472 1267 472 1271 464 c 128,-1,92
 1275 456 1275 456 1275 445 c 0,93,94
 1259 390 1259 390 1247 345.5 c 128,-1,95
 1235 301 1235 301 1221 251 c 0,96,97
 1212 215 1212 215 1208 180.5 c 128,-1,98
 1204 146 1204 146 1200 119.5 c 128,-1,99
 1196 93 1196 93 1191 77 c 128,-1,100
 1186 61 1186 61 1175 61 c 0,101,102
 1167 61 1167 61 1162 67 c 128,-1,103
 1157 73 1157 73 1152 86 c 0,104,105
 1150 96 1150 96 1145.5 103.5 c 128,-1,106
 1141 111 1141 111 1130 111 c 256,107,108
 1119 111 1119 111 1109.5 107 c 128,-1,109
 1100 103 1100 103 1086 94.5 c 128,-1,110
 1072 86 1072 86 1051 74.5 c 128,-1,111
 1030 63 1030 63 995 48 c 0,112,113
 931 22 931 22 858 6.5 c 128,-1,114
 785 -9 785 -9 713 -9 c 0,115,116
 608 -9 608 -9 521 18.5 c 128,-1,117
 434 46 434 46 356 112 c 0,118,119
 294 165 294 165 245 233.5 c 128,-1,120
 196 302 196 302 161.5 379 c 128,-1,121
 127 456 127 456 108.5 538.5 c 128,-1,122
 90 621 90 621 90 702 c 2,0,-1
EndSplineSet
Validated: 1
EndChar

StartChar: D
Encoding: 68 68 39
Width: 1563
Flags: W
LayerCount: 2
Fore
SplineSet
106 1443 m 2,0,-1
 346 1443 l 2,1,2
 445 1443 445 1443 545.5 1441 c 128,-1,3
 646 1439 646 1439 738.5 1433.5 c 128,-1,4
 831 1428 831 1428 909 1419 c 128,-1,5
 987 1410 987 1410 1040 1396 c 0,6,7
 1118 1373 1118 1373 1185.5 1324 c 128,-1,8
 1253 1275 1253 1275 1311 1209 c 0,9,10
 1334 1182 1334 1182 1362.5 1136.5 c 128,-1,11
 1391 1091 1391 1091 1416.5 1032 c 128,-1,12
 1442 973 1442 973 1459 904 c 128,-1,13
 1476 835 1476 835 1476 761 c 0,14,15
 1476 586 1476 586 1410.5 445.5 c 128,-1,16
 1345 305 1345 305 1221 187 c 0,17,18
 1215 184 1215 184 1203.5 175 c 128,-1,19
 1192 166 1192 166 1179 155.5 c 128,-1,20
 1166 145 1166 145 1154.5 136 c 128,-1,21
 1143 127 1143 127 1138 123 c 0,22,23
 1115 104 1115 104 1081.5 87 c 128,-1,24
 1048 70 1048 70 1008 56 c 128,-1,25
 968 42 968 42 924.5 30 c 128,-1,26
 881 18 881 18 839 10 c 128,-1,27
 797 2 797 2 760 -2.5 c 128,-1,28
 723 -7 723 -7 696 -7 c 0,29,30
 657 -7 657 -7 616 -3.5 c 128,-1,31
 575 0 575 0 521 0 c 2,32,-1
 74 0 l 2,33,34
 42 0 42 0 42 21 c 0,35,36
 42 33 42 33 63 40.5 c 128,-1,37
 84 48 84 48 114 52.5 c 128,-1,38
 144 57 144 57 178 60.5 c 128,-1,39
 212 64 212 64 239 69 c 0,40,41
 259 73 259 73 269.5 80.5 c 128,-1,42
 280 88 280 88 284 97 c 0,43,44
 289 118 289 118 290 130.5 c 128,-1,45
 291 143 291 143 291 159 c 2,46,-1
 291 1375 l 2,47,48
 288 1382 288 1382 265.5 1388 c 128,-1,49
 243 1394 243 1394 211.5 1399 c 128,-1,50
 180 1404 180 1404 144 1409 c 128,-1,51
 108 1414 108 1414 78 1419 c 0,52,53
 62 1421 62 1421 62 1429 c 0,54,55
 62 1431 62 1431 73 1439 c 0,56,57
 77 1441 77 1441 84.5 1442 c 128,-1,58
 92 1443 92 1443 106 1443 c 2,0,-1
521 1370 m 2,59,-1
 521 808 l 2,60,61
 521 747 521 747 517.5 690.5 c 128,-1,62
 514 634 514 634 510.5 580 c 128,-1,63
 507 526 507 526 503.5 472.5 c 128,-1,64
 500 419 500 419 500 363 c 0,65,66
 500 237 500 237 514.5 169.5 c 128,-1,67
 529 102 529 102 555 73 c 0,68,69
 567 57 567 57 589.5 52.5 c 128,-1,70
 612 48 612 48 630 48 c 0,71,72
 708 48 708 48 778 68 c 128,-1,73
 848 88 848 88 907.5 123 c 128,-1,74
 967 158 967 158 1014.5 205 c 128,-1,75
 1062 252 1062 252 1095 306 c 0,76,77
 1164 417 1164 417 1198 529.5 c 128,-1,78
 1232 642 1232 642 1232 744 c 0,79,80
 1232 800 1232 800 1223.5 851 c 128,-1,81
 1215 902 1215 902 1203 945 c 128,-1,82
 1191 988 1191 988 1177 1021 c 128,-1,83
 1163 1054 1163 1054 1152 1073 c 0,84,85
 1137 1100 1137 1100 1110 1138.5 c 128,-1,86
 1083 1177 1083 1177 1040.5 1218.5 c 128,-1,87
 998 1260 998 1260 937 1299.5 c 128,-1,88
 876 1339 876 1339 792 1368 c 0,89,90
 740 1387 740 1387 688 1394 c 128,-1,91
 636 1401 636 1401 574 1401 c 0,92,93
 568 1401 568 1401 558.5 1400 c 128,-1,94
 549 1399 549 1399 541 1396 c 128,-1,95
 533 1393 533 1393 527 1386.5 c 128,-1,96
 521 1380 521 1380 521 1370 c 2,59,-1
EndSplineSet
Validated: 1
EndChar

StartChar: E
Encoding: 69 69 40
Width: 1250
Flags: W
LayerCount: 2
Fore
SplineSet
288 1322 m 2,0,1
 288 1352 288 1352 266 1370 c 128,-1,2
 244 1388 244 1388 212 1398.5 c 128,-1,3
 180 1409 180 1409 144 1413 c 128,-1,4
 108 1417 108 1417 80 1419 c 0,5,6
 73 1419 73 1419 67 1420.5 c 128,-1,7
 61 1422 61 1422 61 1431 c 0,8,9
 61 1437 61 1437 66 1441 c 128,-1,10
 71 1445 71 1445 78 1447.5 c 128,-1,11
 85 1450 85 1450 92 1450.5 c 128,-1,12
 99 1451 99 1451 104 1451 c 0,13,14
 111 1451 111 1451 134 1450.5 c 128,-1,15
 157 1450 157 1450 191 1449.5 c 128,-1,16
 225 1449 225 1449 266.5 1448.5 c 128,-1,17
 308 1448 308 1448 353 1448 c 0,18,19
 430 1448 430 1448 485.5 1450.5 c 128,-1,20
 541 1453 541 1453 586.5 1456.5 c 128,-1,21
 632 1460 632 1460 673.5 1462.5 c 128,-1,22
 715 1465 715 1465 763 1465 c 0,23,24
 782 1465 782 1465 796.5 1465 c 128,-1,25
 811 1465 811 1465 826 1465 c 128,-1,26
 841 1465 841 1465 859.5 1464.5 c 128,-1,27
 878 1464 878 1464 904.5 1463 c 128,-1,28
 931 1462 931 1462 969.5 1461 c 128,-1,29
 1008 1460 1008 1460 1063 1458 c 0,30,31
 1074 1457 1074 1457 1082 1450 c 128,-1,32
 1090 1443 1090 1443 1092 1432 c 0,33,34
 1094 1363 1094 1363 1095.5 1300.5 c 128,-1,35
 1097 1238 1097 1238 1097 1168 c 0,36,37
 1097 1152 1097 1152 1092 1152 c 0,38,39
 1090 1152 1090 1152 1086 1153 c 128,-1,40
 1082 1154 1082 1154 1080 1159 c 0,41,42
 1072 1175 1072 1175 1063 1194 c 128,-1,43
 1054 1213 1054 1213 1044.5 1232.5 c 128,-1,44
 1035 1252 1035 1252 1025.5 1270 c 128,-1,45
 1016 1288 1016 1288 1007 1301 c 0,46,47
 994 1320 994 1320 973 1340.5 c 128,-1,48
 952 1361 952 1361 926 1378 c 128,-1,49
 900 1395 900 1395 870.5 1406 c 128,-1,50
 841 1417 841 1417 812 1419 c 0,51,52
 794 1419 794 1419 780.5 1419.5 c 128,-1,53
 767 1420 767 1420 754 1420 c 128,-1,54
 741 1420 741 1420 727 1420 c 128,-1,55
 713 1420 713 1420 694 1420 c 0,56,57
 655 1420 655 1420 613.5 1418 c 128,-1,58
 572 1416 572 1416 533 1408 c 0,59,60
 524 1406 524 1406 515 1402.5 c 128,-1,61
 506 1399 506 1399 506 1386 c 2,62,-1
 506 761 l 2,63,64
 508 748 508 748 520 744 c 1,65,66
 577 749 577 749 641.5 752.5 c 128,-1,67
 706 756 706 756 763 756 c 0,68,69
 791 758 791 758 813.5 774.5 c 128,-1,70
 836 791 836 791 853 814.5 c 128,-1,71
 870 838 870 838 883 866.5 c 128,-1,72
 896 895 896 895 906 922 c 128,-1,73
 916 949 916 949 923.5 970.5 c 128,-1,74
 931 992 931 992 938 1003 c 0,75,76
 941 1008 941 1008 944 1009 c 128,-1,77
 947 1010 947 1010 961 1010 c 0,78,79
 967 1010 967 1010 973.5 1007.5 c 128,-1,80
 980 1005 980 1005 980 1000 c 0,81,82
 980 964 980 964 977.5 936 c 128,-1,83
 975 908 975 908 972 886 c 128,-1,84
 969 864 969 864 966.5 845.5 c 128,-1,85
 964 827 964 827 964 810 c 2,86,-1
 964 436 l 2,87,88
 962 433 962 433 959 431 c 0,89,90
 954 426 954 426 949 426 c 0,91,92
 941 426 941 426 933.5 440.5 c 128,-1,93
 926 455 926 455 918.5 477 c 128,-1,94
 911 499 911 499 903.5 526 c 128,-1,95
 896 553 896 553 887.5 579 c 128,-1,96
 879 605 879 605 869.5 626 c 128,-1,97
 860 647 860 647 848 657 c 0,98,99
 837 666 837 666 816 673 c 128,-1,100
 795 680 795 680 768.5 684 c 128,-1,101
 742 688 742 688 712 690.5 c 128,-1,102
 682 693 682 693 654.5 694 c 128,-1,103
 627 695 627 695 603 695 c 128,-1,104
 579 695 579 695 565 695 c 0,105,106
 543 695 543 695 530.5 692.5 c 128,-1,107
 518 690 518 690 511.5 682 c 128,-1,108
 505 674 505 674 503 659 c 128,-1,109
 501 644 501 644 501 618 c 2,110,-1
 501 215 l 2,111,112
 501 186 501 186 504 164 c 128,-1,113
 507 142 507 142 514.5 125.5 c 128,-1,114
 522 109 522 109 534.5 96.5 c 128,-1,115
 547 84 547 84 565 73 c 0,116,117
 579 65 579 65 596.5 57.5 c 128,-1,118
 614 50 614 50 629 50 c 2,119,-1
 786 50 l 2,120,121
 809 50 809 50 827.5 50.5 c 128,-1,122
 846 51 846 51 865 52.5 c 128,-1,123
 884 54 884 54 905 57.5 c 128,-1,124
 926 61 926 61 954 67 c 0,125,126
 984 74 984 74 1010 91 c 128,-1,127
 1036 108 1036 108 1059.5 132 c 128,-1,128
 1083 156 1083 156 1104 186 c 128,-1,129
 1125 216 1125 216 1144 249 c 0,130,131
 1147 254 1147 254 1155 270.5 c 128,-1,132
 1163 287 1163 287 1172 296 c 0,133,134
 1173 298 1173 298 1177 298 c 256,135,136
 1181 298 1181 298 1184 291 c 0,137,138
 1191 278 1191 278 1191 239 c 0,139,140
 1191 227 1191 227 1184 202.5 c 128,-1,141
 1177 178 1177 178 1172 156 c 0,142,143
 1167 138 1167 138 1164 111 c 128,-1,144
 1161 84 1161 84 1156 58.5 c 128,-1,145
 1151 33 1151 33 1141.5 15 c 128,-1,146
 1132 -3 1132 -3 1116 -3 c 0,147,148
 1110 -3 1110 -3 1106 -2.5 c 128,-1,149
 1102 -2 1102 -2 1099 -2 c 0,150,151
 1096 0 1096 0 1082 0 c 2,152,-1
 345 0 l 2,153,154
 322 0 322 0 289.5 -1.5 c 128,-1,155
 257 -3 257 -3 224 -4.5 c 128,-1,156
 191 -6 191 -6 161.5 -7.5 c 128,-1,157
 132 -9 132 -9 115 -9 c 2,158,-1
 87 -9 l 2,159,160
 76 -9 76 -9 65 -4.5 c 128,-1,161
 54 0 54 0 54 10 c 0,162,163
 54 19 54 19 56.5 28 c 128,-1,164
 59 37 59 37 68 42 c 0,165,166
 70 43 70 43 77.5 44 c 128,-1,167
 85 45 85 45 94 46 c 128,-1,168
 103 47 103 47 111 47.5 c 128,-1,169
 119 48 119 48 123 48 c 0,170,171
 147 50 147 50 163 51.5 c 128,-1,172
 179 53 179 53 201 61 c 0,173,174
 244 74 244 74 266 95.5 c 128,-1,175
 288 117 288 117 288 164 c 2,176,-1
 288 1322 l 2,0,1
EndSplineSet
Validated: 1
EndChar

StartChar: F
Encoding: 70 70 41
Width: 1098
Flags: W
LayerCount: 2
Fore
SplineSet
284 83 m 2,0,-1
 284 1348 l 2,1,2
 284 1359 284 1359 269.5 1367 c 128,-1,3
 255 1375 255 1375 232 1380.5 c 128,-1,4
 209 1386 209 1386 181.5 1389.5 c 128,-1,5
 154 1393 154 1393 128 1395.5 c 128,-1,6
 102 1398 102 1398 80 1400 c 128,-1,7
 58 1402 58 1402 48 1405 c 0,8,9
 35 1406 35 1406 35 1420 c 0,10,11
 35 1427 35 1427 44.5 1429.5 c 128,-1,12
 54 1432 54 1432 61 1432 c 2,13,-1
 358 1432 l 2,14,15
 386 1432 386 1432 429 1435 c 128,-1,16
 472 1438 472 1438 521 1441 c 128,-1,17
 570 1444 570 1444 621 1447 c 128,-1,18
 672 1450 672 1450 716 1450 c 2,19,-1
 976 1450 l 2,20,21
 977 1451 977 1451 988 1451 c 2,22,-1
 1009 1451 l 2,23,24
 1024 1451 1024 1451 1028.5 1436.5 c 128,-1,25
 1033 1422 1033 1422 1033 1410 c 0,26,27
 1037 1358 1037 1358 1042 1303.5 c 128,-1,28
 1047 1249 1047 1249 1047 1197 c 0,29,30
 1047 1186 1047 1186 1040.5 1178.5 c 128,-1,31
 1034 1171 1034 1171 1022 1171 c 0,32,33
 1014 1171 1014 1171 1006 1174.5 c 128,-1,34
 998 1178 998 1178 991 1194 c 0,35,36
 983 1211 983 1211 973 1232 c 128,-1,37
 963 1253 963 1253 951 1273 c 128,-1,38
 939 1293 939 1293 926 1309.5 c 128,-1,39
 913 1326 913 1326 901 1334 c 0,40,41
 868 1357 868 1357 833 1370 c 128,-1,42
 798 1383 798 1383 760.5 1389 c 128,-1,43
 723 1395 723 1395 684 1396.5 c 128,-1,44
 645 1398 645 1398 604 1398 c 2,45,-1
 535 1398 l 2,46,47
 510 1398 510 1398 493.5 1390.5 c 128,-1,48
 477 1383 477 1383 477 1353 c 2,49,-1
 477 791 l 2,50,51
 477 780 477 780 486 775 c 128,-1,52
 495 770 495 770 500 768 c 0,53,54
 521 771 521 771 545 772 c 128,-1,55
 569 773 569 773 592 773 c 0,56,57
 628 773 628 773 664.5 774 c 128,-1,58
 701 775 701 775 733 779.5 c 128,-1,59
 765 784 765 784 790.5 793 c 128,-1,60
 816 802 816 802 829 818 c 0,61,62
 833 824 833 824 837.5 837 c 128,-1,63
 842 850 842 850 846 865 c 128,-1,64
 850 880 850 880 853.5 893 c 128,-1,65
 857 906 857 906 860 912 c 0,66,67
 865 927 865 927 866 944.5 c 128,-1,68
 867 962 867 962 869 977 c 128,-1,69
 871 992 871 992 878 1002 c 128,-1,70
 885 1012 885 1012 903 1012 c 0,71,72
 925 1012 925 1012 929.5 995 c 128,-1,73
 934 978 934 978 934 960 c 2,74,-1
 934 576 l 2,75,76
 934 571 934 571 934 565.5 c 128,-1,77
 934 560 934 560 936 554 c 0,78,79
 938 538 938 538 938.5 525.5 c 128,-1,80
 939 513 939 513 939 509 c 0,81,82
 939 498 939 498 933.5 489 c 128,-1,83
 928 480 928 480 917 477 c 0,84,85
 904 477 904 477 896 497 c 0,86,87
 886 523 886 523 883 552.5 c 128,-1,88
 880 582 880 582 873 609.5 c 128,-1,89
 866 637 866 637 851.5 660.5 c 128,-1,90
 837 684 837 684 804 699 c 0,91,92
 792 705 792 705 774 709 c 128,-1,93
 756 713 756 713 736.5 715.5 c 128,-1,94
 717 718 717 718 698 719.5 c 128,-1,95
 679 721 679 721 666 721 c 0,96,97
 661 721 661 721 636.5 722 c 128,-1,98
 612 723 612 723 585 723 c 0,99,100
 556 723 556 723 532 721.5 c 128,-1,101
 508 720 508 720 503 716 c 0,102,103
 494 708 494 708 491 702 c 128,-1,104
 488 696 488 696 488 680 c 2,105,-1
 488 86 l 2,106,107
 489 72 489 72 506.5 65.5 c 128,-1,108
 524 59 524 59 549.5 56 c 128,-1,109
 575 53 575 53 604 52 c 128,-1,110
 633 51 633 51 658 48.5 c 128,-1,111
 683 46 683 46 699.5 39 c 128,-1,112
 716 32 716 32 716 17 c 0,113,114
 716 9 716 9 710.5 5 c 128,-1,115
 705 1 705 1 697 -0.5 c 128,-1,116
 689 -2 689 -2 680.5 -2.5 c 128,-1,117
 672 -3 672 -3 666 -3 c 0,118,119
 613 -3 613 -3 571 -2 c 128,-1,120
 529 -1 529 -1 491 0.5 c 128,-1,121
 453 2 453 2 417 3.5 c 128,-1,122
 381 5 381 5 341 5 c 0,123,124
 318 5 318 5 295 3.5 c 128,-1,125
 272 2 272 2 247 0 c 0,126,127
 200 -3 200 -3 152 -3 c 2,128,-1
 102 -3 l 2,129,130
 97 -3 97 -3 91 -1.5 c 128,-1,131
 85 0 85 0 85 9 c 0,132,133
 85 19 85 19 91 23 c 128,-1,134
 97 27 97 27 114 31 c 0,135,136
 142 37 142 37 172 39.5 c 128,-1,137
 202 42 202 42 227 45.5 c 128,-1,138
 252 49 252 49 268 57 c 128,-1,139
 284 65 284 65 284 83 c 2,0,-1
EndSplineSet
Validated: 1
EndChar

StartChar: G
Encoding: 71 71 42
Width: 1450
Flags: W
LayerCount: 2
Fore
SplineSet
89 687 m 0,0,1
 89 809 89 809 113 918 c 128,-1,2
 137 1027 137 1027 186 1118.5 c 128,-1,3
 235 1210 235 1210 309.5 1280.5 c 128,-1,4
 384 1351 384 1351 485 1396 c 0,5,6
 557 1428 557 1428 632 1443 c 128,-1,7
 707 1458 707 1458 788 1458 c 0,8,9
 839 1458 839 1458 889.5 1454 c 128,-1,10
 940 1450 940 1450 986.5 1438.5 c 128,-1,11
 1033 1427 1033 1427 1074 1406.5 c 128,-1,12
 1115 1386 1115 1386 1148 1353 c 0,13,14
 1162 1341 1162 1341 1175 1341 c 0,15,16
 1180 1341 1180 1341 1186 1348 c 128,-1,17
 1192 1355 1192 1355 1197 1364.5 c 128,-1,18
 1202 1374 1202 1374 1206.5 1384 c 128,-1,19
 1211 1394 1211 1394 1214 1400 c 0,20,21
 1222 1417 1222 1417 1236 1417 c 0,22,23
 1248 1417 1248 1417 1254 1411 c 128,-1,24
 1260 1405 1260 1405 1262 1396 c 2,25,-1
 1262 1341 l 2,26,27
 1262 1317 1262 1317 1261 1290.5 c 128,-1,28
 1260 1264 1260 1264 1258.5 1238.5 c 128,-1,29
 1257 1213 1257 1213 1256 1189.5 c 128,-1,30
 1255 1166 1255 1166 1255 1149 c 2,31,-1
 1255 986 l 2,32,33
 1255 967 1255 967 1243 967 c 0,34,35
 1237 967 1237 967 1230 979 c 128,-1,36
 1223 991 1223 991 1216 1007.5 c 128,-1,37
 1209 1024 1209 1024 1203 1040.5 c 128,-1,38
 1197 1057 1197 1057 1193 1066 c 0,39,40
 1176 1114 1176 1114 1150.5 1159.5 c 128,-1,41
 1125 1205 1125 1205 1096.5 1243 c 128,-1,42
 1068 1281 1068 1281 1038 1309.5 c 128,-1,43
 1008 1338 1008 1338 982 1353 c 0,44,45
 930 1383 930 1383 878 1394 c 128,-1,46
 826 1405 826 1405 788 1405 c 0,47,48
 746 1405 746 1405 715.5 1399 c 128,-1,49
 685 1393 685 1393 661.5 1383 c 128,-1,50
 638 1373 638 1373 621 1361.5 c 128,-1,51
 604 1350 604 1350 591 1339 c 0,52,53
 526 1285 526 1285 481 1222.5 c 128,-1,54
 436 1160 436 1160 407 1096 c 128,-1,55
 378 1032 378 1032 362 971 c 128,-1,56
 346 910 346 910 338.5 860 c 128,-1,57
 331 810 331 810 329.5 774.5 c 128,-1,58
 328 739 328 739 328 727 c 0,59,60
 328 710 328 710 329.5 668 c 128,-1,61
 331 626 331 626 338.5 570 c 128,-1,62
 346 514 346 514 363 448.5 c 128,-1,63
 380 383 380 383 411.5 319 c 128,-1,64
 443 255 443 255 491.5 197.5 c 128,-1,65
 540 140 540 140 610 99 c 0,66,67
 664 66 664 66 721.5 54.5 c 128,-1,68
 779 43 779 43 840 43 c 0,69,70
 867 43 867 43 893 48 c 128,-1,71
 919 53 919 53 938.5 62.5 c 128,-1,72
 958 72 958 72 970 85.5 c 128,-1,73
 982 99 982 99 982 116 c 2,74,-1
 982 533 l 2,75,76
 982 550 982 550 968 559 c 128,-1,77
 954 568 954 568 932.5 573 c 128,-1,78
 911 578 911 578 886 580 c 128,-1,79
 861 582 861 582 839.5 586 c 128,-1,80
 818 590 818 590 804 597 c 128,-1,81
 790 604 790 604 790 618 c 0,82,83
 790 633 790 633 810.5 639 c 128,-1,84
 831 645 831 645 855 645 c 0,85,86
 868 645 868 645 893 641.5 c 128,-1,87
 918 638 918 638 966 632.5 c 128,-1,88
 1014 627 1014 627 1090.5 621.5 c 128,-1,89
 1167 616 1167 616 1283 612 c 0,90,91
 1291 612 1291 612 1307.5 610 c 128,-1,92
 1324 608 1324 608 1340 604 c 128,-1,93
 1356 600 1356 600 1368 593.5 c 128,-1,94
 1380 587 1380 587 1380 578 c 0,95,96
 1380 566 1380 566 1358 558.5 c 128,-1,97
 1336 551 1336 551 1308 546.5 c 128,-1,98
 1280 542 1280 542 1253.5 539.5 c 128,-1,99
 1227 537 1227 537 1217 535 c 1,100,101
 1206 524 1206 524 1203 519 c 128,-1,102
 1200 514 1200 514 1200 505 c 2,103,-1
 1200 131 l 2,104,105
 1200 118 1200 118 1219 118 c 0,106,107
 1236 118 1236 118 1251 123 c 128,-1,108
 1266 128 1266 128 1280.5 133.5 c 128,-1,109
 1295 139 1295 139 1309.5 144 c 128,-1,110
 1324 149 1324 149 1340 149 c 0,111,112
 1348 149 1348 149 1354.5 146.5 c 128,-1,113
 1361 144 1361 144 1361 135 c 256,114,115
 1361 126 1361 126 1353 118 c 128,-1,116
 1345 110 1345 110 1334.5 104 c 128,-1,117
 1324 98 1324 98 1314 94 c 128,-1,118
 1304 90 1304 90 1300 88 c 0,119,120
 1198 32 1198 32 1084.5 5 c 128,-1,121
 971 -22 971 -22 854 -22 c 0,122,123
 779 -22 779 -22 700.5 -10 c 128,-1,124
 622 2 622 2 547.5 28 c 128,-1,125
 473 54 473 54 405.5 95 c 128,-1,126
 338 136 338 136 286 194 c 0,127,128
 241 245 241 245 205 305 c 128,-1,129
 169 365 169 365 143 429 c 128,-1,130
 117 493 117 493 103 559 c 128,-1,131
 89 625 89 625 89 687 c 0,0,1
EndSplineSet
Validated: 1
EndChar

StartChar: H
Encoding: 72 72 43
Width: 1620
Flags: W
LayerCount: 2
Fore
SplineSet
77 19 m 0,0,1
 77 49 77 49 115 52 c 2,2,-1
 255 64 l 2,3,4
 262 66 262 66 271.5 72.5 c 128,-1,5
 281 79 281 79 281 90 c 2,6,-1
 281 1318 l 2,7,8
 281 1348 281 1348 275 1358.5 c 128,-1,9
 269 1369 269 1369 255 1374 c 0,10,11
 236 1379 236 1379 213.5 1382.5 c 128,-1,12
 191 1386 191 1386 170 1389 c 128,-1,13
 149 1392 149 1392 132 1394.5 c 128,-1,14
 115 1397 115 1397 108 1401 c 0,15,16
 103 1403 103 1403 101.5 1409.5 c 128,-1,17
 100 1416 100 1416 100 1420 c 0,18,19
 100 1428 100 1428 106.5 1432 c 128,-1,20
 113 1436 113 1436 122 1438 c 128,-1,21
 131 1440 131 1440 141 1440.5 c 128,-1,22
 151 1441 151 1441 159 1441 c 2,23,-1
 210 1441 l 2,24,25
 235 1441 235 1441 253.5 1440 c 128,-1,26
 272 1439 272 1439 288.5 1437.5 c 128,-1,27
 305 1436 305 1436 320 1435 c 128,-1,28
 335 1434 335 1434 352 1434 c 0,29,30
 393 1434 393 1434 430 1436 c 128,-1,31
 467 1438 467 1438 505 1440 c 128,-1,32
 543 1442 543 1442 584 1444 c 128,-1,33
 625 1446 625 1446 674 1446 c 0,34,35
 678 1446 678 1446 685.5 1444.5 c 128,-1,36
 693 1443 693 1443 700 1440 c 128,-1,37
 707 1437 707 1437 712 1432.5 c 128,-1,38
 717 1428 717 1428 717 1422 c 0,39,40
 717 1411 717 1411 708.5 1406.5 c 128,-1,41
 700 1402 700 1402 693 1398 c 0,42,43
 685 1398 685 1398 665.5 1397 c 128,-1,44
 646 1396 646 1396 624 1394 c 128,-1,45
 602 1392 602 1392 582.5 1389.5 c 128,-1,46
 563 1387 563 1387 556 1384 c 0,47,48
 548 1384 548 1384 537 1381.5 c 128,-1,49
 526 1379 526 1379 515 1373.5 c 128,-1,50
 504 1368 504 1368 496.5 1358.5 c 128,-1,51
 489 1349 489 1349 489 1336 c 2,52,-1
 489 794 l 2,53,54
 489 770 489 770 513 770 c 2,55,-1
 1095 770 l 2,56,57
 1104 770 1104 770 1111.5 775.5 c 128,-1,58
 1119 781 1119 781 1119 792 c 2,59,-1
 1119 1315 l 2,60,61
 1119 1340 1119 1340 1107.5 1355 c 128,-1,62
 1096 1370 1096 1370 1078.5 1378 c 128,-1,63
 1061 1386 1061 1386 1040.5 1388.5 c 128,-1,64
 1020 1391 1020 1391 1001 1391 c 2,65,-1
 911 1391 l 2,66,67
 898 1391 898 1391 886.5 1400.5 c 128,-1,68
 875 1410 875 1410 875 1422 c 0,69,70
 875 1435 875 1435 886 1440.5 c 128,-1,71
 897 1446 897 1446 913 1446 c 2,72,-1
 972 1446 l 2,73,74
 1019 1446 1019 1446 1053 1445 c 128,-1,75
 1087 1444 1087 1444 1116 1442.5 c 128,-1,76
 1145 1441 1145 1441 1172.5 1440 c 128,-1,77
 1200 1439 1200 1439 1235 1439 c 0,78,79
 1263 1439 1263 1439 1285.5 1440 c 128,-1,80
 1308 1441 1308 1441 1333 1442.5 c 128,-1,81
 1358 1444 1358 1444 1389 1445 c 128,-1,82
 1420 1446 1420 1446 1465 1446 c 2,83,-1
 1537 1446 l 2,84,85
 1553 1446 1553 1446 1559 1439 c 128,-1,86
 1565 1432 1565 1432 1565 1427 c 0,87,88
 1565 1418 1565 1418 1553 1411 c 128,-1,89
 1541 1404 1541 1404 1520 1400 c 0,90,91
 1491 1394 1491 1394 1458.5 1392 c 128,-1,92
 1426 1390 1426 1390 1397.5 1383.5 c 128,-1,93
 1369 1377 1369 1377 1350.5 1362 c 128,-1,94
 1332 1347 1332 1347 1332 1315 c 2,95,-1
 1332 170 l 2,96,97
 1332 131 1332 131 1345 111.5 c 128,-1,98
 1358 92 1358 92 1380.5 83 c 128,-1,99
 1403 74 1403 74 1433 71.5 c 128,-1,100
 1463 69 1463 69 1498 64 c 0,101,102
 1521 59 1521 59 1536 52 c 128,-1,103
 1551 45 1551 45 1551 24 c 0,104,105
 1551 7 1551 7 1539.5 0 c 128,-1,106
 1528 -7 1528 -7 1510 -7 c 2,107,-1
 1454 -7 l 2,108,109
 1437 -7 1437 -7 1408.5 -6 c 128,-1,110
 1380 -5 1380 -5 1350 -3.5 c 128,-1,111
 1320 -2 1320 -2 1294.5 -1 c 128,-1,112
 1269 0 1269 0 1259 0 c 0,113,114
 1208 0 1208 0 1174.5 -1 c 128,-1,115
 1141 -2 1141 -2 1109 -3.5 c 128,-1,116
 1077 -5 1077 -5 1038.5 -6 c 128,-1,117
 1000 -7 1000 -7 939 -7 c 0,118,119
 922 -7 922 -7 910.5 -0.5 c 128,-1,120
 899 6 899 6 899 24 c 0,121,122
 899 31 899 31 904.5 41.5 c 128,-1,123
 910 52 910 52 922 54 c 2,124,-1
 1060 71 l 2,125,126
 1081 74 1081 74 1092.5 83.5 c 128,-1,127
 1104 93 1104 93 1110 108.5 c 128,-1,128
 1116 124 1116 124 1117.5 144 c 128,-1,129
 1119 164 1119 164 1119 187 c 2,130,-1
 1119 664 l 2,131,132
 1119 678 1119 678 1109.5 690 c 128,-1,133
 1100 702 1100 702 1084 702 c 2,134,-1
 513 702 l 2,135,136
 502 702 502 702 495.5 698 c 128,-1,137
 489 694 489 694 489 683 c 2,138,-1
 489 147 l 2,139,140
 489 111 489 111 511.5 93 c 128,-1,141
 534 75 534 75 566 67 c 128,-1,142
 598 59 598 59 633 57.5 c 128,-1,143
 668 56 668 56 693 52 c 0,144,145
 705 48 705 48 707.5 39 c 128,-1,146
 710 30 710 30 710 21 c 0,147,148
 710 0 710 0 696.5 -3.5 c 128,-1,149
 683 -7 683 -7 669 -7 c 0,150,151
 628 -7 628 -7 599.5 -6 c 128,-1,152
 571 -5 571 -5 541 -4.5 c 128,-1,153
 511 -4 511 -4 472 -3 c 128,-1,154
 433 -2 433 -2 371 -2 c 0,155,156
 347 -2 347 -2 325 -3 c 128,-1,157
 303 -4 303 -4 280.5 -4.5 c 128,-1,158
 258 -5 258 -5 234.5 -6 c 128,-1,159
 211 -7 211 -7 183 -7 c 2,160,-1
 110 -7 l 1,161,162
 94 -3 94 -3 85.5 0 c 128,-1,163
 77 3 77 3 77 19 c 0,0,1
EndSplineSet
Validated: 1
EndChar

StartChar: I
Encoding: 73 73 44
Width: 799
Flags: W
LayerCount: 2
Fore
SplineSet
283 145 m 2,0,-1
 283 1272 l 2,1,2
 283 1314 283 1314 268 1335.5 c 128,-1,3
 253 1357 253 1357 230.5 1366.5 c 128,-1,4
 208 1376 208 1376 182 1377 c 128,-1,5
 156 1378 156 1378 133.5 1379.5 c 128,-1,6
 111 1381 111 1381 96 1387 c 128,-1,7
 81 1393 81 1393 81 1412 c 0,8,9
 81 1425 81 1425 93.5 1428.5 c 128,-1,10
 106 1432 106 1432 117 1432 c 2,11,-1
 173 1432 l 2,12,13
 198 1432 198 1432 218.5 1430.5 c 128,-1,14
 239 1429 239 1429 257.5 1427 c 128,-1,15
 276 1425 276 1425 295.5 1423.5 c 128,-1,16
 315 1422 315 1422 339 1422 c 0,17,18
 388 1422 388 1422 425 1424.5 c 128,-1,19
 462 1427 462 1427 496 1430 c 128,-1,20
 530 1433 530 1433 564 1435.5 c 128,-1,21
 598 1438 598 1438 640 1438 c 2,22,-1
 707 1438 l 2,23,24
 721 1438 721 1438 730 1432.5 c 128,-1,25
 739 1427 739 1427 744 1426 c 1,26,27
 748 1415 748 1415 749 1414 c 128,-1,28
 750 1413 750 1413 750 1405 c 0,29,30
 750 1394 750 1394 732.5 1387 c 128,-1,31
 715 1380 715 1380 692.5 1375.5 c 128,-1,32
 670 1371 670 1371 647 1368.5 c 128,-1,33
 624 1366 624 1366 614 1363 c 0,34,35
 598 1360 598 1360 580 1357.5 c 128,-1,36
 562 1355 562 1355 547 1349.5 c 128,-1,37
 532 1344 532 1344 522 1333.5 c 128,-1,38
 512 1323 512 1323 512 1304 c 2,39,-1
 512 116 l 2,40,41
 512 95 512 95 527.5 83.5 c 128,-1,42
 543 72 543 72 566 66.5 c 128,-1,43
 589 61 589 61 616.5 59 c 128,-1,44
 644 57 644 57 667 54 c 128,-1,45
 690 51 690 51 705.5 44.5 c 128,-1,46
 721 38 721 38 721 24 c 0,47,48
 721 13 721 13 715 10 c 128,-1,49
 709 7 709 7 704 5 c 0,50,51
 690 1 690 1 670 -2 c 128,-1,52
 650 -5 650 -5 635 -5 c 0,53,54
 599 -5 599 -5 569 -3 c 128,-1,55
 539 -1 539 -1 511 1 c 128,-1,56
 483 3 483 3 455 5 c 128,-1,57
 427 7 427 7 394 7 c 0,58,59
 378 7 378 7 349.5 6 c 128,-1,60
 321 5 321 5 288.5 3.5 c 128,-1,61
 256 2 256 2 224 1 c 128,-1,62
 192 0 192 0 169 0 c 2,63,-1
 90 0 l 2,64,65
 85 0 85 0 76 5 c 128,-1,66
 67 10 67 10 67 21 c 0,67,68
 67 41 67 41 84 45 c 0,69,70
 106 51 106 51 123.5 54.5 c 128,-1,71
 141 58 141 58 160 61.5 c 128,-1,72
 179 65 179 65 202 69 c 128,-1,73
 225 73 225 73 259 80 c 0,74,75
 276 85 276 85 279.5 102 c 128,-1,76
 283 119 283 119 283 145 c 2,0,-1
EndSplineSet
Validated: 1
EndChar

StartChar: J
Encoding: 74 74 45
Width: 771
Flags: W
LayerCount: 2
Fore
SplineSet
-130 -298 m 0,0,1
 -130 -280 -130 -280 -124.5 -264 c 128,-1,2
 -119 -248 -119 -248 -108.5 -235.5 c 128,-1,3
 -98 -223 -98 -223 -82.5 -215.5 c 128,-1,4
 -67 -208 -67 -208 -48 -208 c 0,5,6
 -22 -208 -22 -208 -6 -219.5 c 128,-1,7
 10 -231 10 -231 20 -248 c 128,-1,8
 30 -265 30 -265 38 -285.5 c 128,-1,9
 46 -306 46 -306 56 -323 c 128,-1,10
 66 -340 66 -340 81.5 -351.5 c 128,-1,11
 97 -363 97 -363 123 -363 c 0,12,13
 162 -363 162 -363 188 -348.5 c 128,-1,14
 214 -334 214 -334 230 -306 c 0,15,16
 250 -272 250 -272 261 -228 c 128,-1,17
 272 -184 272 -184 277 -136 c 128,-1,18
 282 -88 282 -88 283 -40.5 c 128,-1,19
 284 7 284 7 284 48 c 2,20,-1
 284 1299 l 2,21,22
 284 1318 284 1318 274.5 1330.5 c 128,-1,23
 265 1343 265 1343 250.5 1351 c 128,-1,24
 236 1359 236 1359 218.5 1363.5 c 128,-1,25
 201 1368 201 1368 185 1372 c 0,26,27
 163 1377 163 1377 131.5 1378.5 c 128,-1,28
 100 1380 100 1380 66 1391 c 0,29,30
 54 1394 54 1394 54 1412 c 0,31,32
 54 1434 54 1434 80 1434 c 0,33,34
 168 1434 168 1434 246.5 1430 c 128,-1,35
 325 1426 325 1426 389 1426 c 0,36,37
 437 1426 437 1426 470 1427 c 128,-1,38
 503 1428 503 1428 532.5 1429.5 c 128,-1,39
 562 1431 562 1431 594 1432.5 c 128,-1,40
 626 1434 626 1434 671 1434 c 0,41,42
 682 1434 682 1434 691.5 1431.5 c 128,-1,43
 701 1429 701 1429 701 1420 c 0,44,45
 701 1397 701 1397 673 1387 c 1,46,47
 630 1378 630 1378 596 1374.5 c 128,-1,48
 562 1371 562 1371 538.5 1359.5 c 128,-1,49
 515 1348 515 1348 502.5 1322 c 128,-1,50
 490 1296 490 1296 490 1242 c 2,51,-1
 490 163 l 2,52,53
 490 -22 490 -22 401 -194 c 0,54,55
 376 -245 376 -245 339.5 -287 c 128,-1,56
 303 -329 303 -329 258 -359.5 c 128,-1,57
 213 -390 213 -390 161 -407 c 128,-1,58
 109 -424 109 -424 54 -424 c 0,59,60
 26 -424 26 -424 -6.5 -417.5 c 128,-1,61
 -39 -411 -39 -411 -66.5 -396.5 c 128,-1,62
 -94 -382 -94 -382 -112 -358 c 128,-1,63
 -130 -334 -130 -334 -130 -298 c 0,0,1
EndSplineSet
Validated: 1
EndChar

StartChar: K
Encoding: 75 75 46
Width: 1489
Flags: W
LayerCount: 2
Fore
SplineSet
284 99 m 2,0,-1
 284 1220 l 2,1,2
 284 1252 284 1252 280.5 1284.5 c 128,-1,3
 277 1317 277 1317 270 1344 c 0,4,5
 264 1362 264 1362 246 1371 c 128,-1,6
 228 1380 228 1380 204.5 1384 c 128,-1,7
 181 1388 181 1388 155.5 1389 c 128,-1,8
 130 1390 130 1390 108.5 1393 c 128,-1,9
 87 1396 87 1396 73 1402.5 c 128,-1,10
 59 1409 59 1409 59 1424 c 0,11,12
 59 1430 59 1430 63.5 1438 c 128,-1,13
 68 1446 68 1446 80 1446 c 2,14,-1
 116 1446 l 2,15,16
 161 1446 161 1446 193 1444.5 c 128,-1,17
 225 1443 225 1443 253 1441.5 c 128,-1,18
 281 1440 281 1440 309 1439 c 128,-1,19
 337 1438 337 1438 374 1438 c 0,20,21
 400 1438 400 1438 424 1439 c 128,-1,22
 448 1440 448 1440 472.5 1440.5 c 128,-1,23
 497 1441 497 1441 523 1442 c 128,-1,24
 549 1443 549 1443 580 1443 c 2,25,-1
 645 1443 l 2,26,27
 656 1443 656 1443 664.5 1441 c 128,-1,28
 673 1439 673 1439 673 1426 c 0,29,30
 673 1410 673 1410 659 1403 c 128,-1,31
 645 1396 645 1396 624.5 1393.5 c 128,-1,32
 604 1391 604 1391 579.5 1389.5 c 128,-1,33
 555 1388 555 1388 534.5 1383.5 c 128,-1,34
 514 1379 514 1379 500 1368.5 c 128,-1,35
 486 1358 486 1358 486 1337 c 2,36,-1
 486 730 l 1,37,38
 494 730 494 730 505 735.5 c 128,-1,39
 516 741 516 741 527 750 c 128,-1,40
 538 759 538 759 548.5 770 c 128,-1,41
 559 781 559 781 567 792 c 0,42,43
 581 812 581 812 592 828.5 c 128,-1,44
 603 845 603 845 613.5 859.5 c 128,-1,45
 624 874 624 874 633.5 887.5 c 128,-1,46
 643 901 643 901 654 915 c 0,47,48
 715 996 715 996 775.5 1070 c 128,-1,49
 836 1144 836 1144 901 1221 c 0,50,51
 921 1247 921 1247 933.5 1273.5 c 128,-1,52
 946 1300 946 1300 946 1329 c 0,53,54
 946 1344 946 1344 932 1360.5 c 128,-1,55
 918 1377 918 1377 900 1382 c 0,56,57
 888 1386 888 1386 871.5 1388.5 c 128,-1,58
 855 1391 855 1391 837 1393 c 128,-1,59
 819 1395 819 1395 801.5 1397.5 c 128,-1,60
 784 1400 784 1400 770 1405 c 0,61,62
 762 1407 762 1407 758 1413 c 128,-1,63
 754 1419 754 1419 754 1427 c 0,64,65
 754 1431 754 1431 755.5 1433 c 128,-1,66
 757 1435 757 1435 759 1438 c 0,67,68
 762 1440 762 1440 768.5 1441 c 128,-1,69
 775 1442 775 1442 782 1442.5 c 128,-1,70
 789 1443 789 1443 795 1443 c 128,-1,71
 801 1443 801 1443 803 1443 c 0,72,73
 840 1443 840 1443 869.5 1441.5 c 128,-1,74
 899 1440 899 1440 926 1437.5 c 128,-1,75
 953 1435 953 1435 978 1433.5 c 128,-1,76
 1003 1432 1003 1432 1031 1432 c 0,77,78
 1079 1432 1079 1432 1127 1437.5 c 128,-1,79
 1175 1443 1175 1443 1208 1443 c 2,80,-1
 1280 1443 l 2,81,82
 1305 1443 1305 1443 1318 1434 c 0,83,84
 1327 1429 1327 1429 1327 1424 c 0,85,86
 1327 1421 1327 1421 1323 1419 c 0,87,88
 1283 1403 1283 1403 1240.5 1391 c 128,-1,89
 1198 1379 1198 1379 1157 1362 c 0,90,91
 1145 1357 1145 1357 1131.5 1349 c 128,-1,92
 1118 1341 1118 1341 1104 1331.5 c 128,-1,93
 1090 1322 1090 1322 1078 1312.5 c 128,-1,94
 1066 1303 1066 1303 1057 1294 c 0,95,96
 1023 1261 1023 1261 1001 1240 c 128,-1,97
 979 1219 979 1219 963.5 1203 c 128,-1,98
 948 1187 948 1187 935.5 1174 c 128,-1,99
 923 1161 923 1161 908 1145 c 0,100,101
 884 1118 884 1118 861.5 1092.5 c 128,-1,102
 839 1067 839 1067 815.5 1040 c 128,-1,103
 792 1013 792 1013 767 983.5 c 128,-1,104
 742 954 742 954 713 920 c 0,105,106
 699 906 699 906 687.5 893.5 c 128,-1,107
 676 881 676 881 676 865 c 0,108,109
 676 861 676 861 686.5 846.5 c 128,-1,110
 697 832 697 832 713 811.5 c 128,-1,111
 729 791 729 791 748.5 767.5 c 128,-1,112
 768 744 768 744 786 722 c 128,-1,113
 804 700 804 700 818.5 682 c 128,-1,114
 833 664 833 664 839 656 c 0,115,116
 894 596 894 596 943 534.5 c 128,-1,117
 992 473 992 473 1047 407 c 0,118,119
 1063 388 1063 388 1090 357 c 128,-1,120
 1117 326 1117 326 1149 289.5 c 128,-1,121
 1181 253 1181 253 1216.5 216 c 128,-1,122
 1252 179 1252 179 1285.5 146.5 c 128,-1,123
 1319 114 1319 114 1348.5 91 c 128,-1,124
 1378 68 1378 68 1398 61 c 0,125,126
 1408 56 1408 56 1435.5 49.5 c 128,-1,127
 1463 43 1463 43 1492 35 c 128,-1,128
 1521 27 1521 27 1543.5 18.5 c 128,-1,129
 1566 10 1566 10 1566 2 c 0,130,131
 1566 -5 1566 -5 1560 -9 c 128,-1,132
 1554 -13 1554 -13 1545.5 -15.5 c 128,-1,133
 1537 -18 1537 -18 1526.5 -18.5 c 128,-1,134
 1516 -19 1516 -19 1507 -19 c 2,135,-1
 1484 -19 l 2,136,137
 1464 -19 1464 -19 1446.5 -17 c 128,-1,138
 1429 -15 1429 -15 1411 -12 c 128,-1,139
 1393 -9 1393 -9 1371.5 -7 c 128,-1,140
 1350 -5 1350 -5 1323 -5 c 2,141,-1
 1131 -5 l 2,142,143
 1122 -5 1122 -5 1112 3 c 0,144,145
 1072 54 1072 54 1031 101.5 c 128,-1,146
 990 149 990 149 947 197.5 c 128,-1,147
 904 246 904 246 860 296.5 c 128,-1,148
 816 347 816 347 770 403 c 0,149,150
 717 469 717 469 682 513 c 128,-1,151
 647 557 647 557 618.5 590 c 128,-1,152
 590 623 590 623 563 650 c 128,-1,153
 536 677 536 677 500 708 c 0,154,155
 498 709 498 709 496 710 c 128,-1,156
 494 711 494 711 490 711 c 256,157,158
 486 711 486 711 486 704 c 2,159,-1
 486 125 l 2,160,161
 486 98 486 98 507.5 81 c 128,-1,162
 529 64 529 64 558.5 54.5 c 128,-1,163
 588 45 588 45 617.5 41.5 c 128,-1,164
 647 38 647 38 663 38 c 0,165,166
 678 38 678 38 685 32 c 128,-1,167
 692 26 692 26 692 17 c 0,168,169
 692 0 692 0 678 -3.5 c 128,-1,170
 664 -7 664 -7 644 -7 c 0,171,172
 599 -7 599 -7 565 -5.5 c 128,-1,173
 531 -4 531 -4 502.5 -2 c 128,-1,174
 474 0 474 0 446.5 1.5 c 128,-1,175
 419 3 419 3 388 3 c 0,176,177
 352 3 352 3 313 2.5 c 128,-1,178
 274 2 274 2 237 1.5 c 128,-1,179
 200 1 200 1 166.5 0.5 c 128,-1,180
 133 0 133 0 107 0 c 0,181,182
 78 0 78 0 78 22 c 0,183,184
 78 29 78 29 79.5 38 c 128,-1,185
 81 47 81 47 90 48 c 0,186,187
 106 50 106 50 125 51 c 128,-1,188
 144 52 144 52 161 52 c 2,189,-1
 183 52 l 2,190,191
 204 52 204 52 227.5 54.5 c 128,-1,192
 251 57 251 57 265 64 c 0,193,194
 284 75 284 75 284 99 c 2,0,-1
EndSplineSet
Validated: 1
EndChar

StartChar: L
Encoding: 76 76 47
Width: 1232
Flags: W
LayerCount: 2
Fore
SplineSet
282 83 m 1,0,-1
 282 784 l 2,1,2
 282 815 282 815 284 869.5 c 128,-1,3
 286 924 286 924 289 987 c 128,-1,4
 292 1050 292 1050 294 1115 c 128,-1,5
 296 1180 296 1180 296 1232 c 0,6,7
 296 1302 296 1302 290 1334 c 0,8,9
 288 1353 288 1353 274.5 1364.5 c 128,-1,10
 261 1376 261 1376 241.5 1382.5 c 128,-1,11
 222 1389 222 1389 197.5 1391.5 c 128,-1,12
 173 1394 173 1394 150.5 1396.5 c 128,-1,13
 128 1399 128 1399 108.5 1401.5 c 128,-1,14
 89 1404 89 1404 78 1410 c 0,15,16
 65 1417 65 1417 65 1427 c 0,17,18
 65 1435 65 1435 66.5 1438 c 128,-1,19
 68 1441 68 1441 72 1443 c 0,20,21
 84 1447 84 1447 95.5 1448.5 c 128,-1,22
 107 1450 107 1450 116 1450 c 2,23,-1
 154 1450 l 2,24,25
 199 1450 199 1450 231.5 1448.5 c 128,-1,26
 264 1447 264 1447 292 1444.5 c 128,-1,27
 320 1442 320 1442 347 1440.5 c 128,-1,28
 374 1439 374 1439 408 1439 c 0,29,30
 445 1439 445 1439 476.5 1443 c 128,-1,31
 508 1447 508 1447 536.5 1452 c 128,-1,32
 565 1457 565 1457 591.5 1461 c 128,-1,33
 618 1465 618 1465 645 1465 c 2,34,-1
 681 1465 l 2,35,36
 692 1465 692 1465 705 1463 c 128,-1,37
 718 1461 718 1461 718 1448 c 0,38,39
 718 1431 718 1431 695 1424 c 0,40,41
 678 1419 678 1419 655.5 1415.5 c 128,-1,42
 633 1412 633 1412 605 1401 c 0,43,44
 579 1395 579 1395 562.5 1388 c 128,-1,45
 546 1381 546 1381 538 1377 c 0,46,47
 527 1370 527 1370 518.5 1359 c 128,-1,48
 510 1348 510 1348 510 1327 c 2,49,-1
 510 121 l 2,50,51
 510 99 510 99 522 87 c 128,-1,52
 534 75 534 75 552.5 69 c 128,-1,53
 571 63 571 63 592.5 62 c 128,-1,54
 614 61 614 61 633 61 c 0,55,56
 655 61 655 61 695 63 c 128,-1,57
 735 65 735 65 779 69 c 128,-1,58
 823 73 823 73 864.5 79.5 c 128,-1,59
 906 86 906 86 932 95 c 0,60,61
 967 107 967 107 996.5 119.5 c 128,-1,62
 1026 132 1026 132 1046 151 c 0,63,64
 1049 153 1049 153 1056 159.5 c 128,-1,65
 1063 166 1063 166 1071.5 175.5 c 128,-1,66
 1080 185 1080 185 1088 196 c 128,-1,67
 1096 207 1096 207 1102 218 c 0,68,69
 1108 226 1108 226 1112.5 232 c 128,-1,70
 1117 238 1117 238 1121 242 c 0,71,72
 1125 247 1125 247 1131 259 c 128,-1,73
 1137 271 1137 271 1144.5 286 c 128,-1,74
 1152 301 1152 301 1160 316.5 c 128,-1,75
 1168 332 1168 332 1176 346 c 0,76,77
 1183 355 1183 355 1189.5 361 c 128,-1,78
 1196 367 1196 367 1207 367 c 256,79,80
 1218 367 1218 367 1219.5 354.5 c 128,-1,81
 1221 342 1221 342 1221 330 c 0,82,83
 1221 306 1221 306 1215.5 281.5 c 128,-1,84
 1210 257 1210 257 1203 233 c 128,-1,85
 1196 209 1196 209 1188 185 c 128,-1,86
 1180 161 1180 161 1176 137 c 0,87,88
 1171 114 1171 114 1169.5 89.5 c 128,-1,89
 1168 65 1168 65 1164.5 44.5 c 128,-1,90
 1161 24 1161 24 1151.5 11 c 128,-1,91
 1142 -2 1142 -2 1121 -2 c 2,92,-1
 437 -2 l 2,93,94
 375 -2 375 -2 333.5 -4.5 c 128,-1,95
 292 -7 292 -7 258 -10.5 c 128,-1,96
 224 -14 224 -14 190.5 -16.5 c 128,-1,97
 157 -19 157 -19 112 -19 c 0,98,99
 95 -19 95 -19 83.5 -16 c 128,-1,100
 72 -13 72 -13 65 0 c 0,101,102
 64 4 64 4 63 6 c 128,-1,103
 62 8 62 8 62 19 c 0,104,105
 62 32 62 32 73.5 37.5 c 128,-1,106
 85 43 85 43 91 45 c 0,107,108
 102 47 102 47 124 47.5 c 128,-1,109
 146 48 146 48 164 50 c 0,110,111
 173 51 173 51 187 53 c 128,-1,112
 201 55 201 55 217.5 59 c 128,-1,113
 234 63 234 63 251 69 c 128,-1,114
 268 75 268 75 282 83 c 1,0,-1
EndSplineSet
Validated: 1
EndChar

StartChar: M
Encoding: 77 77 48
Width: 1874
Flags: W
LayerCount: 2
Fore
SplineSet
305 9 m 0,0,1
 251 9 251 9 202 4.5 c 128,-1,2
 153 0 153 0 94 0 c 2,3,-1
 54 0 l 2,4,5
 45 0 45 0 41 11.5 c 128,-1,6
 37 23 37 23 37 29 c 0,7,8
 37 39 37 39 39.5 46.5 c 128,-1,9
 42 54 42 54 49 55 c 0,10,11
 60 58 60 58 75 60 c 128,-1,12
 90 62 90 62 106 63.5 c 128,-1,13
 122 65 122 65 136.5 65.5 c 128,-1,14
 151 66 151 66 162 66 c 0,15,16
 186 66 186 66 208.5 77 c 128,-1,17
 231 88 231 88 245 104 c 0,18,19
 255 117 255 117 262 129.5 c 128,-1,20
 269 142 269 142 274.5 164 c 128,-1,21
 280 186 280 186 283.5 221 c 128,-1,22
 287 256 287 256 291 313 c 2,23,-1
 338 1171 l 2,24,25
 338 1202 338 1202 331 1233.5 c 128,-1,26
 324 1265 324 1265 308.5 1292.5 c 128,-1,27
 293 1320 293 1320 268 1340 c 128,-1,28
 243 1360 243 1360 207 1368 c 0,29,30
 204 1369 204 1369 191 1370.5 c 128,-1,31
 178 1372 178 1372 163 1374 c 128,-1,32
 148 1376 148 1376 135 1377.5 c 128,-1,33
 122 1379 122 1379 118 1379 c 0,34,35
 98 1383 98 1383 86.5 1387 c 128,-1,36
 75 1391 75 1391 75 1412 c 0,37,38
 75 1421 75 1421 76 1429.5 c 128,-1,39
 77 1438 77 1438 84 1438 c 2,40,-1
 125 1438 l 2,41,42
 151 1438 151 1438 173.5 1436 c 128,-1,43
 196 1434 196 1434 219 1431 c 128,-1,44
 242 1428 242 1428 267.5 1426 c 128,-1,45
 293 1424 293 1424 324 1424 c 2,46,-1
 419 1424 l 2,47,48
 436 1424 436 1424 450.5 1426.5 c 128,-1,49
 465 1429 465 1429 489 1429 c 0,50,51
 507 1429 507 1429 527 1424.5 c 128,-1,52
 547 1420 547 1420 556 1406 c 0,53,54
 573 1386 573 1386 585 1361.5 c 128,-1,55
 597 1337 597 1337 606 1310 c 2,56,-1
 942 426 l 2,57,58
 946 416 946 416 950 409.5 c 128,-1,59
 954 403 954 403 959 403 c 0,60,61
 966 403 966 403 970 411 c 128,-1,62
 974 419 974 419 976 426 c 2,63,-1
 1354 1417 l 2,64,65
 1360 1428 1360 1428 1371.5 1431 c 128,-1,66
 1383 1434 1383 1434 1397 1434 c 0,67,68
 1447 1434 1447 1434 1493.5 1436 c 128,-1,69
 1540 1438 1540 1438 1586.5 1441 c 128,-1,70
 1633 1444 1633 1444 1680.5 1446 c 128,-1,71
 1728 1448 1728 1448 1781 1448 c 0,72,73
 1784 1448 1784 1448 1789.5 1448 c 128,-1,74
 1795 1448 1795 1448 1800.5 1446.5 c 128,-1,75
 1806 1445 1806 1445 1810 1442 c 128,-1,76
 1814 1439 1814 1439 1814 1434 c 0,77,78
 1814 1420 1814 1420 1802 1405.5 c 128,-1,79
 1790 1391 1790 1391 1772 1391 c 0,80,81
 1722 1391 1722 1391 1689 1379 c 128,-1,82
 1656 1367 1656 1367 1622 1330 c 0,83,84
 1607 1315 1607 1315 1598 1296 c 128,-1,85
 1589 1277 1589 1277 1583.5 1255.5 c 128,-1,86
 1578 1234 1578 1234 1576.5 1211.5 c 128,-1,87
 1575 1189 1575 1189 1575 1168 c 2,88,-1
 1591 100 l 1,89,90
 1598 79 1598 79 1625 71 c 128,-1,91
 1652 63 1652 63 1685 60.5 c 128,-1,92
 1718 58 1718 58 1749.5 56.5 c 128,-1,93
 1781 55 1781 55 1798 47 c 0,94,95
 1810 42 1810 42 1812 34.5 c 128,-1,96
 1814 27 1814 27 1814 21 c 0,97,98
 1814 5 1814 5 1797.5 1.5 c 128,-1,99
 1781 -2 1781 -2 1753 -2 c 0,100,101
 1721 -2 1721 -2 1693 -1 c 128,-1,102
 1665 0 1665 0 1637.5 0.5 c 128,-1,103
 1610 1 1610 1 1580 2 c 128,-1,104
 1550 3 1550 3 1513 3 c 2,105,-1
 1360 3 l 2,106,107
 1331 3 1331 3 1304 2.5 c 128,-1,108
 1277 2 1277 2 1250 0 c 0,109,110
 1218 -3 1218 -3 1186 -3 c 0,111,112
 1178 -3 1178 -3 1169.5 -2.5 c 128,-1,113
 1161 -2 1161 -2 1153.5 1 c 128,-1,114
 1146 4 1146 4 1141.5 10.5 c 128,-1,115
 1137 17 1137 17 1137 28 c 0,116,117
 1137 48 1137 48 1162 54.5 c 128,-1,118
 1187 61 1187 61 1222 61 c 2,119,-1
 1264 61 l 2,120,121
 1285 61 1285 61 1303.5 62 c 128,-1,122
 1322 63 1322 63 1336 68 c 128,-1,123
 1350 73 1350 73 1358.5 82.5 c 128,-1,124
 1367 92 1367 92 1367 109 c 2,125,-1
 1354 1171 l 2,126,127
 1354 1176 1354 1176 1352 1185 c 128,-1,128
 1350 1194 1350 1194 1345 1194 c 0,129,130
 1338 1194 1338 1194 1334.5 1191.5 c 128,-1,131
 1331 1189 1331 1189 1329 1187 c 2,132,-1
 881 21 l 2,133,134
 877 5 877 5 869 5 c 256,135,136
 861 5 861 5 855 21 c 2,137,-1
 409 1197 l 2,138,139
 406 1209 406 1209 397 1209 c 0,140,141
 393 1209 393 1209 390.5 1207 c 128,-1,142
 388 1205 388 1205 388 1197 c 2,143,-1
 362 242 l 2,144,145
 362 230 362 230 363.5 210.5 c 128,-1,146
 365 191 365 191 368.5 170 c 128,-1,147
 372 149 372 149 377.5 129 c 128,-1,148
 383 109 383 109 392 95 c 0,149,150
 405 74 405 74 431.5 64.5 c 128,-1,151
 458 55 458 55 488.5 51.5 c 128,-1,152
 519 48 519 48 549.5 47 c 128,-1,153
 580 46 580 46 601 43 c 0,154,155
 613 42 613 42 617.5 34 c 128,-1,156
 622 26 622 26 622 17 c 0,157,158
 622 11 622 11 615.5 7 c 128,-1,159
 609 3 609 3 599.5 0.5 c 128,-1,160
 590 -2 590 -2 578 -2.5 c 128,-1,161
 566 -3 566 -3 556 -3 c 0,162,163
 519 -3 519 -3 487 -1 c 128,-1,164
 455 1 455 1 425 3 c 128,-1,165
 395 5 395 5 366 7 c 128,-1,166
 337 9 337 9 305 9 c 0,0,1
EndSplineSet
Validated: 1
EndChar

StartChar: N
Encoding: 78 78 49
Width: 1554
Flags: W
LayerCount: 2
Fore
SplineSet
386 208 m 2,0,1
 386 187 386 187 396 171 c 128,-1,2
 406 155 406 155 420 143.5 c 128,-1,3
 434 132 434 132 449 124 c 128,-1,4
 464 116 464 116 473 111 c 256,5,6
 482 106 482 106 497.5 101 c 128,-1,7
 513 96 513 96 531 92 c 128,-1,8
 549 88 549 88 567 85.5 c 128,-1,9
 585 83 585 83 599 83 c 0,10,11
 607 83 607 83 616 82 c 128,-1,12
 625 81 625 81 633 77 c 128,-1,13
 641 73 641 73 646.5 66.5 c 128,-1,14
 652 60 652 60 652 50 c 0,15,16
 652 24 652 24 637 14.5 c 128,-1,17
 622 5 622 5 604 5 c 0,18,19
 475 3 475 3 347 1.5 c 128,-1,20
 219 0 219 0 88 0 c 0,21,22
 68 0 68 0 56 4 c 128,-1,23
 44 8 44 8 44 31 c 0,24,25
 44 47 44 47 55.5 55 c 128,-1,26
 67 63 67 63 85 69 c 0,27,28
 112 78 112 78 148 87.5 c 128,-1,29
 184 97 184 97 217 115.5 c 128,-1,30
 250 134 250 134 273 166.5 c 128,-1,31
 296 199 296 199 298 254 c 0,32,33
 307 490 307 490 318 722 c 128,-1,34
 329 954 329 954 329 1195 c 0,35,36
 329 1212 329 1212 325 1224.5 c 128,-1,37
 321 1237 321 1237 313.5 1248 c 128,-1,38
 306 1259 306 1259 296 1269 c 128,-1,39
 286 1279 286 1279 274 1291 c 0,40,41
 269 1296 269 1296 257 1305.5 c 128,-1,42
 245 1315 245 1315 230 1326 c 128,-1,43
 215 1337 215 1337 198 1349 c 128,-1,44
 181 1361 181 1361 165 1372 c 0,45,46
 150 1381 150 1381 138.5 1386 c 128,-1,47
 127 1391 127 1391 117 1394.5 c 128,-1,48
 107 1398 107 1398 97 1401.5 c 128,-1,49
 87 1405 87 1405 75 1410 c 0,50,51
 66 1413 66 1413 66 1420 c 0,52,53
 66 1422 66 1422 67 1425.5 c 128,-1,54
 68 1429 68 1429 75 1429 c 0,55,56
 115 1432 115 1432 170 1432 c 2,57,-1
 213 1432 l 2,58,59
 263 1432 263 1432 316.5 1430.5 c 128,-1,60
 370 1429 370 1429 436 1429 c 0,61,62
 450 1429 450 1429 459 1417 c 2,63,-1
 1159 453 l 2,64,65
 1172 436 1172 436 1187 436 c 0,66,67
 1204 436 1204 436 1204 453 c 2,68,-1
 1204 1251 l 2,69,70
 1204 1282 1204 1282 1193 1301.5 c 128,-1,71
 1182 1321 1182 1321 1155 1334 c 128,-1,72
 1128 1347 1128 1347 1082.5 1356.5 c 128,-1,73
 1037 1366 1037 1366 969 1377 c 0,74,75
 940 1381 940 1381 932 1386.5 c 128,-1,76
 924 1392 924 1392 924 1408 c 0,77,78
 924 1415 924 1415 929 1419 c 128,-1,79
 934 1423 934 1423 941 1424.5 c 128,-1,80
 948 1426 948 1426 956 1426.5 c 128,-1,81
 964 1427 964 1427 969 1427 c 2,82,-1
 1035 1427 l 2,83,84
 1074 1427 1074 1427 1127.5 1422 c 128,-1,85
 1181 1417 1181 1417 1253 1417 c 0,86,87
 1280 1417 1280 1417 1321 1419.5 c 128,-1,88
 1362 1422 1362 1422 1400 1422 c 0,89,90
 1415 1422 1415 1422 1426 1421.5 c 128,-1,91
 1437 1421 1437 1421 1447 1420 c 128,-1,92
 1457 1419 1457 1419 1467.5 1417 c 128,-1,93
 1478 1415 1478 1415 1492 1412 c 0,94,95
 1514 1406 1514 1406 1514 1391 c 256,96,97
 1514 1376 1514 1376 1495 1372 c 0,98,99
 1441 1368 1441 1368 1402 1356.5 c 128,-1,100
 1363 1345 1363 1345 1337.5 1321.5 c 128,-1,101
 1312 1298 1312 1298 1299 1260.5 c 128,-1,102
 1286 1223 1286 1223 1284 1166 c 2,103,-1
 1280 1085 l 2,104,105
 1272 945 1272 945 1267.5 838.5 c 128,-1,106
 1263 732 1263 732 1260 643.5 c 128,-1,107
 1257 555 1257 555 1256 477.5 c 128,-1,108
 1255 400 1255 400 1255 317 c 2,109,-1
 1255 258 l 2,110,111
 1255 232 1255 232 1255.5 201.5 c 128,-1,112
 1256 171 1256 171 1256 133 c 2,113,-1
 1256 50 l 2,114,115
 1256 41 1256 41 1250.5 25.5 c 128,-1,116
 1245 10 1245 10 1232 10 c 0,117,118
 1216 10 1216 10 1203.5 20.5 c 128,-1,119
 1191 31 1191 31 1173 57 c 2,120,-1
 428 1114 l 2,121,122
 418 1125 418 1125 414.5 1131 c 128,-1,123
 411 1137 411 1137 400 1137 c 0,124,125
 391 1137 391 1137 388.5 1126 c 128,-1,126
 386 1115 386 1115 386 1104 c 2,127,-1
 386 208 l 2,0,1
EndSplineSet
Validated: 1
EndChar

StartChar: O
Encoding: 79 79 50
Width: 1622
Flags: W
LayerCount: 2
Fore
SplineSet
803 -26 m 0,0,1
 657 -26 657 -26 528.5 31.5 c 128,-1,2
 400 89 400 89 293 201 c 0,3,4
 247 248 247 248 209 308.5 c 128,-1,5
 171 369 171 369 144 443 c 128,-1,6
 117 517 117 517 102 605.5 c 128,-1,7
 87 694 87 694 87 798 c 0,8,9
 87 872 87 872 114.5 949.5 c 128,-1,10
 142 1027 142 1027 190 1098.5 c 128,-1,11
 238 1170 238 1170 303 1231.5 c 128,-1,12
 368 1293 368 1293 443 1337 c 0,13,14
 545 1399 545 1399 646.5 1422.5 c 128,-1,15
 748 1446 748 1446 834 1446 c 0,16,17
 877 1446 877 1446 924 1439 c 128,-1,18
 971 1432 971 1432 1013.5 1421 c 128,-1,19
 1056 1410 1056 1410 1091.5 1397 c 128,-1,20
 1127 1384 1127 1384 1147 1372 c 0,21,22
 1195 1343 1195 1343 1245 1300 c 128,-1,23
 1295 1257 1295 1257 1339 1207 c 128,-1,24
 1383 1157 1383 1157 1418.5 1104.5 c 128,-1,25
 1454 1052 1454 1052 1474 1005 c 0,26,27
 1508 927 1508 927 1520 849 c 128,-1,28
 1532 771 1532 771 1532 687 c 0,29,30
 1532 597 1532 597 1513.5 518.5 c 128,-1,31
 1495 440 1495 440 1460 371 c 128,-1,32
 1425 302 1425 302 1374.5 241.5 c 128,-1,33
 1324 181 1324 181 1260 126 c 0,34,35
 1213 87 1213 87 1164 58.5 c 128,-1,36
 1115 30 1115 30 1059.5 11 c 128,-1,37
 1004 -8 1004 -8 941 -17 c 128,-1,38
 878 -26 878 -26 803 -26 c 0,0,1
348 695 m 0,39,40
 348 647 348 647 353 597.5 c 128,-1,41
 358 548 358 548 369 499.5 c 128,-1,42
 380 451 380 451 397.5 406 c 128,-1,43
 415 361 415 361 440 322 c 0,44,45
 472 269 472 269 511.5 218.5 c 128,-1,46
 551 168 551 168 599.5 127.5 c 128,-1,47
 648 87 648 87 706.5 62.5 c 128,-1,48
 765 38 765 38 834 38 c 0,49,50
 899 38 899 38 960 69.5 c 128,-1,51
 1021 101 1021 101 1073 152.5 c 128,-1,52
 1125 204 1125 204 1166.5 269 c 128,-1,53
 1208 334 1208 334 1234 401 c 0,54,55
 1237 411 1237 411 1246.5 437.5 c 128,-1,56
 1256 464 1256 464 1266 502 c 128,-1,57
 1276 540 1276 540 1283.5 588 c 128,-1,58
 1291 636 1291 636 1291 690 c 0,59,60
 1291 738 1291 738 1283.5 794 c 128,-1,61
 1276 850 1276 850 1260.5 909.5 c 128,-1,62
 1245 969 1245 969 1222 1029 c 128,-1,63
 1199 1089 1199 1089 1168 1144 c 0,64,65
 1141 1191 1141 1191 1105 1236.5 c 128,-1,66
 1069 1282 1069 1282 1023.5 1317.5 c 128,-1,67
 978 1353 978 1353 923 1374.5 c 128,-1,68
 868 1396 868 1396 803 1396 c 0,69,70
 741 1396 741 1396 685 1370 c 128,-1,71
 629 1344 629 1344 583 1305.5 c 128,-1,72
 537 1267 537 1267 502.5 1223.5 c 128,-1,73
 468 1180 468 1180 447 1144 c 0,74,75
 431 1116 431 1116 413.5 1074 c 128,-1,76
 396 1032 396 1032 381.5 976 c 128,-1,77
 367 920 367 920 357.5 849.5 c 128,-1,78
 348 779 348 779 348 695 c 0,39,40
EndSplineSet
Validated: 1
EndChar

StartChar: P
Encoding: 80 80 51
Width: 1235
Flags: W
LayerCount: 2
Fore
SplineSet
71 14 m 0,0,1
 71 45 71 45 115 45 c 0,2,3
 146 45 146 45 179 50.5 c 128,-1,4
 212 56 212 56 241 64 c 0,5,6
 257 68 257 68 269 76.5 c 128,-1,7
 281 85 281 85 281 107 c 2,8,-1
 281 1336 l 1,9,10
 275 1350 275 1350 258.5 1360 c 128,-1,11
 242 1370 242 1370 220 1376 c 128,-1,12
 198 1382 198 1382 173.5 1386 c 128,-1,13
 149 1390 149 1390 126.5 1393 c 128,-1,14
 104 1396 104 1396 85.5 1399.5 c 128,-1,15
 67 1403 67 1403 58 1408 c 0,16,17
 51 1410 51 1410 51 1422 c 0,18,19
 51 1431 51 1431 58 1432 c 0,20,21
 62 1434 62 1434 70 1436 c 128,-1,22
 78 1438 78 1438 101 1438 c 0,23,24
 109 1438 109 1438 138.5 1436.5 c 128,-1,25
 168 1435 168 1435 203 1432.5 c 128,-1,26
 238 1430 238 1430 269.5 1428.5 c 128,-1,27
 301 1427 301 1427 312 1427 c 2,28,-1
 447 1427 l 2,29,30
 451 1427 451 1427 466.5 1428 c 128,-1,31
 482 1429 482 1429 500 1429.5 c 128,-1,32
 518 1430 518 1430 532.5 1431 c 128,-1,33
 547 1432 547 1432 549 1432 c 0,34,35
 583 1437 583 1437 617 1438 c 128,-1,36
 651 1439 651 1439 686 1439 c 0,37,38
 747 1439 747 1439 811.5 1434.5 c 128,-1,39
 876 1430 876 1430 933 1408 c 0,40,41
 991 1386 991 1386 1038 1349.5 c 128,-1,42
 1085 1313 1085 1313 1118.5 1266.5 c 128,-1,43
 1152 1220 1152 1220 1170.5 1165 c 128,-1,44
 1189 1110 1189 1110 1189 1052 c 0,45,46
 1189 950 1189 950 1152.5 875.5 c 128,-1,47
 1116 801 1116 801 1035 742 c 0,48,49
 985 706 985 706 913.5 681.5 c 128,-1,50
 842 657 842 657 751 657 c 0,51,52
 712 657 712 657 674 658.5 c 128,-1,53
 636 660 636 660 596 664 c 0,54,55
 591 664 591 664 584 666 c 128,-1,56
 577 668 577 668 566 668 c 2,57,-1
 547 668 l 2,58,59
 538 668 538 668 537 664 c 0,60,61
 521 659 521 659 510 646.5 c 128,-1,62
 499 634 499 634 499 604 c 2,63,-1
 499 412 l 2,64,65
 499 344 499 344 493.5 264 c 128,-1,66
 488 184 488 184 488 111 c 0,67,68
 488 90 488 90 497 81.5 c 128,-1,69
 506 73 506 73 523 69 c 0,70,71
 568 58 568 58 608 53.5 c 128,-1,72
 648 49 648 49 691 40 c 0,73,74
 706 35 706 35 709.5 29.5 c 128,-1,75
 713 24 713 24 713 17 c 0,76,77
 713 11 713 11 707.5 7.5 c 128,-1,78
 702 4 702 4 694.5 1.5 c 128,-1,79
 687 -1 687 -1 679.5 -2 c 128,-1,80
 672 -3 672 -3 667 -3 c 0,81,82
 655 -3 655 -3 637.5 -2.5 c 128,-1,83
 620 -2 620 -2 602.5 -1.5 c 128,-1,84
 585 -1 585 -1 569.5 -0.5 c 128,-1,85
 554 0 554 0 545 0 c 2,86,-1
 243 0 l 2,87,88
 205 0 205 0 170.5 -1.5 c 128,-1,89
 136 -3 136 -3 120 -3 c 2,90,-1
 83 -3 l 2,91,92
 71 -2 71 -2 71 14 c 0,0,1
518 702 m 0,93,94
 536 697 536 697 553.5 693.5 c 128,-1,95
 571 690 571 690 597 690 c 0,96,97
 642 690 642 690 688 700.5 c 128,-1,98
 734 711 734 711 772 732 c 0,99,100
 808 751 808 751 842.5 782 c 128,-1,101
 877 813 877 813 904 854.5 c 128,-1,102
 931 896 931 896 947.5 947.5 c 128,-1,103
 964 999 964 999 964 1060 c 0,104,105
 964 1124 964 1124 950 1173.5 c 128,-1,106
 936 1223 936 1223 908.5 1261 c 128,-1,107
 881 1299 881 1299 839.5 1327.5 c 128,-1,108
 798 1356 798 1356 743 1379 c 0,109,110
 713 1392 713 1392 680.5 1397.5 c 128,-1,111
 648 1403 648 1403 613 1403 c 0,112,113
 581 1403 581 1403 554.5 1400.5 c 128,-1,114
 528 1398 528 1398 499 1387 c 1,115,-1
 499 751 l 2,116,117
 499 735 499 735 501.5 721 c 128,-1,118
 504 707 504 707 518 702 c 0,93,94
EndSplineSet
Validated: 1
EndChar

StartChar: Q
Encoding: 81 81 52
Width: 1580
Flags: W
LayerCount: 2
Fore
SplineSet
806 1432 m 1,0,-1
 804 1432 l 2,1,2
 856 1432 856 1432 913.5 1421 c 128,-1,3
 971 1410 971 1410 1028 1390.5 c 128,-1,4
 1085 1371 1085 1371 1136.5 1342.5 c 128,-1,5
 1188 1314 1188 1314 1228 1280 c 0,6,7
 1299 1218 1299 1218 1349 1157.5 c 128,-1,8
 1399 1097 1399 1097 1430 1031.5 c 128,-1,9
 1461 966 1461 966 1475 892 c 128,-1,10
 1489 818 1489 818 1489 730 c 0,11,12
 1489 637 1489 637 1468 543 c 128,-1,13
 1447 449 1447 449 1404 364.5 c 128,-1,14
 1361 280 1361 280 1295 210 c 128,-1,15
 1229 140 1229 140 1140 95 c 0,16,17
 1125 87 1125 87 1104.5 78.5 c 128,-1,18
 1084 70 1084 70 1063.5 62 c 128,-1,19
 1043 54 1043 54 1024.5 47 c 128,-1,20
 1006 40 1006 40 994 36 c 0,21,22
 990 32 990 32 987 30 c 128,-1,23
 984 28 984 28 984 26 c 0,24,25
 984 21 984 21 994 17 c 0,26,27
 1029 6 1029 6 1064.5 -1.5 c 128,-1,28
 1100 -9 1100 -9 1134 -17 c 0,29,30
 1246 -40 1246 -40 1356.5 -58 c 128,-1,31
 1467 -76 1467 -76 1582 -92 c 0,32,33
 1700 -107 1700 -107 1813 -112.5 c 128,-1,34
 1926 -118 1926 -118 2032 -118 c 0,35,36
 2100 -118 2100 -118 2133.5 -116 c 128,-1,37
 2167 -114 2167 -114 2172 -114 c 0,38,39
 2191 -114 2191 -114 2197.5 -117 c 128,-1,40
 2204 -120 2204 -120 2204 -125 c 0,41,42
 2204 -127 2204 -127 2199.5 -130 c 128,-1,43
 2195 -133 2195 -133 2189 -136 c 128,-1,44
 2183 -139 2183 -139 2176.5 -141 c 128,-1,45
 2170 -143 2170 -143 2167 -144 c 0,46,47
 2148 -149 2148 -149 2128 -154 c 128,-1,48
 2108 -159 2108 -159 2090 -163.5 c 128,-1,49
 2072 -168 2072 -168 2057.5 -171.5 c 128,-1,50
 2043 -175 2043 -175 2034 -178 c 0,51,52
 2027 -180 2027 -180 1986 -189.5 c 128,-1,53
 1945 -199 1945 -199 1885 -211 c 0,54,55
 1832 -220 1832 -220 1788 -225.5 c 128,-1,56
 1744 -231 1744 -231 1702 -234.5 c 128,-1,57
 1660 -238 1660 -238 1616.5 -239 c 128,-1,58
 1573 -240 1573 -240 1522 -240 c 0,59,60
 1474 -240 1474 -240 1430 -238.5 c 128,-1,61
 1386 -237 1386 -237 1342 -233 c 128,-1,62
 1298 -229 1298 -229 1252 -222 c 128,-1,63
 1206 -215 1206 -215 1153 -204 c 0,64,65
 1033 -179 1033 -179 909.5 -133 c 128,-1,66
 786 -87 786 -87 678 -26 c 0,67,68
 637 -3 637 -3 598.5 20 c 128,-1,69
 560 43 560 43 523.5 68 c 128,-1,70
 487 93 487 93 450.5 121 c 128,-1,71
 414 149 414 149 378 183 c 0,72,73
 352 207 352 207 321 241.5 c 128,-1,74
 290 276 290 276 259.5 314.5 c 128,-1,75
 229 353 229 353 202.5 392.5 c 128,-1,76
 176 432 176 432 159 467 c 0,77,78
 86 609 86 609 86 770 c 0,79,80
 86 877 86 877 121 975 c 128,-1,81
 156 1073 156 1073 224 1164 c 0,82,83
 266 1219 266 1219 323.5 1266 c 128,-1,84
 381 1313 381 1313 453.5 1348.5 c 128,-1,85
 526 1384 526 1384 614.5 1405.5 c 128,-1,86
 703 1427 703 1427 806 1432 c 1,0,-1
792 1368 m 0,87,88
 732 1368 732 1368 693 1357.5 c 128,-1,89
 654 1347 654 1347 617 1329 c 0,90,91
 577 1309 577 1309 545.5 1282 c 128,-1,92
 514 1255 514 1255 489.5 1223.5 c 128,-1,93
 465 1192 465 1192 445.5 1159 c 128,-1,94
 426 1126 426 1126 410 1095 c 0,95,96
 395 1065 395 1065 382 1036.5 c 128,-1,97
 369 1008 369 1008 358 977.5 c 128,-1,98
 347 947 347 947 339 913 c 128,-1,99
 331 879 331 879 325 837 c 0,100,101
 320 792 320 792 316.5 733.5 c 128,-1,102
 313 675 313 675 313 623 c 0,103,104
 313 551 313 551 326 476.5 c 128,-1,105
 339 402 339 402 366 334 c 0,106,107
 403 239 403 239 462 172.5 c 128,-1,108
 521 106 521 106 612 54 c 0,109,110
 664 25 664 25 711.5 17 c 128,-1,111
 759 9 759 9 811 9 c 0,112,113
 847 9 847 9 883 22.5 c 128,-1,114
 919 36 919 36 953 57.5 c 128,-1,115
 987 79 987 79 1015.5 105 c 128,-1,116
 1044 131 1044 131 1065 156 c 0,117,118
 1091 186 1091 186 1110 214 c 128,-1,119
 1129 242 1129 242 1144 268 c 128,-1,120
 1159 294 1159 294 1171 320.5 c 128,-1,121
 1183 347 1183 347 1195 374 c 0,122,123
 1216 419 1216 419 1229 463 c 128,-1,124
 1242 507 1242 507 1249.5 551.5 c 128,-1,125
 1257 596 1257 596 1259.5 642.5 c 128,-1,126
 1262 689 1262 689 1262 740 c 0,127,128
 1262 781 1262 781 1260 827.5 c 128,-1,129
 1258 874 1258 874 1247 917 c 0,130,131
 1233 968 1233 968 1212.5 1021.5 c 128,-1,132
 1192 1075 1192 1075 1167 1124 c 128,-1,133
 1142 1173 1142 1173 1112 1214.5 c 128,-1,134
 1082 1256 1082 1256 1048 1284 c 0,135,136
 987 1333 987 1333 923.5 1350.5 c 128,-1,137
 860 1368 860 1368 792 1368 c 0,87,88
EndSplineSet
Validated: 5
EndChar

StartChar: R
Encoding: 82 82 53
Width: 1484
Flags: W
LayerCount: 2
Fore
SplineSet
271 90 m 2,0,-1
 271 1304 l 2,1,2
 271 1318 271 1318 262 1327 c 128,-1,3
 253 1336 253 1336 239.5 1341.5 c 128,-1,4
 226 1347 226 1347 211 1349 c 128,-1,5
 196 1351 196 1351 184 1351 c 2,6,-1
 143 1351 l 2,7,8
 129 1351 129 1351 120 1351 c 128,-1,9
 111 1351 111 1351 103 1353 c 0,10,11
 91 1353 91 1353 91 1360 c 0,12,13
 91 1371 91 1371 103 1374 c 0,14,15
 136 1380 136 1380 163.5 1383 c 128,-1,16
 191 1386 191 1386 218 1387.5 c 128,-1,17
 245 1389 245 1389 272.5 1389.5 c 128,-1,18
 300 1390 300 1390 333 1393 c 0,19,20
 338 1393 338 1393 355.5 1394.5 c 128,-1,21
 373 1396 373 1396 397.5 1398 c 128,-1,22
 422 1400 422 1400 449.5 1402.5 c 128,-1,23
 477 1405 477 1405 501.5 1407.5 c 128,-1,24
 526 1410 526 1410 544 1412 c 128,-1,25
 562 1414 562 1414 568 1415 c 0,26,27
 597 1419 597 1419 631.5 1421.5 c 128,-1,28
 666 1424 666 1424 700 1424 c 0,29,30
 804 1424 804 1424 888.5 1398 c 128,-1,31
 973 1372 973 1372 1033 1324 c 128,-1,32
 1093 1276 1093 1276 1125.5 1209 c 128,-1,33
 1158 1142 1158 1142 1158 1060 c 0,34,35
 1158 995 1158 995 1144 937.5 c 128,-1,36
 1130 880 1130 880 1089 825 c 0,37,38
 1069 799 1069 799 1046.5 780.5 c 128,-1,39
 1024 762 1024 762 1000.5 747 c 128,-1,40
 977 732 977 732 952 719 c 128,-1,41
 927 706 927 706 902 690 c 0,42,43
 895 686 895 686 895 676 c 0,44,45
 895 674 895 674 900 664 c 0,46,47
 968 581 968 581 1032 495 c 128,-1,48
 1096 409 1096 409 1156 318 c 0,49,50
 1184 279 1184 279 1218.5 239 c 128,-1,51
 1253 199 1253 199 1288 164 c 0,52,53
 1307 145 1307 145 1327 128 c 128,-1,54
 1347 111 1347 111 1373.5 95.5 c 128,-1,55
 1400 80 1400 80 1436 66.5 c 128,-1,56
 1472 53 1472 53 1522 43 c 0,57,58
 1535 39 1535 39 1544.5 34.5 c 128,-1,59
 1554 30 1554 30 1554 21 c 0,60,61
 1554 3 1554 3 1542 2 c 0,62,63
 1540 0 1540 0 1533.5 0 c 128,-1,64
 1527 0 1527 0 1518 0 c 2,65,-1
 1492 0 l 2,66,67
 1472 0 1472 0 1444.5 0.5 c 128,-1,68
 1417 1 1417 1 1386.5 1.5 c 128,-1,69
 1356 2 1356 2 1324 3 c 128,-1,70
 1292 4 1292 4 1265 5 c 0,71,72
 1225 7 1225 7 1190 12 c 128,-1,73
 1155 17 1155 17 1120 40 c 0,74,75
 1097 51 1097 51 1072 78.5 c 128,-1,76
 1047 106 1047 106 1025 138 c 0,77,78
 998 174 998 174 967.5 218 c 128,-1,79
 937 262 937 262 906 307 c 128,-1,80
 875 352 875 352 845.5 395 c 128,-1,81
 816 438 816 438 791.5 473.5 c 128,-1,82
 767 509 767 509 750.5 533.5 c 128,-1,83
 734 558 734 558 729 566 c 0,84,85
 725 572 725 572 714.5 587 c 128,-1,86
 704 602 704 602 692 617.5 c 128,-1,87
 680 633 680 633 668 645.5 c 128,-1,88
 656 658 656 658 650 659 c 0,89,90
 626 662 626 662 594.5 663 c 128,-1,91
 563 664 563 664 537 664 c 2,92,-1
 511 664 l 2,93,94
 500 664 500 664 489.5 658.5 c 128,-1,95
 479 653 479 653 475 640 c 1,96,-1
 475 168 l 2,97,98
 475 156 475 156 476.5 140 c 128,-1,99
 478 124 478 124 481 109 c 128,-1,100
 484 94 484 94 489 81.5 c 128,-1,101
 494 69 494 69 501 64 c 0,102,103
 514 55 514 55 545 48.5 c 128,-1,104
 576 42 576 42 610.5 38.5 c 128,-1,105
 645 35 645 35 676.5 33 c 128,-1,106
 708 31 708 31 721 31 c 0,107,108
 730 31 730 31 733 23 c 128,-1,109
 736 15 736 15 736 7 c 0,110,111
 736 -4 736 -4 731.5 -6.5 c 128,-1,112
 727 -9 727 -9 714 -9 c 0,113,114
 698 -9 698 -9 663 -7.5 c 128,-1,115
 628 -6 628 -6 589.5 -4.5 c 128,-1,116
 551 -3 551 -3 518.5 -1.5 c 128,-1,117
 486 0 486 0 475 0 c 2,118,-1
 165 0 l 2,119,120
 161 0 161 0 152 0.5 c 128,-1,121
 143 1 143 1 132 1.5 c 128,-1,122
 121 2 121 2 110 2.5 c 128,-1,123
 99 3 99 3 91 3 c 0,124,125
 80 5 80 5 73.5 5.5 c 128,-1,126
 67 6 67 6 67 17 c 0,127,128
 67 24 67 24 71 27.5 c 128,-1,129
 75 31 75 31 91 36 c 0,130,131
 110 40 110 40 139.5 40.5 c 128,-1,132
 169 41 169 41 197 45 c 128,-1,133
 225 49 225 49 246.5 58.5 c 128,-1,134
 268 68 268 68 271 90 c 2,0,-1
475 1356 m 2,135,-1
 475 714 l 2,136,137
 475 704 475 704 481 697 c 128,-1,138
 487 690 487 690 494 690 c 2,139,-1
 534 690 l 2,140,141
 568 690 568 690 606 693 c 128,-1,142
 644 696 644 696 667 701 c 0,143,144
 694 708 694 708 721 723.5 c 128,-1,145
 748 739 748 739 772 758.5 c 128,-1,146
 796 778 796 778 817 800.5 c 128,-1,147
 838 823 838 823 854 844 c 0,148,149
 871 868 871 868 884 888 c 128,-1,150
 897 908 897 908 906.5 930 c 128,-1,151
 916 952 916 952 921.5 979.5 c 128,-1,152
 927 1007 927 1007 930 1045 c 0,153,154
 930 1098 930 1098 922 1139.5 c 128,-1,155
 914 1181 914 1181 896.5 1215 c 128,-1,156
 879 1249 879 1249 853 1278 c 128,-1,157
 827 1307 827 1307 791 1334 c 0,158,159
 779 1342 779 1342 763.5 1350 c 128,-1,160
 748 1358 748 1358 731 1364.5 c 128,-1,161
 714 1371 714 1371 696 1376 c 128,-1,162
 678 1381 678 1381 662 1384 c 0,163,164
 653 1386 653 1386 632 1386.5 c 128,-1,165
 611 1387 611 1387 598 1387 c 0,166,167
 584 1387 584 1387 563 1386.5 c 128,-1,168
 542 1386 542 1386 522.5 1383 c 128,-1,169
 503 1380 503 1380 489 1373.5 c 128,-1,170
 475 1367 475 1367 475 1356 c 2,135,-1
EndSplineSet
Validated: 1
EndChar

StartChar: S
Encoding: 83 83 54
Width: 1058
Flags: W
LayerCount: 2
Fore
SplineSet
116 1071 m 0,0,1
 116 1121 116 1121 132.5 1172 c 128,-1,2
 149 1223 149 1223 177 1268.5 c 128,-1,3
 205 1314 205 1314 242.5 1351.5 c 128,-1,4
 280 1389 280 1389 322 1412 c 0,5,6
 362 1435 362 1435 403.5 1440 c 128,-1,7
 445 1445 445 1445 493 1445 c 0,8,9
 547 1445 547 1445 599 1432.5 c 128,-1,10
 651 1420 651 1420 700 1394 c 0,11,12
 704 1391 704 1391 715 1384 c 128,-1,13
 726 1377 726 1377 739.5 1367 c 128,-1,14
 753 1357 753 1357 767 1346.5 c 128,-1,15
 781 1336 781 1336 792 1327 c 0,16,17
 796 1323 796 1323 799 1323 c 0,18,19
 800 1323 800 1323 804 1327 c 0,20,21
 807 1331 807 1331 811.5 1339.5 c 128,-1,22
 816 1348 816 1348 821 1357.5 c 128,-1,23
 826 1367 826 1367 830.5 1375.5 c 128,-1,24
 835 1384 835 1384 837 1387 c 0,25,26
 839 1392 839 1392 842.5 1396 c 128,-1,27
 846 1400 846 1400 847 1400 c 1,28,29
 847 1401 847 1401 851 1401 c 0,30,31
 857 1401 857 1401 860 1396.5 c 128,-1,32
 863 1392 863 1392 864.5 1386 c 128,-1,33
 866 1380 866 1380 866 1373.5 c 128,-1,34
 866 1367 866 1367 866 1363 c 2,35,-1
 866 1356 l 2,36,37
 866 1354 866 1354 865.5 1348 c 128,-1,38
 865 1342 865 1342 864 1334.5 c 128,-1,39
 863 1327 863 1327 862.5 1321 c 128,-1,40
 862 1315 862 1315 861 1313 c 2,41,-1
 861 1066 l 2,42,43
 861 1058 861 1058 854 1055 c 128,-1,44
 847 1052 847 1052 842 1052 c 0,45,46
 831 1052 831 1052 829 1056.5 c 128,-1,47
 827 1061 827 1061 823 1073 c 0,48,49
 812 1099 812 1099 808.5 1126.5 c 128,-1,50
 805 1154 805 1154 794 1183 c 0,51,52
 783 1216 783 1216 757 1254.5 c 128,-1,53
 731 1293 731 1293 697 1326 c 128,-1,54
 663 1359 663 1359 626 1381 c 128,-1,55
 589 1403 589 1403 555 1403 c 0,56,57
 492 1403 492 1403 458 1394 c 0,58,59
 407 1379 407 1379 372.5 1345.5 c 128,-1,60
 338 1312 338 1312 309 1270 c 0,61,62
 301 1258 301 1258 294 1239.5 c 128,-1,63
 287 1221 287 1221 282.5 1200.5 c 128,-1,64
 278 1180 278 1180 275.5 1161 c 128,-1,65
 273 1142 273 1142 273 1130 c 0,66,67
 273 1082 273 1082 293.5 1043 c 128,-1,68
 314 1004 314 1004 347 973.5 c 128,-1,69
 380 943 380 943 421.5 919.5 c 128,-1,70
 463 896 463 896 505 879 c 0,71,72
 541 864 541 864 579.5 850 c 128,-1,73
 618 836 618 836 655.5 821 c 128,-1,74
 693 806 693 806 727.5 788 c 128,-1,75
 762 770 762 770 789 747 c 0,76,77
 823 720 823 720 856 680.5 c 128,-1,78
 889 641 889 641 915.5 594.5 c 128,-1,79
 942 548 942 548 958 498 c 128,-1,80
 974 448 974 448 974 400 c 0,81,82
 974 307 974 307 941.5 232 c 128,-1,83
 909 157 909 157 851.5 104.5 c 128,-1,84
 794 52 794 52 716 23.5 c 128,-1,85
 638 -5 638 -5 548 -5 c 0,86,87
 495 -5 495 -5 445.5 0.5 c 128,-1,88
 396 6 396 6 351 20 c 128,-1,89
 306 34 306 34 266 59 c 128,-1,90
 226 84 226 84 190 123 c 0,91,92
 186 128 186 128 179.5 129 c 128,-1,93
 173 130 173 130 169 130 c 0,94,95
 152 130 152 130 145 121 c 128,-1,96
 138 112 138 112 133.5 100.5 c 128,-1,97
 129 89 129 89 123 80 c 128,-1,98
 117 71 117 71 102 71 c 1,99,-1
 128 346 l 2,100,101
 130 359 130 359 131 377 c 128,-1,102
 132 395 132 395 136 401 c 0,103,104
 139 415 139 415 147 415 c 0,105,106
 159 415 159 415 164 400 c 0,107,108
 170 383 170 383 174 366.5 c 128,-1,109
 178 350 178 350 181 334 c 128,-1,110
 184 318 184 318 187.5 304 c 128,-1,111
 191 290 191 290 197 279 c 0,112,113
 220 238 220 238 241.5 206 c 128,-1,114
 263 174 263 174 289.5 147 c 128,-1,115
 316 120 316 120 351 98 c 128,-1,116
 386 76 386 76 436 57 c 0,117,118
 467 46 467 46 495 44.5 c 128,-1,119
 523 43 523 43 546 43 c 0,120,121
 574 43 574 43 602 53.5 c 128,-1,122
 630 64 630 64 669 86 c 0,123,124
 726 120 726 120 760 167.5 c 128,-1,125
 794 215 794 215 794 287 c 0,126,127
 794 338 794 338 775.5 382 c 128,-1,128
 757 426 757 426 725 464 c 0,129,130
 679 515 679 515 637 543.5 c 128,-1,131
 595 572 595 572 554.5 589 c 128,-1,132
 514 606 514 606 474 618 c 128,-1,133
 434 630 434 630 392.5 648 c 128,-1,134
 351 666 351 666 308 696 c 128,-1,135
 265 726 265 726 218 780 c 0,136,137
 116 900 116 900 116 1071 c 0,0,1
EndSplineSet
Validated: 1
EndChar

StartChar: T
Encoding: 84 84 55
Width: 1381
Flags: W
LayerCount: 2
Fore
SplineSet
802 1272 m 2,0,-1
 802 112 l 2,1,2
 802 89 802 89 827.5 77 c 128,-1,3
 853 65 853 65 886.5 59 c 128,-1,4
 920 53 920 53 953 50.5 c 128,-1,5
 986 48 986 48 1001 45 c 1,6,7
 1010 34 1010 34 1011.5 29.5 c 128,-1,8
 1013 25 1013 25 1013 16 c 256,9,10
 1013 7 1013 7 1007.5 1 c 128,-1,11
 1002 -5 1002 -5 994 -8.5 c 128,-1,12
 986 -12 986 -12 976.5 -14 c 128,-1,13
 967 -16 967 -16 959 -16 c 0,14,15
 939 -16 939 -16 898 -12 c 128,-1,16
 857 -8 857 -8 811.5 -3.5 c 128,-1,17
 766 1 766 1 723.5 5 c 128,-1,18
 681 9 681 9 658 9 c 0,19,20
 619 9 619 9 583 8 c 128,-1,21
 547 7 547 7 508 0 c 0,22,23
 500 0 500 0 482.5 -3.5 c 128,-1,24
 465 -7 465 -7 444 -11 c 128,-1,25
 423 -15 423 -15 402.5 -18.5 c 128,-1,26
 382 -22 382 -22 369 -22 c 0,27,28
 359 -22 359 -22 354 -13.5 c 128,-1,29
 349 -5 349 -5 349 0 c 0,30,31
 349 13 349 13 363.5 21 c 128,-1,32
 378 29 378 29 388 31 c 0,33,34
 394 34 394 34 410.5 38 c 128,-1,35
 427 42 427 42 447 46.5 c 128,-1,36
 467 51 467 51 485.5 55.5 c 128,-1,37
 504 60 504 60 515 64 c 0,38,39
 531 68 531 68 543 72.5 c 128,-1,40
 555 77 555 77 563 84.5 c 128,-1,41
 571 92 571 92 575 104.5 c 128,-1,42
 579 117 579 117 579 137 c 2,43,-1
 579 1232 l 2,44,45
 579 1240 579 1240 578 1249.5 c 128,-1,46
 577 1259 577 1259 574 1267 c 128,-1,47
 571 1275 571 1275 565 1280 c 128,-1,48
 559 1285 559 1285 548 1285 c 2,49,-1
 324 1285 l 2,50,51
 279 1285 279 1285 247 1277.5 c 128,-1,52
 215 1270 215 1270 188 1254 c 0,53,54
 155 1237 155 1237 121.5 1208 c 128,-1,55
 88 1179 88 1179 70 1147 c 0,56,57
 67 1142 67 1142 64.5 1133 c 128,-1,58
 62 1124 62 1124 58 1115 c 128,-1,59
 54 1106 54 1106 49 1099 c 128,-1,60
 44 1092 44 1092 37 1092 c 0,61,62
 33 1092 33 1092 28 1098 c 128,-1,63
 23 1104 23 1104 18 1113.5 c 128,-1,64
 13 1123 13 1123 9.5 1134.5 c 128,-1,65
 6 1146 6 1146 6 1157 c 0,66,67
 6 1179 6 1179 15.5 1203 c 128,-1,68
 25 1227 25 1227 39 1254 c 128,-1,69
 53 1281 53 1281 69 1312.5 c 128,-1,70
 85 1344 85 1344 98 1382 c 1,71,-1
 98 1400 l 2,72,73
 98 1407 98 1407 101 1415 c 0,74,75
 106 1424 106 1424 115.5 1425.5 c 128,-1,76
 125 1427 125 1427 136 1427 c 0,77,78
 145 1427 145 1427 151 1421.5 c 128,-1,79
 157 1416 157 1416 163 1409 c 128,-1,80
 169 1402 169 1402 176.5 1394.5 c 128,-1,81
 184 1387 184 1387 195 1384 c 0,82,83
 207 1381 207 1381 241 1376.5 c 128,-1,84
 275 1372 275 1372 334.5 1368 c 128,-1,85
 394 1364 394 1364 480 1361 c 128,-1,86
 566 1358 566 1358 683 1358 c 0,87,88
 711 1358 711 1358 747 1359.5 c 128,-1,89
 783 1361 783 1361 821.5 1363 c 128,-1,90
 860 1365 860 1365 898 1366.5 c 128,-1,91
 936 1368 936 1368 968 1368 c 0,92,93
 993 1368 993 1368 1013 1366 c 128,-1,94
 1033 1364 1033 1364 1056 1360 c 0,95,96
 1068 1358 1068 1358 1082 1356 c 128,-1,97
 1096 1354 1096 1354 1110 1352.5 c 128,-1,98
 1124 1351 1124 1351 1136 1350 c 128,-1,99
 1148 1349 1148 1349 1155 1349 c 0,100,101
 1174 1349 1174 1349 1174 1370 c 0,102,103
 1174 1381 1174 1381 1181 1391 c 0,104,105
 1190 1402 1190 1402 1205 1417 c 128,-1,106
 1220 1432 1220 1432 1231 1432 c 0,107,108
 1239 1432 1239 1432 1248.5 1421 c 128,-1,109
 1258 1410 1258 1410 1267.5 1394.5 c 128,-1,110
 1277 1379 1277 1379 1285.5 1363.5 c 128,-1,111
 1294 1348 1294 1348 1300 1339 c 0,112,113
 1307 1323 1307 1323 1310 1300.5 c 128,-1,114
 1313 1278 1313 1278 1317 1266 c 0,115,116
 1321 1257 1321 1257 1334.5 1237 c 128,-1,117
 1348 1217 1348 1217 1362 1194.5 c 128,-1,118
 1376 1172 1376 1172 1387.5 1151 c 128,-1,119
 1399 1130 1399 1130 1399 1118 c 0,120,121
 1399 1092 1399 1092 1376 1092 c 0,122,123
 1362 1092 1362 1092 1342.5 1108 c 128,-1,124
 1323 1124 1323 1124 1301.5 1145 c 128,-1,125
 1280 1166 1280 1166 1258 1187.5 c 128,-1,126
 1236 1209 1236 1209 1217 1221 c 0,127,128
 1204 1229 1204 1229 1181.5 1239 c 128,-1,129
 1159 1249 1159 1249 1134 1259 c 128,-1,130
 1109 1269 1109 1269 1085 1276 c 128,-1,131
 1061 1283 1061 1283 1044 1285 c 0,132,133
 1017 1290 1017 1290 988 1290.5 c 128,-1,134
 959 1291 959 1291 932 1291 c 2,135,-1
 875 1291 l 2,136,137
 872 1291 872 1291 860.5 1290 c 128,-1,138
 849 1289 849 1289 836 1286.5 c 128,-1,139
 823 1284 823 1284 812.5 1280.5 c 128,-1,140
 802 1277 802 1277 802 1272 c 2,0,-1
EndSplineSet
Validated: 1
EndChar

StartChar: U
Encoding: 85 85 56
Width: 1592
Flags: W
LayerCount: 2
Fore
SplineSet
1091 19 m 2,0,-1
 1091 280 l 2,1,2
 1091 285 1091 285 1089.5 300.5 c 128,-1,3
 1088 316 1088 316 1086 327 c 0,4,5
 1086 329 1086 329 1082 333 c 2,6,-1
 1079 336 l 1,7,8
 1072 336 1072 336 1067 325 c 0,9,10
 1049 288 1049 288 1037.5 265 c 128,-1,11
 1026 242 1026 242 1014 223 c 128,-1,12
 1002 204 1002 204 985.5 184.5 c 128,-1,13
 969 165 969 165 942 137 c 0,14,15
 913 105 913 105 870.5 80.5 c 128,-1,16
 828 56 828 56 780.5 39 c 128,-1,17
 733 22 733 22 685 13.5 c 128,-1,18
 637 5 637 5 596 5 c 0,19,20
 557 5 557 5 518.5 12.5 c 128,-1,21
 480 20 480 20 460 31 c 0,22,23
 425 50 425 50 397.5 75 c 128,-1,24
 370 100 370 100 349 127 c 128,-1,25
 328 154 328 154 313.5 182 c 128,-1,26
 299 210 299 210 292 235 c 0,27,28
 286 253 286 253 281.5 285 c 128,-1,29
 277 317 277 317 273.5 355 c 128,-1,30
 270 393 270 393 267.5 433.5 c 128,-1,31
 265 474 265 474 263.5 509.5 c 128,-1,32
 262 545 262 545 261.5 572 c 128,-1,33
 261 599 261 599 261 609 c 2,34,-1
 261 1370 l 2,35,36
 261 1384 261 1384 242 1384 c 2,37,-1
 51 1384 l 2,38,39
 36 1384 36 1384 36 1410 c 0,40,41
 36 1432 36 1432 51 1432 c 2,42,-1
 465 1432 l 2,43,44
 471 1432 471 1432 479 1427.5 c 128,-1,45
 487 1423 487 1423 487 1410 c 2,46,-1
 487 538 l 2,47,48
 487 333 487 333 563 234 c 0,49,50
 630 147 630 147 754 147 c 0,51,52
 770 147 770 147 787 151 c 128,-1,53
 804 155 804 155 820.5 160.5 c 128,-1,54
 837 166 837 166 851.5 172.5 c 128,-1,55
 866 179 866 179 878 185 c 0,56,57
 920 207 920 207 951 231.5 c 128,-1,58
 982 256 982 256 1005.5 284.5 c 128,-1,59
 1029 313 1029 313 1045 347 c 128,-1,60
 1061 381 1061 381 1072 422 c 0,61,62
 1077 439 1077 439 1080.5 462 c 128,-1,63
 1084 485 1084 485 1086.5 510.5 c 128,-1,64
 1089 536 1089 536 1090 562 c 128,-1,65
 1091 588 1091 588 1091 609 c 2,66,-1
 1091 1365 l 1,67,68
 1078 1382 1078 1382 1045.5 1386.5 c 128,-1,69
 1013 1391 1013 1391 979 1393 c 0,70,71
 967 1393 967 1393 955 1393.5 c 128,-1,72
 943 1394 943 1394 925 1394 c 0,73,74
 908 1394 908 1394 880.5 1395 c 128,-1,75
 853 1396 853 1396 812 1396 c 0,76,77
 792 1396 792 1396 792 1419 c 0,78,79
 792 1429 792 1429 798 1437.5 c 128,-1,80
 804 1446 804 1446 825 1446 c 2,81,-1
 1300 1443 l 2,82,83
 1309 1443 1309 1443 1314 1433 c 128,-1,84
 1319 1423 1319 1423 1319 1410 c 2,85,-1
 1306 154 l 1,86,87
 1312 146 1312 146 1330.5 144 c 128,-1,88
 1349 142 1349 142 1363 142 c 0,89,90
 1409 142 1409 142 1452.5 150.5 c 128,-1,91
 1496 159 1496 159 1546 159 c 0,92,93
 1563 159 1563 159 1563 140 c 0,94,95
 1563 130 1563 130 1551 123.5 c 128,-1,96
 1539 117 1539 117 1522.5 112.5 c 128,-1,97
 1506 108 1506 108 1487.5 105 c 128,-1,98
 1469 102 1469 102 1456 99 c 0,99,100
 1409 88 1409 88 1357 76.5 c 128,-1,101
 1305 65 1305 65 1255 47 c 0,102,103
 1241 42 1241 42 1220.5 33.5 c 128,-1,104
 1200 25 1200 25 1179 17 c 128,-1,105
 1158 9 1158 9 1140 3 c 128,-1,106
 1122 -3 1122 -3 1113 -3 c 0,107,108
 1105 -3 1105 -3 1098 2.5 c 128,-1,109
 1091 8 1091 8 1091 19 c 2,0,-1
EndSplineSet
Validated: 1
EndChar

StartChar: V
Encoding: 86 86 57
Width: 1338
Flags: W
LayerCount: 2
Fore
SplineSet
-12 1386 m 0,0,1
 -12 1399 -12 1399 -0.5 1402 c 128,-1,2
 11 1405 11 1405 19 1405 c 0,3,4
 38 1405 38 1405 69.5 1404 c 128,-1,5
 101 1403 101 1403 136 1402.5 c 128,-1,6
 171 1402 171 1402 206 1401 c 128,-1,7
 241 1400 241 1400 268 1400 c 0,8,9
 306 1400 306 1400 341.5 1401 c 128,-1,10
 377 1402 377 1402 420 1405 c 0,11,12
 465 1407 465 1407 505.5 1412 c 128,-1,13
 546 1417 546 1417 586 1417 c 0,14,15
 590 1417 590 1417 598 1416.5 c 128,-1,16
 606 1416 606 1416 614 1414.5 c 128,-1,17
 622 1413 622 1413 627.5 1409 c 128,-1,18
 633 1405 633 1405 633 1398 c 0,19,20
 633 1384 633 1384 617 1377.5 c 128,-1,21
 601 1371 601 1371 577 1367 c 128,-1,22
 553 1363 553 1363 525 1358.5 c 128,-1,23
 497 1354 497 1354 473 1344.5 c 128,-1,24
 449 1335 449 1335 433 1317 c 128,-1,25
 417 1299 417 1299 417 1268 c 0,26,27
 417 1245 417 1245 418.5 1218.5 c 128,-1,28
 420 1192 420 1192 429 1171 c 2,29,-1
 726 417 l 2,30,31
 740 384 740 384 747 384 c 0,32,33
 758 384 758 384 773 413 c 0,34,35
 776 420 776 420 787.5 451.5 c 128,-1,36
 799 483 799 483 816.5 530.5 c 128,-1,37
 834 578 834 578 855.5 637.5 c 128,-1,38
 877 697 877 697 899.5 760 c 128,-1,39
 922 823 922 823 944 886 c 128,-1,40
 966 949 966 949 984.5 1003.5 c 128,-1,41
 1003 1058 1003 1058 1017 1099.5 c 128,-1,42
 1031 1141 1031 1141 1036 1161 c 0,43,44
 1041 1186 1041 1186 1041 1209 c 0,45,46
 1041 1227 1041 1227 1038.5 1242.5 c 128,-1,47
 1036 1258 1036 1258 1029 1270 c 0,48,49
 1016 1293 1016 1293 990.5 1310.5 c 128,-1,50
 965 1328 965 1328 943 1339 c 0,51,52
 926 1347 926 1347 903.5 1352.5 c 128,-1,53
 881 1358 881 1358 861 1365 c 128,-1,54
 841 1372 841 1372 827 1381 c 128,-1,55
 813 1390 813 1390 813 1405 c 0,56,57
 813 1418 813 1418 822 1420 c 128,-1,58
 831 1422 831 1422 839 1422 c 0,59,60
 873 1422 873 1422 915 1419.5 c 128,-1,61
 957 1417 957 1417 1003 1414 c 128,-1,62
 1049 1411 1049 1411 1097 1408.5 c 128,-1,63
 1145 1406 1145 1406 1190 1406 c 0,64,65
 1215 1406 1215 1406 1235.5 1408.5 c 128,-1,66
 1256 1411 1256 1411 1274 1414 c 128,-1,67
 1292 1417 1292 1417 1309 1419.5 c 128,-1,68
 1326 1422 1326 1422 1346 1422 c 0,69,70
 1352 1422 1352 1422 1359 1421.5 c 128,-1,71
 1366 1421 1366 1421 1373 1419 c 128,-1,72
 1380 1417 1380 1417 1384.5 1413 c 128,-1,73
 1389 1409 1389 1409 1389 1401 c 0,74,75
 1389 1385 1389 1385 1377 1382 c 0,76,77
 1358 1377 1358 1377 1339 1371 c 128,-1,78
 1320 1365 1320 1365 1303.5 1359 c 128,-1,79
 1287 1353 1287 1353 1275 1347.5 c 128,-1,80
 1263 1342 1263 1342 1259 1339 c 0,81,82
 1248 1334 1248 1334 1228.5 1318 c 128,-1,83
 1209 1302 1209 1302 1192 1278 c 0,84,85
 1182 1264 1182 1264 1171.5 1244 c 128,-1,86
 1161 1224 1161 1224 1145 1189.5 c 128,-1,87
 1129 1155 1129 1155 1106.5 1101 c 128,-1,88
 1084 1047 1084 1047 1050 965 c 2,89,-1
 683 64 l 2,90,91
 676 48 676 48 670 37 c 128,-1,92
 664 26 664 26 655 26 c 0,93,94
 644 26 644 26 637 38 c 128,-1,95
 630 50 630 50 622 71 c 2,96,-1
 219 1142 l 2,97,98
 209 1168 209 1168 197 1197.5 c 128,-1,99
 185 1227 185 1227 169.5 1254 c 128,-1,100
 154 1281 154 1281 135 1302.5 c 128,-1,101
 116 1324 116 1324 93 1334 c 0,102,103
 85 1335 85 1335 67.5 1339 c 128,-1,104
 50 1343 50 1343 32.5 1350 c 128,-1,105
 15 1357 15 1357 1.5 1366 c 128,-1,106
 -12 1375 -12 1375 -12 1386 c 0,0,1
EndSplineSet
Validated: 1
EndChar

StartChar: W
Encoding: 87 87 58
Width: 2009
Flags: W
LayerCount: 2
Fore
SplineSet
1149 1253 m 2,0,-1
 1381 413 l 2,1,2
 1391 370 1391 370 1407 370 c 0,3,4
 1429 370 1429 370 1439 407 c 2,5,-1
 1689 1121 l 2,6,7
 1702 1159 1702 1159 1711 1194 c 128,-1,8
 1720 1229 1720 1229 1720 1261 c 0,9,10
 1720 1273 1720 1273 1718.5 1288 c 128,-1,11
 1717 1303 1717 1303 1713 1308 c 0,12,13
 1694 1330 1694 1330 1672.5 1344 c 128,-1,14
 1651 1358 1651 1358 1627.5 1368 c 128,-1,15
 1604 1378 1604 1378 1579 1385 c 128,-1,16
 1554 1392 1554 1392 1528 1401 c 0,17,18
 1521 1403 1521 1403 1521 1417 c 0,19,20
 1521 1434 1521 1434 1534.5 1439.5 c 128,-1,21
 1548 1445 1548 1445 1564 1445 c 0,22,23
 1589 1445 1589 1445 1624 1442.5 c 128,-1,24
 1659 1440 1659 1440 1698.5 1437 c 128,-1,25
 1738 1434 1738 1434 1777.5 1431.5 c 128,-1,26
 1817 1429 1817 1429 1851 1429 c 0,27,28
 1881 1429 1881 1429 1910 1431 c 128,-1,29
 1939 1433 1939 1433 1974 1438 c 0,30,31
 1986 1439 1986 1439 2004 1442.5 c 128,-1,32
 2022 1446 2022 1446 2033 1446 c 0,33,34
 2038 1446 2038 1446 2045 1445.5 c 128,-1,35
 2052 1445 2052 1445 2058.5 1442.5 c 128,-1,36
 2065 1440 2065 1440 2069.5 1436 c 128,-1,37
 2074 1432 2074 1432 2074 1426 c 0,38,39
 2074 1416 2074 1416 2054 1406 c 128,-1,40
 2034 1396 2034 1396 2007.5 1387 c 128,-1,41
 1981 1378 1981 1378 1955.5 1370 c 128,-1,42
 1930 1362 1930 1362 1919 1356 c 0,43,44
 1907 1350 1907 1350 1890 1335 c 128,-1,45
 1873 1320 1873 1320 1857.5 1302.5 c 128,-1,46
 1842 1285 1842 1285 1830.5 1269.5 c 128,-1,47
 1819 1254 1819 1254 1817 1247 c 2,48,-1
 1419 239 l 2,49,50
 1413 223 1413 223 1402 193.5 c 128,-1,51
 1391 164 1391 164 1380 132 c 128,-1,52
 1369 100 1369 100 1358.5 71.5 c 128,-1,53
 1348 43 1348 43 1344 31 c 0,54,55
 1334 2 1334 2 1318 2 c 0,56,57
 1307 2 1307 2 1301 13.5 c 128,-1,58
 1295 25 1295 25 1291 36 c 0,59,60
 1238 220 1238 220 1181 416 c 128,-1,61
 1124 612 1124 612 1062 804 c 0,62,63
 1061 818 1061 818 1048 818 c 0,64,65
 1037 818 1037 818 1033 803 c 2,66,-1
 766 156 l 2,67,68
 762 147 762 147 756.5 128 c 128,-1,69
 751 109 751 109 744 86.5 c 128,-1,70
 737 64 737 64 729 42 c 128,-1,71
 721 20 721 20 713 7 c 0,72,73
 706 -5 706 -5 697 -5 c 0,74,75
 686 -5 686 -5 679.5 1.5 c 128,-1,76
 673 8 673 8 666 22 c 2,77,-1
 204 1220 l 2,78,79
 198 1233 198 1233 187 1253.5 c 128,-1,80
 176 1274 176 1274 160 1295 c 128,-1,81
 144 1316 144 1316 122.5 1334.5 c 128,-1,82
 101 1353 101 1353 76 1363 c 0,83,84
 70 1367 70 1367 61 1368.5 c 128,-1,85
 52 1370 52 1370 43 1370 c 0,86,87
 29 1370 29 1370 15 1371.5 c 128,-1,88
 1 1373 1 1373 -10 1376.5 c 128,-1,89
 -21 1380 -21 1380 -28.5 1387 c 128,-1,90
 -36 1394 -36 1394 -36 1406 c 0,91,92
 -36 1427 -36 1427 -26 1433 c 128,-1,93
 -16 1439 -16 1439 2 1439 c 0,94,95
 10 1439 10 1439 41.5 1437.5 c 128,-1,96
 73 1436 73 1436 115 1434 c 128,-1,97
 157 1432 157 1432 203 1430.5 c 128,-1,98
 249 1429 249 1429 285 1429 c 0,99,100
 317 1429 317 1429 350 1430.5 c 128,-1,101
 383 1432 383 1432 412.5 1433.5 c 128,-1,102
 442 1435 442 1435 466.5 1436.5 c 128,-1,103
 491 1438 491 1438 505 1438 c 2,104,-1
 528 1438 l 2,105,106
 550 1438 550 1438 567.5 1431 c 128,-1,107
 585 1424 585 1424 585 1408 c 0,108,109
 585 1399 585 1399 578 1390.5 c 128,-1,110
 571 1382 571 1382 561 1382 c 2,111,-1
 491 1382 l 2,112,113
 464 1382 464 1382 444 1374.5 c 128,-1,114
 424 1367 424 1367 417 1356 c 0,115,116
 410 1347 410 1347 407.5 1331 c 128,-1,117
 405 1315 405 1315 405 1306 c 0,118,119
 405 1296 405 1296 408.5 1279 c 128,-1,120
 412 1262 412 1262 417.5 1242 c 128,-1,121
 423 1222 423 1222 430 1201 c 128,-1,122
 437 1180 437 1180 443 1164 c 2,123,-1
 737 400 l 2,124,125
 744 384 744 384 756 371 c 128,-1,126
 768 358 768 358 777 358 c 0,127,128
 787 358 787 358 806 401 c 0,129,130
 823 439 823 439 846 492 c 128,-1,131
 869 545 869 545 893.5 603 c 128,-1,132
 918 661 918 661 942 719 c 128,-1,133
 966 777 966 777 986 827 c 0,134,135
 1000 862 1000 862 1006 889.5 c 128,-1,136
 1012 917 1012 917 1012 932 c 0,137,138
 1012 957 1012 957 1006 996 c 128,-1,139
 1000 1035 1000 1035 988.5 1079.5 c 128,-1,140
 977 1124 977 1124 962 1171 c 128,-1,141
 947 1218 947 1218 929 1258.5 c 128,-1,142
 911 1299 911 1299 891 1329 c 128,-1,143
 871 1359 871 1359 851 1370 c 0,144,145
 846 1374 846 1374 831.5 1374.5 c 128,-1,146
 817 1375 817 1375 806 1375 c 0,147,148
 801 1375 801 1375 785 1375.5 c 128,-1,149
 769 1376 769 1376 751 1377 c 128,-1,150
 733 1378 733 1378 717 1379.5 c 128,-1,151
 701 1381 701 1381 697 1382 c 0,152,153
 681 1389 681 1389 678.5 1395 c 128,-1,154
 676 1401 676 1401 676 1412 c 0,155,156
 676 1425 676 1425 685 1435 c 128,-1,157
 694 1445 694 1445 708 1445 c 0,158,159
 751 1445 751 1445 783.5 1443 c 128,-1,160
 816 1441 816 1441 848.5 1438 c 128,-1,161
 881 1435 881 1435 917.5 1433 c 128,-1,162
 954 1431 954 1431 1005 1431 c 256,163,164
 1056 1431 1056 1431 1094 1432 c 128,-1,165
 1132 1433 1132 1433 1165.5 1434.5 c 128,-1,166
 1199 1436 1199 1436 1232 1437 c 128,-1,167
 1265 1438 1265 1438 1304 1438 c 0,168,169
 1320 1438 1320 1438 1325 1424 c 128,-1,170
 1330 1410 1330 1410 1330 1394 c 0,171,172
 1330 1388 1330 1388 1324 1384.5 c 128,-1,173
 1318 1381 1318 1381 1310 1379 c 128,-1,174
 1302 1377 1302 1377 1294.5 1376 c 128,-1,175
 1287 1375 1287 1375 1285 1375 c 2,176,-1
 1192 1375 l 2,177,178
 1186 1375 1186 1375 1177 1373 c 128,-1,179
 1168 1371 1168 1371 1160.5 1366 c 128,-1,180
 1153 1361 1153 1361 1147.5 1351 c 128,-1,181
 1142 1341 1142 1341 1142 1325 c 0,182,183
 1142 1304 1142 1304 1143.5 1285.5 c 128,-1,184
 1145 1267 1145 1267 1149 1253 c 2,0,-1
EndSplineSet
Validated: 1
EndChar

StartChar: X
Encoding: 88 88 59
Width: 1597
Flags: W
LayerCount: 2
Fore
SplineSet
6 21 m 0,0,1
 6 32 6 32 19.5 39.5 c 128,-1,2
 33 47 33 47 42 48 c 0,3,4
 54 48 54 48 75 49 c 128,-1,5
 96 50 96 50 119 52 c 128,-1,6
 142 54 142 54 163 57.5 c 128,-1,7
 184 61 184 61 198 67 c 0,8,9
 242 89 242 89 284 123 c 128,-1,10
 326 157 326 157 362 193.5 c 128,-1,11
 398 230 398 230 426.5 265 c 128,-1,12
 455 300 455 300 473 324 c 0,13,14
 485 340 485 340 503 366 c 128,-1,15
 521 392 521 392 542 423 c 128,-1,16
 563 454 563 454 585.5 487.5 c 128,-1,17
 608 521 608 521 630 553 c 128,-1,18
 652 585 652 585 672 612 c 128,-1,19
 692 639 692 639 707 656 c 0,20,21
 710 659 710 659 710 664 c 0,22,23
 710 686 710 686 677 728 c 1,24,-1
 297 1332 l 2,25,26
 284 1352 284 1352 262.5 1364.5 c 128,-1,27
 241 1377 241 1377 214 1384.5 c 128,-1,28
 187 1392 187 1392 154.5 1396.5 c 128,-1,29
 122 1401 122 1401 87 1406 c 0,30,31
 72 1411 72 1411 63 1418 c 128,-1,32
 54 1425 54 1425 54 1434 c 0,33,34
 54 1439 54 1439 58.5 1442 c 128,-1,35
 63 1445 63 1445 69.5 1446.5 c 128,-1,36
 76 1448 76 1448 82.5 1448 c 128,-1,37
 89 1448 89 1448 94 1448 c 0,38,39
 119 1448 119 1448 161 1446.5 c 128,-1,40
 203 1445 203 1445 249 1443.5 c 128,-1,41
 295 1442 295 1442 338.5 1440.5 c 128,-1,42
 382 1439 382 1439 409 1439 c 0,43,44
 475 1439 475 1439 551 1442 c 128,-1,45
 627 1445 627 1445 705 1445 c 0,46,47
 721 1445 721 1445 729.5 1437.5 c 128,-1,48
 738 1430 738 1430 738 1419 c 0,49,50
 738 1412 738 1412 727 1408 c 128,-1,51
 716 1404 716 1404 701 1401.5 c 128,-1,52
 686 1399 686 1399 670.5 1398.5 c 128,-1,53
 655 1398 655 1398 646 1398 c 0,54,55
 631 1396 631 1396 609 1393 c 128,-1,56
 587 1390 587 1390 567.5 1384.5 c 128,-1,57
 548 1379 548 1379 534 1372 c 128,-1,58
 520 1365 520 1365 520 1356 c 0,59,60
 520 1343 520 1343 526 1331 c 128,-1,61
 532 1319 532 1319 539 1308 c 2,62,-1
 838 856 l 2,63,64
 856 836 856 836 859 836 c 0,65,66
 864 836 864 836 870.5 842 c 128,-1,67
 877 848 877 848 881 856 c 0,68,69
 936 947 936 947 1000.5 1046 c 128,-1,70
 1065 1145 1065 1145 1120 1240 c 0,71,72
 1131 1259 1131 1259 1137.5 1273 c 128,-1,73
 1144 1287 1144 1287 1144 1308 c 0,74,75
 1144 1340 1144 1340 1134.5 1358 c 128,-1,76
 1125 1376 1125 1376 1091 1387 c 0,77,78
 1085 1390 1085 1390 1069.5 1392.5 c 128,-1,79
 1054 1395 1054 1395 1036.5 1398 c 128,-1,80
 1019 1401 1019 1401 1002.5 1403.5 c 128,-1,81
 986 1406 986 1406 978 1408 c 0,82,83
 973 1409 973 1409 966 1409.5 c 128,-1,84
 959 1410 959 1410 952 1412.5 c 128,-1,85
 945 1415 945 1415 940 1419 c 128,-1,86
 935 1423 935 1423 935 1431 c 0,87,88
 935 1442 935 1442 942.5 1446 c 128,-1,89
 950 1450 950 1450 959 1450 c 0,90,91
 993 1450 993 1450 1031.5 1447 c 128,-1,92
 1070 1444 1070 1444 1110.5 1440.5 c 128,-1,93
 1151 1437 1151 1437 1192 1434 c 128,-1,94
 1233 1431 1233 1431 1272 1431 c 0,95,96
 1274 1431 1274 1431 1289 1431 c 128,-1,97
 1304 1431 1304 1431 1326 1432 c 128,-1,98
 1348 1433 1348 1433 1373 1434.5 c 128,-1,99
 1398 1436 1398 1436 1421 1438 c 0,100,101
 1466 1440 1466 1440 1492.5 1443 c 128,-1,102
 1519 1446 1519 1446 1537 1446 c 0,103,104
 1548 1446 1548 1446 1561.5 1444 c 128,-1,105
 1575 1442 1575 1442 1575 1431 c 0,106,107
 1575 1424 1575 1424 1561 1416 c 128,-1,108
 1547 1408 1547 1408 1525 1399.5 c 128,-1,109
 1503 1391 1503 1391 1476.5 1382 c 128,-1,110
 1450 1373 1450 1373 1425 1365 c 128,-1,111
 1400 1357 1400 1357 1379.5 1349.5 c 128,-1,112
 1359 1342 1359 1342 1350 1337 c 0,113,114
 1330 1326 1330 1326 1308 1311.5 c 128,-1,115
 1286 1297 1286 1297 1269 1285 c 0,116,117
 1246 1269 1246 1269 1212 1231 c 128,-1,118
 1178 1193 1178 1193 1139 1143.5 c 128,-1,119
 1100 1094 1100 1094 1060 1039 c 128,-1,120
 1020 984 1020 984 984 936 c 128,-1,121
 948 888 948 888 920.5 852 c 128,-1,122
 893 816 893 816 880 804 c 1,123,-1
 1302 154 l 2,124,125
 1313 137 1313 137 1329 121.5 c 128,-1,126
 1345 106 1345 106 1362 93 c 128,-1,127
 1379 80 1379 80 1396 70 c 128,-1,128
 1413 60 1413 60 1425 54 c 0,129,130
 1432 51 1432 51 1448 47.5 c 128,-1,131
 1464 44 1464 44 1482 41.5 c 128,-1,132
 1500 39 1500 39 1516.5 37.5 c 128,-1,133
 1533 36 1533 36 1541 36 c 0,134,135
 1554 34 1554 34 1562 30.5 c 128,-1,136
 1570 27 1570 27 1570 16 c 256,137,138
 1570 5 1570 5 1564 0 c 128,-1,139
 1558 -5 1558 -5 1549 -5 c 0,140,141
 1463 -5 1463 -5 1382 -2.5 c 128,-1,142
 1301 0 1301 0 1229 0 c 0,143,144
 1135 0 1135 0 1054.5 -2.5 c 128,-1,145
 974 -5 974 -5 918 -5 c 0,146,147
 895 -5 895 -5 887.5 4.5 c 128,-1,148
 880 14 880 14 880 36 c 0,149,150
 880 45 880 45 887 49.5 c 128,-1,151
 894 54 894 54 900 54 c 0,152,153
 905 54 905 54 915.5 52.5 c 128,-1,154
 926 51 926 51 938 48.5 c 128,-1,155
 950 46 950 46 960 44.5 c 128,-1,156
 970 43 970 43 973 43 c 0,157,158
 985 43 985 43 1006 44.5 c 128,-1,159
 1027 46 1027 46 1047.5 50.5 c 128,-1,160
 1068 55 1068 55 1083 64 c 128,-1,161
 1098 73 1098 73 1098 88 c 0,162,163
 1098 92 1098 92 1094.5 99 c 128,-1,164
 1091 106 1091 106 1085.5 113.5 c 128,-1,165
 1080 121 1080 121 1074.5 128.5 c 128,-1,166
 1069 136 1069 136 1066 142 c 2,167,-1
 810 524 l 2,168,169
 804 534 804 534 794.5 549 c 128,-1,170
 785 564 785 564 773.5 578 c 128,-1,171
 762 592 762 592 750.5 602 c 128,-1,172
 739 612 739 612 729 612 c 0,173,174
 711 612 711 612 700 600 c 2,175,-1
 456 213 l 2,176,177
 438 186 438 186 438 166 c 0,178,179
 438 152 438 152 443 132 c 128,-1,180
 448 112 448 112 460 93.5 c 128,-1,181
 472 75 472 75 492.5 61.5 c 128,-1,182
 513 48 513 48 544 48 c 2,183,-1
 655 48 l 2,184,185
 663 48 663 48 669.5 42.5 c 128,-1,186
 676 37 676 37 676 29 c 0,187,188
 676 18 676 18 667 9 c 128,-1,189
 658 0 658 0 644 0 c 2,190,-1
 103 0 l 2,191,192
 97 0 97 0 81 0.5 c 128,-1,193
 65 1 65 1 48.5 3.5 c 128,-1,194
 32 6 32 6 19 10 c 128,-1,195
 6 14 6 14 6 21 c 0,0,1
EndSplineSet
Validated: 1
EndChar

StartChar: Y
Encoding: 89 89 60
Width: 1395
Flags: W
LayerCount: 2
Fore
SplineSet
797 69 m 1,0,1
 809 62 809 62 825 56 c 128,-1,2
 841 50 841 50 866.5 45.5 c 128,-1,3
 892 41 892 41 931 38.5 c 128,-1,4
 970 36 970 36 1029 36 c 0,5,6
 1043 36 1043 36 1043 17 c 0,7,8
 1043 0 1043 0 1026.5 -4.5 c 128,-1,9
 1010 -9 1010 -9 994 -9 c 0,10,11
 955 -9 955 -9 914 -7.5 c 128,-1,12
 873 -6 873 -6 835 -4.5 c 128,-1,13
 797 -3 797 -3 762 -1.5 c 128,-1,14
 727 0 727 0 700 0 c 0,15,16
 660 0 660 0 632.5 -0.5 c 128,-1,17
 605 -1 605 -1 575 -1.5 c 128,-1,18
 545 -2 545 -2 505 -2.5 c 128,-1,19
 465 -3 465 -3 399 -3 c 0,20,21
 387 -3 387 -3 379 0 c 128,-1,22
 371 3 371 3 371 14 c 0,23,24
 371 26 371 26 380 31 c 0,25,26
 384 34 384 34 395 36 c 128,-1,27
 406 38 406 38 418.5 39.5 c 128,-1,28
 431 41 431 41 442.5 41.5 c 128,-1,29
 454 42 454 42 459 42 c 0,30,31
 479 44 479 44 497.5 45 c 128,-1,32
 516 46 516 46 532.5 49.5 c 128,-1,33
 549 53 549 53 563.5 61.5 c 128,-1,34
 578 70 578 70 591 86 c 1,35,-1
 607 521 l 2,36,37
 607 544 607 544 593 586.5 c 128,-1,38
 579 629 579 629 551 673 c 2,39,-1
 242 1189 l 2,40,41
 216 1233 216 1233 184 1276.5 c 128,-1,42
 152 1320 152 1320 105 1349 c 0,43,44
 93 1356 93 1356 67.5 1363 c 128,-1,45
 42 1370 42 1370 16 1378.5 c 128,-1,46
 -10 1387 -10 1387 -29.5 1397 c 128,-1,47
 -49 1407 -49 1407 -49 1419 c 0,48,49
 -49 1425 -49 1425 -33.5 1428.5 c 128,-1,50
 -18 1432 -18 1432 -9 1432 c 2,51,-1
 5 1432 l 2,52,53
 25 1432 25 1432 43.5 1429 c 128,-1,54
 62 1426 62 1426 89 1424 c 0,55,56
 139 1417 139 1417 191 1416 c 128,-1,57
 243 1415 243 1415 295 1415 c 0,58,59
 364 1415 364 1415 440 1423.5 c 128,-1,60
 516 1432 516 1432 589 1432 c 0,61,62
 594 1432 594 1432 601.5 1431.5 c 128,-1,63
 609 1431 609 1431 615.5 1429.5 c 128,-1,64
 622 1428 622 1428 627 1424.5 c 128,-1,65
 632 1421 632 1421 632 1415 c 0,66,67
 632 1394 632 1394 613 1391 c 0,68,69
 598 1388 598 1388 581 1387 c 128,-1,70
 564 1386 564 1386 546 1386 c 0,71,72
 521 1386 521 1386 497.5 1382 c 128,-1,73
 474 1378 474 1378 456 1367 c 128,-1,74
 438 1356 438 1356 427 1335.5 c 128,-1,75
 416 1315 416 1315 416 1282 c 0,76,77
 416 1272 416 1272 422 1256.5 c 128,-1,78
 428 1241 428 1241 436.5 1225 c 128,-1,79
 445 1209 445 1209 454 1194.5 c 128,-1,80
 463 1180 463 1180 468 1173 c 2,81,-1
 750 732 l 2,82,83
 757 723 757 723 766.5 714.5 c 128,-1,84
 776 706 776 706 783 706 c 0,85,86
 791 706 791 706 801 714 c 128,-1,87
 811 722 811 722 819 734 c 2,88,-1
 1030 1119 l 2,89,90
 1051 1158 1051 1158 1059 1202.5 c 128,-1,91
 1067 1247 1067 1247 1067 1277 c 0,92,93
 1067 1300 1067 1300 1058 1315 c 128,-1,94
 1049 1330 1049 1330 1030 1351 c 0,95,96
 1012 1369 1012 1369 992 1376.5 c 128,-1,97
 972 1384 972 1384 951 1387 c 128,-1,98
 930 1390 930 1390 909 1391 c 128,-1,99
 888 1392 888 1392 868 1398 c 0,100,101
 849 1402 849 1402 849 1420 c 0,102,103
 849 1429 849 1429 857.5 1436 c 128,-1,104
 866 1443 866 1443 875 1443 c 0,105,106
 914 1443 914 1443 947.5 1441.5 c 128,-1,107
 981 1440 981 1440 1012 1437.5 c 128,-1,108
 1043 1435 1043 1435 1073 1433.5 c 128,-1,109
 1103 1432 1103 1432 1136 1432 c 0,110,111
 1176 1432 1176 1432 1201 1433.5 c 128,-1,112
 1226 1435 1226 1435 1252.5 1437.5 c 128,-1,113
 1279 1440 1279 1440 1316 1441.5 c 128,-1,114
 1353 1443 1353 1443 1416 1443 c 0,115,116
 1429 1443 1429 1443 1439 1441 c 128,-1,117
 1449 1439 1449 1439 1449 1432 c 0,118,119
 1449 1418 1449 1418 1428 1408.5 c 128,-1,120
 1407 1399 1407 1399 1380 1393 c 128,-1,121
 1353 1387 1353 1387 1327 1382 c 128,-1,122
 1301 1377 1301 1377 1290 1372 c 0,123,124
 1239 1344 1239 1344 1204.5 1309.5 c 128,-1,125
 1170 1275 1170 1275 1141 1231 c 128,-1,126
 1112 1187 1112 1187 1083 1130.5 c 128,-1,127
 1054 1074 1054 1074 1015 1002 c 0,128,129
 992 959 992 959 968 917 c 128,-1,130
 944 875 944 875 920.5 833 c 128,-1,131
 897 791 897 791 875.5 747.5 c 128,-1,132
 854 704 854 704 837 659 c 0,133,134
 833 647 833 647 829.5 620 c 128,-1,135
 826 593 826 593 824 563.5 c 128,-1,136
 822 534 822 534 820.5 508 c 128,-1,137
 819 482 819 482 819 471 c 2,138,-1
 797 69 l 1,0,1
EndSplineSet
Validated: 1
EndChar

StartChar: Z
Encoding: 90 90 61
Width: 1386
Flags: W
LayerCount: 2
Fore
SplineSet
400 97 m 2,0,1
 395 88 395 88 390.5 81.5 c 128,-1,2
 386 75 386 75 386 66 c 0,3,4
 386 54 386 54 402 54 c 2,5,-1
 881 54 l 2,6,7
 901 54 901 54 924.5 55 c 128,-1,8
 948 56 948 56 974 62 c 0,9,10
 997 66 997 66 1016 71.5 c 128,-1,11
 1035 77 1035 77 1052 84.5 c 128,-1,12
 1069 92 1069 92 1086 102 c 128,-1,13
 1103 112 1103 112 1123 125 c 0,14,15
 1155 147 1155 147 1182 174 c 128,-1,16
 1209 201 1209 201 1230.5 229 c 128,-1,17
 1252 257 1252 257 1268 283.5 c 128,-1,18
 1284 310 1284 310 1296 332 c 0,19,20
 1299 338 1299 338 1302 346.5 c 128,-1,21
 1305 355 1305 355 1308.5 362.5 c 128,-1,22
 1312 370 1312 370 1316.5 375.5 c 128,-1,23
 1321 381 1321 381 1327 381 c 0,24,25
 1334 381 1334 381 1335.5 372 c 128,-1,26
 1337 363 1337 363 1337 356 c 2,27,-1
 1275 52 l 2,28,29
 1272 33 1272 33 1267 22.5 c 128,-1,30
 1262 12 1262 12 1253 7 c 128,-1,31
 1244 2 1244 2 1231 1 c 128,-1,32
 1218 0 1218 0 1199 0 c 2,33,-1
 104 0 l 2,34,35
 88 0 88 0 84 7 c 128,-1,36
 80 14 80 14 80 28 c 0,37,38
 80 32 80 32 84 42.5 c 128,-1,39
 88 53 88 53 99 69 c 2,40,-1
 953 1368 l 2,41,42
 955 1371 955 1371 957 1373.5 c 128,-1,43
 959 1376 959 1376 959 1381 c 256,44,45
 959 1386 959 1386 955 1389.5 c 128,-1,46
 951 1393 951 1393 945 1393 c 2,47,-1
 876 1393 l 2,48,49
 836 1393 836 1393 781 1392 c 128,-1,50
 726 1391 726 1391 666.5 1389.5 c 128,-1,51
 607 1388 607 1388 546.5 1385.5 c 128,-1,52
 486 1383 486 1383 435.5 1380 c 128,-1,53
 385 1377 385 1377 348 1373 c 128,-1,54
 311 1369 311 1369 298 1365 c 0,55,56
 268 1355 268 1355 244.5 1331.5 c 128,-1,57
 221 1308 221 1308 201.5 1277 c 128,-1,58
 182 1246 182 1246 166.5 1211 c 128,-1,59
 151 1176 151 1176 138 1144 c 128,-1,60
 125 1112 125 1112 114.5 1087 c 128,-1,61
 104 1062 104 1062 95 1050 c 0,62,63
 88 1043 88 1043 83 1043 c 0,64,65
 80 1043 80 1043 80 1054 c 0,66,67
 81 1072 81 1072 85.5 1101.5 c 128,-1,68
 90 1131 90 1131 96 1166.5 c 128,-1,69
 102 1202 102 1202 108.5 1240.5 c 128,-1,70
 115 1279 115 1279 121 1314.5 c 128,-1,71
 127 1350 127 1350 131.5 1379.5 c 128,-1,72
 136 1409 136 1409 137 1426 c 0,73,74
 137 1431 137 1431 144.5 1432.5 c 128,-1,75
 152 1434 152 1434 154 1434 c 0,76,77
 389 1439 389 1439 620 1444.5 c 128,-1,78
 851 1450 851 1450 1083 1450 c 2,79,-1
 1228 1450 l 2,80,81
 1233 1450 1233 1450 1240 1439 c 128,-1,82
 1247 1428 1247 1428 1247 1424 c 0,83,84
 1247 1413 1247 1413 1239 1399.5 c 128,-1,85
 1231 1386 1231 1386 1222 1370 c 2,86,-1
 400 97 l 2,0,1
EndSplineSet
Validated: 1
EndChar

StartChar: bracketleft
Encoding: 91 91 62
Width: 667
Flags: W
LayerCount: 2
Fore
SplineSet
693 1436 m 256,0,1
 693 1423 693 1423 690 1417 c 128,-1,2
 687 1411 687 1411 674 1406 c 1,3,-1
 547 1406 l 2,4,5
 530 1406 530 1406 501 1404.5 c 128,-1,6
 472 1403 472 1403 440.5 1401 c 128,-1,7
 409 1399 409 1399 380.5 1397 c 128,-1,8
 352 1395 352 1395 336 1394 c 0,9,10
 324 1394 324 1394 313 1393 c 128,-1,11
 302 1392 302 1392 292.5 1389 c 128,-1,12
 283 1386 283 1386 275 1379.5 c 128,-1,13
 267 1373 267 1373 260 1360 c 0,14,15
 259 1357 259 1357 258 1348.5 c 128,-1,16
 257 1340 257 1340 256.5 1329.5 c 128,-1,17
 256 1319 256 1319 255.5 1309.5 c 128,-1,18
 255 1300 255 1300 255 1296 c 0,19,20
 259 1183 259 1183 260 1052 c 128,-1,21
 261 921 261 921 259.5 790 c 128,-1,22
 258 659 258 659 256.5 536.5 c 128,-1,23
 255 414 255 414 255 317 c 2,24,-1
 255 116 l 1,25,-1
 255 -298 l 2,26,27
 255 -307 255 -307 266 -316 c 128,-1,28
 277 -325 277 -325 295 -327 c 0,29,30
 325 -332 325 -332 369.5 -334.5 c 128,-1,31
 414 -337 414 -337 463 -339 c 128,-1,32
 512 -341 512 -341 558.5 -344 c 128,-1,33
 605 -347 605 -347 639 -351 c 0,34,35
 661 -354 661 -354 673.5 -361 c 128,-1,36
 686 -368 686 -368 686 -377 c 0,37,38
 686 -391 686 -391 681 -403 c 128,-1,39
 676 -415 676 -415 660 -415 c 0,40,41
 610 -417 610 -417 549.5 -414 c 128,-1,42
 489 -411 489 -411 429.5 -406.5 c 128,-1,43
 370 -402 370 -402 318 -397.5 c 128,-1,44
 266 -393 266 -393 234 -393 c 0,45,46
 223 -393 223 -393 215.5 -388 c 128,-1,47
 208 -383 208 -383 203 -375.5 c 128,-1,48
 198 -368 198 -368 195.5 -359.5 c 128,-1,49
 193 -351 193 -351 193 -344 c 2,50,-1
 193 -100 l 2,51,52
 193 -12 193 -12 192 105 c 128,-1,53
 191 222 191 222 190 353 c 128,-1,54
 189 484 189 484 188 622.5 c 128,-1,55
 187 761 187 761 187 893 c 128,-1,56
 187 1025 187 1025 188.5 1143 c 128,-1,57
 190 1261 190 1261 193 1351 c 0,58,59
 193 1355 193 1355 193 1362.5 c 128,-1,60
 193 1370 193 1370 193.5 1378 c 128,-1,61
 194 1386 194 1386 194 1393.5 c 128,-1,62
 194 1401 194 1401 194 1406 c 0,63,64
 194 1427 194 1427 208 1439 c 128,-1,65
 222 1451 222 1451 243 1453 c 0,66,67
 277 1458 277 1458 310.5 1458.5 c 128,-1,68
 344 1459 344 1459 373 1462 c 0,69,70
 390 1463 390 1463 423.5 1465 c 128,-1,71
 457 1467 457 1467 493.5 1469 c 128,-1,72
 530 1471 530 1471 563 1472.5 c 128,-1,73
 596 1474 596 1474 611 1474 c 0,74,75
 624 1474 624 1474 638.5 1473 c 128,-1,76
 653 1472 653 1472 665 1468.5 c 128,-1,77
 677 1465 677 1465 685 1457 c 128,-1,78
 693 1449 693 1449 693 1436 c 256,0,1
EndSplineSet
Validated: 33
EndChar

StartChar: backslash
Encoding: 92 92 63
Width: 507
Flags: W
LayerCount: 2
Fore
SplineSet
476 -170 m 0,0,1
 470 -158 470 -158 450 -107.5 c 128,-1,2
 430 -57 430 -57 399 21 c 128,-1,3
 368 99 368 99 329.5 199 c 128,-1,4
 291 299 291 299 248.5 410 c 128,-1,5
 206 521 206 521 161 637.5 c 128,-1,6
 116 754 116 754 74 865 c 128,-1,7
 32 976 32 976 -6 1077 c 128,-1,8
 -44 1178 -44 1178 -73.5 1257 c 128,-1,9
 -103 1336 -103 1336 -122 1388.5 c 128,-1,10
 -141 1441 -141 1441 -145 1455 c 0,11,12
 -147 1460 -147 1460 -150.5 1468 c 128,-1,13
 -154 1476 -154 1476 -154 1484 c 0,14,15
 -154 1494 -154 1494 -143 1500 c 0,16,17
 -142 1500 -142 1500 -134.5 1503 c 128,-1,18
 -127 1506 -127 1506 -122 1509 c 0,19,20
 -120 1509 -120 1509 -111.5 1503.5 c 128,-1,21
 -103 1498 -103 1498 -97 1484 c 0,22,23
 59 1076 59 1076 219.5 670 c 128,-1,24
 380 264 380 264 528 -149 c 1,25,26
 526 -160 526 -160 520 -165.5 c 128,-1,27
 514 -171 514 -171 506 -173 c 0,28,29
 497 -176 497 -176 492 -176 c 0,30,31
 482 -176 482 -176 476 -170 c 0,0,1
EndSplineSet
Validated: 1
EndChar

StartChar: bracketright
Encoding: 93 93 64
Width: 650
Flags: W
LayerCount: 2
Fore
SplineSet
-35 -384 m 0,0,1
 -35 -371 -35 -371 -32.5 -365 c 128,-1,2
 -30 -359 -30 -359 -16 -355 c 1,3,-1
 110 -355 l 2,4,5
 127 -355 127 -355 156 -353.5 c 128,-1,6
 185 -352 185 -352 216.5 -349.5 c 128,-1,7
 248 -347 248 -347 277 -345 c 128,-1,8
 306 -343 306 -343 321 -343 c 0,9,10
 346 -342 346 -342 364.5 -338 c 128,-1,11
 383 -334 383 -334 397 -308 c 0,12,13
 398 -305 398 -305 399 -296.5 c 128,-1,14
 400 -288 400 -288 401 -277.5 c 128,-1,15
 402 -267 402 -267 402 -257.5 c 128,-1,16
 402 -248 402 -248 402 -244 c 0,17,18
 398 -147 398 -147 396 -27 c 128,-1,19
 394 93 394 93 393.5 222.5 c 128,-1,20
 393 352 393 352 395 483.5 c 128,-1,21
 397 615 397 615 402 735 c 0,22,23
 404 787 404 787 403 834 c 128,-1,24
 402 881 402 881 402 936 c 0,25,26
 402 1040 402 1040 406 1142.5 c 128,-1,27
 410 1245 410 1245 402 1349 c 0,28,29
 402 1359 402 1359 391.5 1367.5 c 128,-1,30
 381 1376 381 1376 363 1379 c 0,31,32
 333 1383 333 1383 288 1386 c 128,-1,33
 243 1389 243 1389 194 1391 c 128,-1,34
 145 1393 145 1393 98.5 1395.5 c 128,-1,35
 52 1398 52 1398 18 1403 c 0,36,37
 -4 1405 -4 1405 -16 1412.5 c 128,-1,38
 -28 1420 -28 1420 -28 1429 c 0,39,40
 -28 1443 -28 1443 -23 1455 c 128,-1,41
 -18 1467 -18 1467 -2 1467 c 0,42,43
 47 1469 47 1469 107.5 1466 c 128,-1,44
 168 1463 168 1463 227.5 1458.5 c 128,-1,45
 287 1454 287 1454 339 1449.5 c 128,-1,46
 391 1445 391 1445 423 1445 c 0,47,48
 433 1445 433 1445 441 1439.5 c 128,-1,49
 449 1434 449 1434 454.5 1426.5 c 128,-1,50
 460 1419 460 1419 462.5 1410.5 c 128,-1,51
 465 1402 465 1402 465 1396 c 2,52,-1
 465 1152 l 2,53,54
 465 1068 465 1068 463.5 955 c 128,-1,55
 462 842 462 842 460.5 713.5 c 128,-1,56
 459 585 459 585 458 447 c 128,-1,57
 457 309 457 309 457 175.5 c 128,-1,58
 457 42 457 42 458.5 -80 c 128,-1,59
 460 -202 460 -202 465 -299 c 0,60,61
 465 -303 465 -303 465 -310.5 c 128,-1,62
 465 -318 465 -318 464.5 -326.5 c 128,-1,63
 464 -335 464 -335 463.5 -343 c 128,-1,64
 463 -351 463 -351 463 -355 c 0,65,66
 463 -375 463 -375 449 -387 c 128,-1,67
 435 -399 435 -399 415 -401 c 0,68,69
 381 -406 381 -406 347.5 -407 c 128,-1,70
 314 -408 314 -408 285 -410 c 0,71,72
 268 -411 268 -411 234.5 -413 c 128,-1,73
 201 -415 201 -415 164.5 -417 c 128,-1,74
 128 -419 128 -419 95 -420.5 c 128,-1,75
 62 -422 62 -422 46 -422 c 0,76,77
 33 -422 33 -422 18.5 -421 c 128,-1,78
 4 -420 4 -420 -8 -416.5 c 128,-1,79
 -20 -413 -20 -413 -27.5 -405.5 c 128,-1,80
 -35 -398 -35 -398 -35 -384 c 0,0,1
EndSplineSet
Validated: 33
EndChar

StartChar: asciicircum
Encoding: 94 94 65
Width: 960
Flags: W
LayerCount: 2
Fore
SplineSet
763 714 m 0,0,1
 764 713 764 713 764 711 c 0,2,3
 764 706 764 706 756 704 c 128,-1,4
 748 702 748 702 744 702 c 0,5,6
 721 702 721 702 708 714 c 0,7,8
 679 740 679 740 652.5 767 c 128,-1,9
 626 794 626 794 600 819.5 c 128,-1,10
 574 845 574 845 547 868 c 128,-1,11
 520 891 520 891 489 908 c 0,12,13
 485 910 485 910 484 910 c 256,14,15
 483 910 483 910 479 908 c 0,16,17
 419 867 419 867 362.5 819 c 128,-1,18
 306 771 306 771 251 714 c 0,19,20
 246 709 246 709 241 708 c 128,-1,21
 236 707 236 707 227 707 c 0,22,23
 223 707 223 707 219 713.5 c 128,-1,24
 215 720 215 720 215 727 c 0,25,26
 215 731 215 731 217 735 c 0,27,28
 238 762 238 762 259 788 c 128,-1,29
 280 814 280 814 305 845 c 128,-1,30
 330 876 330 876 360 915 c 128,-1,31
 390 954 390 954 428 1006 c 0,32,33
 432 1012 432 1012 439.5 1020 c 128,-1,34
 447 1028 447 1028 455 1034.5 c 128,-1,35
 463 1041 463 1041 471.5 1046 c 128,-1,36
 480 1051 480 1051 486 1051 c 0,37,38
 500 1051 500 1051 512 1042 c 128,-1,39
 524 1033 524 1033 535 1021 c 0,40,41
 564 982 564 982 593 946.5 c 128,-1,42
 622 911 622 911 651 875 c 128,-1,43
 680 839 680 839 708 799.5 c 128,-1,44
 736 760 736 760 763 714 c 0,0,1
EndSplineSet
Validated: 1
EndChar

StartChar: underscore
Encoding: 95 95 66
Width: 929
Flags: W
LayerCount: 2
Fore
SplineSet
40 -156 m 0,0,1
 31 -156 31 -156 23.5 -149 c 128,-1,2
 16 -142 16 -142 16 -126 c 0,3,4
 16 -111 16 -111 21 -105 c 128,-1,5
 26 -99 26 -99 35 -99 c 2,6,-1
 604 -103 l 1,7,-1
 654 -103 l 2,8,9
 713 -103 713 -103 771.5 -102 c 128,-1,10
 830 -101 830 -101 889 -99 c 0,11,12
 900 -99 900 -99 907 -105.5 c 128,-1,13
 914 -112 914 -112 914 -128 c 0,14,15
 914 -137 914 -137 907.5 -146.5 c 128,-1,16
 901 -156 901 -156 889 -156 c 2,17,-1
 323 -152 l 1,18,-1
 273 -152 l 2,19,20
 214 -152 214 -152 156 -153 c 128,-1,21
 98 -154 98 -154 40 -156 c 0,0,1
EndSplineSet
Validated: 1
EndChar

StartChar: grave
Encoding: 96 96 67
Width: 1068
Flags: W
LayerCount: 2
Fore
SplineSet
254 1388 m 0,0,1
 254 1420 254 1420 268.5 1439.5 c 128,-1,2
 283 1459 283 1459 321 1459 c 0,3,4
 351 1459 351 1459 377.5 1446.5 c 128,-1,5
 404 1434 404 1434 418 1409 c 0,6,7
 493 1281 493 1281 548 1200 c 128,-1,8
 603 1119 603 1119 626 1073 c 0,9,10
 627 1071 627 1071 627 1068 c 128,-1,11
 627 1065 627 1065 627 1063 c 0,12,13
 627 1052 627 1052 615 1047 c 128,-1,14
 603 1042 603 1042 595 1042 c 2,15,-1
 589 1042 l 2,16,17
 586 1042 586 1042 584 1044 c 0,18,19
 555 1070 555 1070 519 1102.5 c 128,-1,20
 483 1135 483 1135 446.5 1168 c 128,-1,21
 410 1201 410 1201 375.5 1232 c 128,-1,22
 341 1263 341 1263 316 1286 c 0,23,24
 290 1311 290 1311 272 1339 c 128,-1,25
 254 1367 254 1367 254 1388 c 0,0,1
EndSplineSet
Validated: 1
EndChar

StartChar: a
Encoding: 97 97 68
Width: 947
Flags: W
LayerCount: 2
Fore
SplineSet
543 144 m 1,0,-1
 538 140 l 2,1,2
 537 140 537 140 521.5 125.5 c 128,-1,3
 506 111 506 111 487 93.5 c 128,-1,4
 468 76 468 76 451 61 c 128,-1,5
 434 46 434 46 430 45 c 0,6,7
 398 27 398 27 357.5 11 c 128,-1,8
 317 -5 317 -5 266 -5 c 0,9,10
 230 -5 230 -5 194.5 5 c 128,-1,11
 159 15 159 15 130.5 39.5 c 128,-1,12
 102 64 102 64 84.5 105 c 128,-1,13
 67 146 67 146 67 209 c 0,14,15
 67 232 67 232 78.5 267.5 c 128,-1,16
 90 303 90 303 117 332 c 0,17,18
 145 365 145 365 178.5 387.5 c 128,-1,19
 212 410 212 410 252.5 427.5 c 128,-1,20
 293 445 293 445 342 459 c 128,-1,21
 391 473 391 473 451 488 c 0,22,23
 465 491 465 491 481 495 c 128,-1,24
 497 499 497 499 511.5 503 c 128,-1,25
 526 507 526 507 536.5 510.5 c 128,-1,26
 547 514 547 514 550 517 c 0,27,28
 555 521 555 521 559.5 524 c 128,-1,29
 564 527 564 527 565 538 c 0,30,31
 569 561 569 561 572.5 587 c 128,-1,32
 576 613 576 613 578.5 639 c 128,-1,33
 581 665 581 665 582 689 c 128,-1,34
 583 713 583 713 583 732 c 0,35,36
 583 771 583 771 568 805 c 128,-1,37
 553 839 553 839 527.5 864 c 128,-1,38
 502 889 502 889 468 903 c 128,-1,39
 434 917 434 917 396 917 c 0,40,41
 366 917 366 917 333.5 902.5 c 128,-1,42
 301 888 301 888 274.5 864 c 128,-1,43
 248 840 248 840 231 809.5 c 128,-1,44
 214 779 214 779 214 747 c 0,45,46
 214 732 214 732 222 723 c 128,-1,47
 230 714 230 714 239 706 c 128,-1,48
 248 698 248 698 256 688 c 128,-1,49
 264 678 264 678 264 661 c 0,50,51
 264 620 264 620 238 597 c 128,-1,52
 212 574 212 574 174 574 c 0,53,54
 151 574 151 574 133.5 583.5 c 128,-1,55
 116 593 116 593 103 608.5 c 128,-1,56
 90 624 90 624 83.5 644 c 128,-1,57
 77 664 77 664 77 685 c 0,58,59
 77 705 77 705 88 728 c 128,-1,60
 99 751 99 751 115 773 c 128,-1,61
 131 795 131 795 148.5 814.5 c 128,-1,62
 166 834 166 834 178 846 c 0,63,64
 200 867 200 867 220.5 883 c 128,-1,65
 241 899 241 899 264 915 c 0,66,67
 281 926 281 926 299 933 c 128,-1,68
 317 940 317 940 334 945 c 0,69,70
 344 949 344 949 361.5 954.5 c 128,-1,71
 379 960 379 960 400.5 965 c 128,-1,72
 422 970 422 970 445.5 973.5 c 128,-1,73
 469 977 469 977 491 977 c 0,74,75
 538 977 538 977 583.5 964 c 128,-1,76
 629 951 629 951 664.5 923 c 128,-1,77
 700 895 700 895 722 851 c 128,-1,78
 744 807 744 807 744 746 c 0,79,80
 744 678 744 678 737 607 c 128,-1,81
 730 536 730 536 721.5 471 c 128,-1,82
 713 406 713 406 706 352 c 128,-1,83
 699 298 699 298 699 265 c 0,84,85
 699 248 699 248 702 222.5 c 128,-1,86
 705 197 705 197 713.5 173.5 c 128,-1,87
 722 150 722 150 737 133 c 128,-1,88
 752 116 752 116 776 116 c 0,89,90
 804 116 804 116 830 129 c 128,-1,91
 856 142 856 142 878 162 c 128,-1,92
 900 182 900 182 917.5 206 c 128,-1,93
 935 230 935 230 946 253 c 0,94,95
 948 257 948 257 950.5 261.5 c 128,-1,96
 953 266 953 266 958 266 c 0,97,98
 962 266 962 266 962 259 c 2,99,-1
 962 249 l 2,100,101
 962 205 962 205 945.5 160.5 c 128,-1,102
 929 116 929 116 897.5 79.5 c 128,-1,103
 866 43 866 43 820 20 c 128,-1,104
 774 -3 774 -3 714 -3 c 0,105,106
 703 -3 703 -3 688.5 -1.5 c 128,-1,107
 674 0 674 0 661 5 c 0,108,109
 635 18 635 18 618 33.5 c 128,-1,110
 601 49 601 49 588.5 66 c 128,-1,111
 576 83 576 83 565.5 102.5 c 128,-1,112
 555 122 555 122 543 144 c 1,0,-1
226 180 m 0,113,114
 226 155 226 155 236 137 c 128,-1,115
 246 119 246 119 262.5 107.5 c 128,-1,116
 279 96 279 96 300 90.5 c 128,-1,117
 321 85 321 85 342 85 c 0,118,119
 368 85 368 85 392.5 90.5 c 128,-1,120
 417 96 417 96 439 105 c 128,-1,121
 461 114 461 114 479.5 124.5 c 128,-1,122
 498 135 498 135 513 145 c 0,123,124
 538 167 538 167 538 190 c 0,125,126
 538 264 538 264 547.5 329.5 c 128,-1,127
 557 395 557 395 557 458 c 0,128,129
 557 465 557 465 555.5 473 c 128,-1,130
 554 481 554 481 546 481 c 0,131,132
 537 481 537 481 528.5 478.5 c 128,-1,133
 520 476 520 476 513 474 c 0,134,135
 469 458 469 458 427 439 c 128,-1,136
 385 420 385 420 344 400 c 0,137,138
 316 385 316 385 294 360 c 128,-1,139
 272 335 272 335 257 305 c 128,-1,140
 242 275 242 275 234 242.5 c 128,-1,141
 226 210 226 210 226 180 c 0,113,114
EndSplineSet
Validated: 1
EndChar

